<?xml version="1.0" encoding="utf-8"?>
<!-- Generator: Adobe Illustrator 23.0.1, SVG Export Plug-In . SVG Version: 6.00 Build 0)  -->
<svg version="1.1" id="Camada_1" xmlns="http://www.w3.org/2000/svg" xmlns:xlink="http://www.w3.org/1999/xlink" x="0px" y="0px"
	 viewBox="0 0 317 194.3" style="enable-background:new 0 0 317 194.3;" xml:space="preserve">
<style type="text/css">
	.st0{fill:#FFFFFF;}
</style>
<rect x="180.7" y="126.8" class="st0" width="111.8" height="3.1"/>
<rect x="24.2" y="126.8" class="st0" width="111.8" height="3.1"/>
<rect x="180.7" y="101.4" class="st0" width="111.8" height="3.1"/>
<rect x="144.1" y="101.4" class="st0" width="28.4" height="3.1"/>
<rect x="144.1" y="106.5" class="st0" width="3.1" height="26"/>
<rect x="169.5" y="106.5" class="st0" width="3.1" height="26"/>
<rect x="24.2" y="101.4" class="st0" width="111.8" height="3.1"/>
<rect x="154.9" y="121.7" class="st0" width="3.1" height="3.1"/>
<rect x="151.1" y="121.7" class="st0" width="3.1" height="3.1"/>
<rect x="158.7" y="121.7" class="st0" width="3.1" height="3.1"/>
<rect x="162.5" y="121.7" class="st0" width="3.1" height="3.1"/>
<rect x="154.9" y="125.5" class="st0" width="3.1" height="3.1"/>
<rect x="151.1" y="125.5" class="st0" width="3.1" height="3.1"/>
<rect x="158.7" y="125.5" class="st0" width="3.1" height="3.1"/>
<rect x="162.5" y="125.5" class="st0" width="3.1" height="3.1"/>
<rect x="154.9" y="129.3" class="st0" width="3.1" height="3.1"/>
<rect x="151.1" y="129.3" class="st0" width="3.1" height="3.1"/>
<rect x="158.7" y="129.3" class="st0" width="3.1" height="3.1"/>
<rect x="162.5" y="129.3" class="st0" width="3.1" height="3.1"/>
<rect x="154.9" y="110.3" class="st0" width="3.1" height="3.1"/>
<rect x="151.1" y="110.3" class="st0" width="3.1" height="3.1"/>
<rect x="158.7" y="110.3" class="st0" width="3.1" height="3.1"/>
<rect x="162.5" y="110.3" class="st0" width="3.1" height="3.1"/>
<rect x="154.9" y="106.5" class="st0" width="3.1" height="3.1"/>
<rect x="151.1" y="106.5" class="st0" width="3.1" height="3.1"/>
<rect x="158.7" y="106.5" class="st0" width="3.1" height="3.1"/>
<rect x="162.5" y="106.5" class="st0" width="3.1" height="3.1"/>
<rect x="154.9" y="114.1" class="st0" width="3.1" height="3.1"/>
<rect x="151.1" y="114.1" class="st0" width="3.1" height="3.1"/>
<rect x="158.7" y="114.1" class="st0" width="3.1" height="3.1"/>
<rect x="162.5" y="114.1" class="st0" width="3.1" height="3.1"/>
<rect x="154.9" y="117.9" class="st0" width="3.1" height="3.1"/>
<rect x="151.1" y="117.9" class="st0" width="3.1" height="3.1"/>
<rect x="158.7" y="117.9" class="st0" width="3.1" height="3.1"/>
<rect x="162.5" y="117.9" class="st0" width="3.1" height="3.1"/>
<rect x="279.8" y="121.7" class="st0" width="3.1" height="3.1"/>
<rect x="276" y="121.7" class="st0" width="3.1" height="3.1"/>
<rect x="283.6" y="121.7" class="st0" width="3.1" height="3.1"/>
<rect x="279.8" y="110.3" class="st0" width="3.1" height="3.1"/>
<rect x="276" y="110.3" class="st0" width="3.1" height="3.1"/>
<rect x="283.6" y="110.3" class="st0" width="3.1" height="3.1"/>
<rect x="279.8" y="106.5" class="st0" width="3.1" height="3.1"/>
<rect x="276" y="106.5" class="st0" width="3.1" height="3.1"/>
<rect x="283.6" y="106.5" class="st0" width="3.1" height="3.1"/>
<rect x="279.8" y="114.1" class="st0" width="3.1" height="3.1"/>
<rect x="276" y="114.1" class="st0" width="3.1" height="3.1"/>
<rect x="283.6" y="114.1" class="st0" width="3.1" height="3.1"/>
<rect x="279.8" y="117.9" class="st0" width="3.1" height="3.1"/>
<rect x="276" y="117.9" class="st0" width="3.1" height="3.1"/>
<rect x="283.6" y="117.9" class="st0" width="3.1" height="3.1"/>
<rect x="257.4" y="121.7" class="st0" width="3.1" height="3.1"/>
<rect x="253.6" y="121.7" class="st0" width="3.1" height="3.1"/>
<rect x="261.2" y="121.7" class="st0" width="3.1" height="3.1"/>
<rect x="257.4" y="110.3" class="st0" width="3.1" height="3.1"/>
<rect x="253.6" y="110.3" class="st0" width="3.1" height="3.1"/>
<rect x="261.2" y="110.3" class="st0" width="3.1" height="3.1"/>
<rect x="257.4" y="106.5" class="st0" width="3.1" height="3.1"/>
<rect x="253.6" y="106.5" class="st0" width="3.1" height="3.1"/>
<rect x="261.2" y="106.5" class="st0" width="3.1" height="3.1"/>
<rect x="257.4" y="114.1" class="st0" width="3.1" height="3.1"/>
<rect x="253.6" y="114.1" class="st0" width="3.1" height="3.1"/>
<rect x="261.2" y="114.1" class="st0" width="3.1" height="3.1"/>
<rect x="257.4" y="117.9" class="st0" width="3.1" height="3.1"/>
<rect x="253.6" y="117.9" class="st0" width="3.1" height="3.1"/>
<rect x="261.2" y="117.9" class="st0" width="3.1" height="3.1"/>
<rect x="33.8" y="84.4" class="st0" width="3.1" height="3.1"/>
<rect x="30" y="84.4" class="st0" width="3.1" height="3.1"/>
<rect x="37.6" y="84.4" class="st0" width="3.1" height="3.1"/>
<rect x="33.8" y="88.2" class="st0" width="3.1" height="3.1"/>
<rect x="30" y="88.2" class="st0" width="3.1" height="3.1"/>
<rect x="37.6" y="88.2" class="st0" width="3.1" height="3.1"/>
<rect x="33.8" y="92" class="st0" width="3.1" height="3.1"/>
<rect x="30" y="92" class="st0" width="3.1" height="3.1"/>
<rect x="37.6" y="92" class="st0" width="3.1" height="3.1"/>
<rect x="33.8" y="76.7" class="st0" width="3.1" height="3.1"/>
<rect x="30" y="76.7" class="st0" width="3.1" height="3.1"/>
<rect x="37.6" y="76.7" class="st0" width="3.1" height="3.1"/>
<rect x="33.8" y="80.5" class="st0" width="3.1" height="3.1"/>
<rect x="30" y="80.5" class="st0" width="3.1" height="3.1"/>
<rect x="37.6" y="80.5" class="st0" width="3.1" height="3.1"/>
<g>
	<path class="st0" d="M33.1,73.1c-1.1,0.3-2.2,0.8-3.1,1.4V76h3.1V73.1z"/>
	<path class="st0" d="M40.7,74.5c-0.9-0.7-2-1.1-3.1-1.4V76h3.1V74.5z"/>
	<path class="st0" d="M36.9,72.9c-0.5-0.1-1-0.1-1.5-0.1c-0.5,0-1,0.1-1.5,0.1V76h3.1V72.9z"/>
</g>
<rect x="33.8" y="121.7" class="st0" width="3.1" height="3.1"/>
<rect x="37.6" y="121.7" class="st0" width="3.1" height="3.1"/>
<rect x="30" y="121.7" class="st0" width="3.1" height="3.1"/>
<rect x="33.8" y="110.3" class="st0" width="3.1" height="3.1"/>
<rect x="37.6" y="110.3" class="st0" width="3.1" height="3.1"/>
<rect x="30" y="110.3" class="st0" width="3.1" height="3.1"/>
<rect x="33.8" y="106.5" class="st0" width="3.1" height="3.1"/>
<rect x="37.6" y="106.5" class="st0" width="3.1" height="3.1"/>
<rect x="30" y="106.5" class="st0" width="3.1" height="3.1"/>
<rect x="33.8" y="114.1" class="st0" width="3.1" height="3.1"/>
<rect x="37.6" y="114.1" class="st0" width="3.1" height="3.1"/>
<rect x="30" y="114.1" class="st0" width="3.1" height="3.1"/>
<rect x="33.8" y="117.9" class="st0" width="3.1" height="3.1"/>
<rect x="37.6" y="117.9" class="st0" width="3.1" height="3.1"/>
<rect x="30" y="117.9" class="st0" width="3.1" height="3.1"/>
<rect x="56.2" y="121.7" class="st0" width="3.1" height="3.1"/>
<rect x="60" y="121.7" class="st0" width="3.1" height="3.1"/>
<rect x="52.4" y="121.7" class="st0" width="3.1" height="3.1"/>
<rect x="56.2" y="110.3" class="st0" width="3.1" height="3.1"/>
<rect x="60" y="110.3" class="st0" width="3.1" height="3.1"/>
<rect x="52.4" y="110.3" class="st0" width="3.1" height="3.1"/>
<rect x="56.2" y="106.5" class="st0" width="3.1" height="3.1"/>
<rect x="60" y="106.5" class="st0" width="3.1" height="3.1"/>
<rect x="52.4" y="106.5" class="st0" width="3.1" height="3.1"/>
<rect x="56.2" y="114.1" class="st0" width="3.1" height="3.1"/>
<rect x="60" y="114.1" class="st0" width="3.1" height="3.1"/>
<rect x="52.4" y="114.1" class="st0" width="3.1" height="3.1"/>
<rect x="56.2" y="117.9" class="st0" width="3.1" height="3.1"/>
<rect x="60" y="117.9" class="st0" width="3.1" height="3.1"/>
<rect x="52.4" y="117.9" class="st0" width="3.1" height="3.1"/>
<rect x="119.4" y="106.5" class="st0" width="16.5" height="18.3"/>
<rect x="74.7" y="106.5" class="st0" width="16.5" height="18.3"/>
<rect x="97.1" y="106.5" class="st0" width="16.5" height="18.3"/>
<rect x="225.4" y="106.5" class="st0" width="16.5" height="18.3"/>
<rect x="180.7" y="106.5" class="st0" width="16.5" height="18.3"/>
<rect x="203.1" y="106.5" class="st0" width="16.5" height="18.3"/>
<polygon class="st0" points="180.7,135.1 180.7,135.1 136,135.1 136,135.1 136,132 24.2,132 24.2,138.1 24.2,138.2 292.5,138.2 
	292.5,138.1 292.5,132 180.7,132 "/>
<g>
	<path class="st0" d="M158.3,72.9l-12.6,0v0h0c0,0.1,0,0.3,0,0.4c0,4.7,0.6,8.9,2,12.7c0.3,0.9,0.6,1.7,1,2.6c2,4.7,5.2,8.4,9.6,11
		c0,0,0,0,0,0c0,0,0,0,0,0c4.4-2.6,7.6-6.3,9.6-11c0.4-0.8,0.7-1.7,1-2.6c1.4-3.8,2-8,2-12.7c0-0.1,0-0.3,0-0.4h0v0L158.3,72.9z"/>
</g>
<polygon class="st0" points="158.3,58.5 139.9,69.9 176.7,69.9 "/>
<polygon class="st0" points="135.9,66.5 158.3,52.7 158.3,52.7 180.7,66.5 180.7,66.5 314.9,66.5 267.7,37.3 247.9,49.6 68.8,49.6 
	49,37.3 1.8,66.5 135.9,66.5 "/>
<rect x="56.2" y="84.4" class="st0" width="3.1" height="3.1"/>
<rect x="52.4" y="84.4" class="st0" width="3.1" height="3.1"/>
<rect x="60" y="84.4" class="st0" width="3.1" height="3.1"/>
<rect x="56.2" y="88.2" class="st0" width="3.1" height="3.1"/>
<rect x="52.4" y="88.2" class="st0" width="3.1" height="3.1"/>
<rect x="60" y="88.2" class="st0" width="3.1" height="3.1"/>
<rect x="56.2" y="92" class="st0" width="3.1" height="3.1"/>
<rect x="52.4" y="92" class="st0" width="3.1" height="3.1"/>
<rect x="60" y="92" class="st0" width="3.1" height="3.1"/>
<rect x="56.2" y="76.7" class="st0" width="3.1" height="3.1"/>
<rect x="52.4" y="76.7" class="st0" width="3.1" height="3.1"/>
<rect x="60" y="76.7" class="st0" width="3.1" height="3.1"/>
<rect x="56.2" y="80.5" class="st0" width="3.1" height="3.1"/>
<rect x="52.4" y="80.5" class="st0" width="3.1" height="3.1"/>
<rect x="60" y="80.5" class="st0" width="3.1" height="3.1"/>
<g>
	<path class="st0" d="M55.4,73.1c-1.1,0.3-2.2,0.8-3.1,1.4V76h3.1V73.1z"/>
	<path class="st0" d="M63,74.5c-0.9-0.7-2-1.1-3.1-1.4V76H63V74.5z"/>
	<path class="st0" d="M59.2,72.9c-0.5-0.1-1-0.1-1.5-0.1c-0.5,0-1,0.1-1.5,0.1V76h3.1V72.9z"/>
</g>
<rect x="78.5" y="84.4" class="st0" width="3.1" height="3.1"/>
<rect x="74.7" y="84.4" class="st0" width="3.1" height="3.1"/>
<rect x="82.3" y="84.4" class="st0" width="3.1" height="3.1"/>
<rect x="78.5" y="88.2" class="st0" width="3.1" height="3.1"/>
<rect x="74.7" y="88.2" class="st0" width="3.1" height="3.1"/>
<rect x="82.3" y="88.2" class="st0" width="3.1" height="3.1"/>
<rect x="78.5" y="92" class="st0" width="3.1" height="3.1"/>
<rect x="74.7" y="92" class="st0" width="3.1" height="3.1"/>
<rect x="82.3" y="92" class="st0" width="3.1" height="3.1"/>
<rect x="78.5" y="76.7" class="st0" width="3.1" height="3.1"/>
<rect x="74.7" y="76.7" class="st0" width="3.1" height="3.1"/>
<rect x="82.3" y="76.7" class="st0" width="3.1" height="3.1"/>
<rect x="78.5" y="80.5" class="st0" width="3.1" height="3.1"/>
<rect x="74.7" y="80.5" class="st0" width="3.1" height="3.1"/>
<rect x="82.3" y="80.5" class="st0" width="3.1" height="3.1"/>
<g>
	<path class="st0" d="M77.8,73.1c-1.1,0.3-2.2,0.8-3.1,1.4V76h3.1V73.1z"/>
	<path class="st0" d="M85.4,74.5c-0.9-0.7-2-1.1-3.1-1.4V76h3.1V74.5z"/>
	<path class="st0" d="M81.6,72.9c-0.5-0.1-1-0.1-1.5-0.1c-0.5,0-1,0.1-1.5,0.1V76h3.1V72.9z"/>
</g>
<rect x="100.9" y="84.4" class="st0" width="3.1" height="3.1"/>
<rect x="97.1" y="84.4" class="st0" width="3.1" height="3.1"/>
<rect x="104.7" y="84.4" class="st0" width="3.1" height="3.1"/>
<rect x="100.9" y="88.2" class="st0" width="3.1" height="3.1"/>
<rect x="97.1" y="88.2" class="st0" width="3.1" height="3.1"/>
<rect x="104.7" y="88.2" class="st0" width="3.1" height="3.1"/>
<rect x="100.9" y="92" class="st0" width="3.1" height="3.1"/>
<rect x="97.1" y="92" class="st0" width="3.1" height="3.1"/>
<rect x="104.7" y="92" class="st0" width="3.1" height="3.1"/>
<rect x="100.9" y="76.7" class="st0" width="3.1" height="3.1"/>
<rect x="97.1" y="76.7" class="st0" width="3.1" height="3.1"/>
<rect x="104.7" y="76.7" class="st0" width="3.1" height="3.1"/>
<rect x="100.9" y="80.5" class="st0" width="3.1" height="3.1"/>
<rect x="97.1" y="80.5" class="st0" width="3.1" height="3.1"/>
<rect x="104.7" y="80.5" class="st0" width="3.1" height="3.1"/>
<g>
	<path class="st0" d="M100.2,73.1c-1.1,0.3-2.2,0.8-3.1,1.4V76h3.1V73.1z"/>
	<path class="st0" d="M107.8,74.5c-0.9-0.7-2-1.1-3.1-1.4V76h3.1V74.5z"/>
	<path class="st0" d="M104,72.9c-0.5-0.1-1-0.1-1.5-0.1c-0.5,0-1,0.1-1.5,0.1V76h3.1V72.9z"/>
</g>
<rect x="123.2" y="84.4" class="st0" width="3.1" height="3.1"/>
<rect x="119.4" y="84.4" class="st0" width="3.1" height="3.1"/>
<rect x="127.1" y="84.4" class="st0" width="3.1" height="3.1"/>
<rect x="123.2" y="88.2" class="st0" width="3.1" height="3.1"/>
<rect x="119.4" y="88.2" class="st0" width="3.1" height="3.1"/>
<rect x="127.1" y="88.2" class="st0" width="3.1" height="3.1"/>
<rect x="123.2" y="92" class="st0" width="3.1" height="3.1"/>
<rect x="119.4" y="92" class="st0" width="3.1" height="3.1"/>
<rect x="127.1" y="92" class="st0" width="3.1" height="3.1"/>
<rect x="123.2" y="76.7" class="st0" width="3.1" height="3.1"/>
<rect x="119.4" y="76.7" class="st0" width="3.1" height="3.1"/>
<rect x="127.1" y="76.7" class="st0" width="3.1" height="3.1"/>
<rect x="123.2" y="80.5" class="st0" width="3.1" height="3.1"/>
<rect x="119.4" y="80.5" class="st0" width="3.1" height="3.1"/>
<rect x="127.1" y="80.5" class="st0" width="3.1" height="3.1"/>
<g>
	<path class="st0" d="M122.5,73.1c-1.1,0.3-2.2,0.8-3.1,1.4V76h3.1V73.1z"/>
	<path class="st0" d="M130.1,74.5c-0.9-0.7-2-1.1-3.1-1.4V76h3.1V74.5z"/>
	<path class="st0" d="M126.3,72.9c-0.5-0.1-1-0.1-1.5-0.1s-1,0.1-1.5,0.1V76h3.1V72.9z"/>
</g>
<rect x="190.3" y="84.4" class="st0" width="3.1" height="3.1"/>
<rect x="186.5" y="84.4" class="st0" width="3.1" height="3.1"/>
<rect x="194.1" y="84.4" class="st0" width="3.1" height="3.1"/>
<rect x="190.3" y="88.2" class="st0" width="3.1" height="3.1"/>
<rect x="186.5" y="88.2" class="st0" width="3.1" height="3.1"/>
<rect x="194.1" y="88.2" class="st0" width="3.1" height="3.1"/>
<rect x="190.3" y="92" class="st0" width="3.1" height="3.1"/>
<rect x="186.5" y="92" class="st0" width="3.1" height="3.1"/>
<rect x="194.1" y="92" class="st0" width="3.1" height="3.1"/>
<rect x="190.3" y="76.7" class="st0" width="3.1" height="3.1"/>
<rect x="186.5" y="76.7" class="st0" width="3.1" height="3.1"/>
<rect x="194.1" y="76.7" class="st0" width="3.1" height="3.1"/>
<rect x="190.3" y="80.5" class="st0" width="3.1" height="3.1"/>
<rect x="186.5" y="80.5" class="st0" width="3.1" height="3.1"/>
<rect x="194.1" y="80.5" class="st0" width="3.1" height="3.1"/>
<g>
	<path class="st0" d="M189.6,73.1c-1.1,0.3-2.2,0.8-3.1,1.4V76h3.1V73.1z"/>
	<path class="st0" d="M197.2,74.5c-0.9-0.7-2-1.1-3.1-1.4V76h3.1V74.5z"/>
	<path class="st0" d="M193.4,72.9c-0.5-0.1-1-0.1-1.5-0.1c-0.5,0-1,0.1-1.5,0.1V76h3.1V72.9z"/>
</g>
<rect x="212.7" y="84.4" class="st0" width="3.1" height="3.1"/>
<rect x="208.9" y="84.4" class="st0" width="3.1" height="3.1"/>
<rect x="216.5" y="84.4" class="st0" width="3.1" height="3.1"/>
<rect x="212.7" y="88.2" class="st0" width="3.1" height="3.1"/>
<rect x="208.9" y="88.2" class="st0" width="3.1" height="3.1"/>
<rect x="216.5" y="88.2" class="st0" width="3.1" height="3.1"/>
<rect x="212.7" y="92" class="st0" width="3.1" height="3.1"/>
<rect x="208.9" y="92" class="st0" width="3.1" height="3.1"/>
<rect x="216.5" y="92" class="st0" width="3.1" height="3.1"/>
<rect x="212.7" y="76.7" class="st0" width="3.1" height="3.1"/>
<rect x="208.9" y="76.7" class="st0" width="3.1" height="3.1"/>
<rect x="216.5" y="76.7" class="st0" width="3.1" height="3.1"/>
<rect x="212.7" y="80.5" class="st0" width="3.1" height="3.1"/>
<rect x="208.9" y="80.5" class="st0" width="3.1" height="3.1"/>
<rect x="216.5" y="80.5" class="st0" width="3.1" height="3.1"/>
<g>
	<path class="st0" d="M212,73.1c-1.1,0.3-2.2,0.8-3.1,1.4V76h3.1V73.1z"/>
	<path class="st0" d="M219.6,74.5c-0.9-0.7-2-1.1-3.1-1.4V76h3.1V74.5z"/>
	<path class="st0" d="M215.8,72.9c-0.5-0.1-1-0.1-1.5-0.1c-0.5,0-1,0.1-1.5,0.1V76h3.1V72.9z"/>
</g>
<rect x="235.1" y="84.4" class="st0" width="3.1" height="3.1"/>
<rect x="231.3" y="84.4" class="st0" width="3.1" height="3.1"/>
<rect x="238.9" y="84.4" class="st0" width="3.1" height="3.1"/>
<rect x="235.1" y="88.2" class="st0" width="3.1" height="3.1"/>
<rect x="231.3" y="88.2" class="st0" width="3.1" height="3.1"/>
<rect x="238.9" y="88.2" class="st0" width="3.1" height="3.1"/>
<rect x="235.1" y="92" class="st0" width="3.1" height="3.1"/>
<rect x="231.3" y="92" class="st0" width="3.1" height="3.1"/>
<rect x="238.9" y="92" class="st0" width="3.1" height="3.1"/>
<rect x="235.1" y="76.7" class="st0" width="3.1" height="3.1"/>
<rect x="231.3" y="76.7" class="st0" width="3.1" height="3.1"/>
<rect x="238.9" y="76.7" class="st0" width="3.1" height="3.1"/>
<rect x="235.1" y="80.5" class="st0" width="3.1" height="3.1"/>
<rect x="231.3" y="80.5" class="st0" width="3.1" height="3.1"/>
<rect x="238.9" y="80.5" class="st0" width="3.1" height="3.1"/>
<g>
	<path class="st0" d="M234.3,73.1c-1.1,0.3-2.2,0.8-3.1,1.4V76h3.1V73.1z"/>
	<path class="st0" d="M241.9,74.5c-0.9-0.7-2-1.1-3.1-1.4V76h3.1V74.5z"/>
	<path class="st0" d="M238.1,72.9c-0.5-0.1-1-0.1-1.5-0.1s-1,0.1-1.5,0.1V76h3.1V72.9z"/>
</g>
<rect x="257.4" y="84.4" class="st0" width="3.1" height="3.1"/>
<rect x="253.6" y="84.4" class="st0" width="3.1" height="3.1"/>
<rect x="261.2" y="84.4" class="st0" width="3.1" height="3.1"/>
<rect x="257.4" y="88.2" class="st0" width="3.1" height="3.1"/>
<rect x="253.6" y="88.2" class="st0" width="3.1" height="3.1"/>
<rect x="261.2" y="88.2" class="st0" width="3.1" height="3.1"/>
<rect x="257.4" y="92" class="st0" width="3.1" height="3.1"/>
<rect x="253.6" y="92" class="st0" width="3.1" height="3.1"/>
<rect x="261.2" y="92" class="st0" width="3.1" height="3.1"/>
<rect x="257.4" y="76.7" class="st0" width="3.1" height="3.1"/>
<rect x="253.6" y="76.7" class="st0" width="3.1" height="3.1"/>
<rect x="261.2" y="76.7" class="st0" width="3.1" height="3.1"/>
<rect x="257.4" y="80.5" class="st0" width="3.1" height="3.1"/>
<rect x="253.6" y="80.5" class="st0" width="3.1" height="3.1"/>
<rect x="261.2" y="80.5" class="st0" width="3.1" height="3.1"/>
<g>
	<path class="st0" d="M256.7,73.1c-1.1,0.3-2.2,0.8-3.1,1.4V76h3.1V73.1z"/>
	<path class="st0" d="M264.3,74.5c-0.9-0.7-2-1.1-3.1-1.4V76h3.1V74.5z"/>
	<path class="st0" d="M260.5,72.9c-0.5-0.1-1-0.1-1.5-0.1c-0.5,0-1,0.1-1.5,0.1V76h3.1V72.9z"/>
</g>
<rect x="279.8" y="84.4" class="st0" width="3.1" height="3.1"/>
<rect x="276" y="84.4" class="st0" width="3.1" height="3.1"/>
<rect x="283.6" y="84.4" class="st0" width="3.1" height="3.1"/>
<rect x="279.8" y="88.2" class="st0" width="3.1" height="3.1"/>
<rect x="276" y="88.2" class="st0" width="3.1" height="3.1"/>
<rect x="283.6" y="88.2" class="st0" width="3.1" height="3.1"/>
<rect x="279.8" y="92" class="st0" width="3.1" height="3.1"/>
<rect x="276" y="92" class="st0" width="3.1" height="3.1"/>
<rect x="283.6" y="92" class="st0" width="3.1" height="3.1"/>
<rect x="279.8" y="76.7" class="st0" width="3.1" height="3.1"/>
<rect x="276" y="76.7" class="st0" width="3.1" height="3.1"/>
<rect x="283.6" y="76.7" class="st0" width="3.1" height="3.1"/>
<rect x="279.8" y="80.5" class="st0" width="3.1" height="3.1"/>
<rect x="276" y="80.5" class="st0" width="3.1" height="3.1"/>
<rect x="283.6" y="80.5" class="st0" width="3.1" height="3.1"/>
<path class="st0" d="M282.9,72.9c-0.5-0.1-1-0.1-1.5-0.1c-0.5,0-1,0.1-1.5,0.1V76h3.1V72.9z"/>
<path class="st0" d="M286.7,74.5c-0.9-0.7-2-1.1-3.1-1.4V76h3.1V74.5z"/>
<path class="st0" d="M279.1,73.1c-1.1,0.3-2.2,0.8-3.1,1.4V76h3.1V73.1z"/>
<g id="textos_2_">
	<path class="st0" d="M146.5,189.6l0-0.1h0.3c0.4,0,0.7-0.3,0.7-0.7v-7c0-0.4-0.2-0.7-0.6-0.7h-0.5V181c0.7-0.1,1.3-0.2,1.8-0.9h0.1
		v8.7c0,0.4,0.3,0.7,0.7,0.7h0.3l0,0.1H146.5z"/>
	<path class="st0" d="M155.2,184.7c-1.3,1.7-4.3,1.4-4.3-1.4c-0.1-1.9,1.2-3.1,2.8-3.1c1.8,0,3.1,1.4,3.1,3.8c0,2.7-1.4,5.9-4.5,6.2
		l0-0.1c2.5-0.7,3.5-3.3,3.5-6c0-2.2-0.7-3.5-2.1-3.5c-1.3,0-1.8,1.2-1.8,2.5c0,1.3,0.6,2.2,1.8,2.2c0.5,0,1.1-0.2,1.5-0.7
		L155.2,184.7z"/>
	<path class="st0" d="M158.4,181.1c0.4-0.5,1-0.9,2.1-0.9c1.6-0.1,2.6,0.8,2.6,2c0,1.1-0.9,2.1-1.8,2.2c1,0.2,2.1,1,2.1,2.4
		c0,2.1-2.3,3.8-5,3.3l0-0.1c2.1,0.1,3.9-1.3,4-3.2c0-1.5-1.2-2.2-2.7-2.2l0-0.1c1.2,0,2.5-0.8,2.4-2.3c0-0.8-0.5-1.6-1.6-1.6
		c-1.1,0-1.7,0.7-1.7,1.8h-0.1L158.4,181.1z"/>
	<path class="st0" d="M165.2,181.1c0.4-0.5,1-0.9,2.1-0.9c1.6-0.1,2.6,0.8,2.6,2c0,1.1-0.9,2.1-1.8,2.2c1,0.2,2.1,1,2.1,2.4
		c0,2.1-2.3,3.8-5,3.3l0-0.1c2.1,0.1,3.9-1.3,4-3.2c0-1.5-1.2-2.2-2.7-2.2l0-0.1c1.2,0,2.5-0.8,2.4-2.3c0-0.8-0.5-1.6-1.6-1.6
		c-1.1,0-1.7,0.7-1.7,1.8h-0.1L165.2,181.1z"/>
	<path class="st0" d="M13.3,149.2v0.2H13c-0.5,0-0.9,0.3-0.9,0.8v6.7c0,2.6-1.8,4.4-4.6,4.4c-2.8,0-4.7-1.8-4.7-4.4v-6.7
		c0-0.5-0.4-0.8-0.9-0.8H1.7v-0.2h3.4v0.2H4.9c-0.5,0-0.9,0.3-0.9,0.8v6.5c0,2.5,1.4,4.1,3.6,4.1c2.3,0,3.8-1.6,3.8-3.9v-6.7
		c0-0.5-0.4-0.8-0.9-0.8h-0.3v-0.2H13.3z"/>
	<path class="st0" d="M26.5,150.9l0,0.2h-0.3c-0.5,0-0.9,0.4-0.9,0.8v7.2c0,1.1,0.2,2.2,0.2,2.2h-0.2l-8.8-8.3v7.1
		c0,0.5,0.4,0.9,0.9,0.9h0.3l0,0.2h-3.2l0-0.2h0.3c0.5,0,0.9-0.4,0.9-0.9v-7.2c0-1.2-0.2-2.1-0.2-2.1l0.2,0l8.8,8.3v-7
		c0-0.5-0.4-0.8-0.9-0.8h-0.3l0-0.2H26.5z"/>
	<path class="st0" d="M28,161l0-0.2h0.2c0.6,0,1.1-0.4,1.1-0.9v-8c0-0.5-0.5-0.9-1.1-0.9H28l0-0.2h3.8v0.2h-0.2
		c-0.6,0-1.1,0.4-1.1,0.9v8c0,0.5,0.5,0.9,1.1,0.9h0.2l0,0.2H28z"/>
	<path class="st0" d="M44,150.9v0.2h-0.1c-0.5,0-1,0.3-1.3,1l-3.5,7.5c0,0-0.6,1.3-0.6,1.7h-0.2l-4.2-9.2c-0.3-0.7-0.9-1-1.3-1h-0.1
		v-0.2h3.5v0.2H36c-0.4,0-0.8,0.4-0.6,1l3,7.4l3.1-7.3c0.3-0.7-0.2-1.1-0.6-1.1h-0.1v-0.2H44z"/>
	<path class="st0" d="M51.7,161h-6.9l0-0.2h0.2c0.5,0,1-0.4,1-0.9v-8c0-0.5-0.4-0.9-1-0.9h-0.2l0-0.2h4.9c0.7,0,1.6-0.2,1.9-0.3v1.9
		l-0.2,0v-0.3c0-0.5-0.3-0.9-0.8-0.9h-3.5v4.3H50c0.5,0,0.7-0.3,0.7-0.7v-0.2l0.2,0v2.4l-0.2,0v-0.2c0-0.4-0.2-0.7-0.6-0.7h-2.9v4.3
		h2.6c1.6,0,2.2-0.8,2.7-1.9h0.2L51.7,161z"/>
	<path class="st0" d="M58.1,150.9c2.1,0,3.4,1,3.4,2.7c0,1.4-1.1,2.6-2.6,2.8c0.4,0.2,0.9,0.8,1.3,1.3c0,0,0.8,1.1,1.5,1.8
		c0.7,0.8,1.2,1.3,2.1,1.3v0.2h-0.5c-1.9,0-2.6-0.9-3.1-1.5c-0.2-0.2-1.5-2.2-1.7-2.3c-0.5-0.6-1-1.1-1.7-1.1v-0.2c0,0,0.4,0,1,0
		c0.9,0,2,0,2.5-1.5c0.1-0.2,0.1-0.6,0.1-1c0-1.3-0.9-2-2.2-2.1c-1,0-1.8,0-1.9,0v8.5c0,0.5,0.4,0.9,1,0.9h0.2l0,0.2h-3.5l0-0.2h0.2
		c0.5,0,0.9-0.4,1-0.9v-8c0-0.5-0.4-0.9-1-0.9h-0.2l0-0.2L58.1,150.9z"/>
	<path class="st0" d="M69.7,156.7c0.5,0.4,0.8,1.2,0.8,1.8c0,1.5-1.3,2.7-3,2.7c-1,0-2.3-0.2-2.9-0.8c-0.1-0.4-0.1-1.4,0.2-2.1h0.2
		c-0.2,1.5,0.9,2.4,2.4,2.4c1.4,0,2.3-0.8,2.3-1.9c0-0.5-0.2-1-0.6-1.3l-3.4-2.6c-0.6-0.5-0.8-1.2-0.8-1.8c0-1.4,1.2-2.5,2.8-2.5
		c0.8,0,1.3,0.1,1.7,0.2h0.6l0,1.8h-0.2c0-0.9-0.6-1.5-2-1.5c-1.1,0-2,0.7-2,1.6c0,0.4,0.1,0.9,0.7,1.3L69.7,156.7z"/>
	<path class="st0" d="M72.3,161l0-0.2h0.2c0.6,0,1.1-0.4,1.1-0.9v-8c0-0.5-0.5-0.9-1.1-0.9h-0.2l0-0.2h3.8v0.2h-0.2
		c-0.6,0-1.1,0.4-1.1,0.9v8c0,0.5,0.5,0.9,1.1,0.9h0.2l0,0.2H72.3z"/>
	<path class="st0" d="M80.3,160.5h3.4c2.6,0,4.2-1.7,4.2-4.6c0-2.8-1.6-4.6-4.2-4.6h-3.4V160.5z M83.6,150.9c3.3,0,5.4,1.9,5.4,5.1
		c0,3.1-2.1,5.1-5.4,5.1H78l0-0.2h0.2c0.5,0,0.9-0.4,0.9-0.9v-8c0-0.5-0.4-0.9-1-0.9H78l0-0.2L83.6,150.9z"/>
	<path class="st0" d="M97.1,157.1l-1.9-4.6l-2,4.6H97.1z M99.5,159.9c0.3,0.7,0.9,1,1.3,1h0.1v0.2h-3.5v-0.2h0.1
		c0.4,0,0.8-0.4,0.6-1l-0.9-2.3H93l-0.9,2.2c-0.3,0.7,0.2,1.1,0.6,1.1h0.1v0.2h-3.2v-0.2h0.1c0.4,0,1-0.3,1.3-1l3.5-7.5
		c0,0,0.6-1.3,0.7-1.7h0.2L99.5,159.9z"/>
	<path class="st0" d="M104,160.5h3.4c2.6,0,4.2-1.7,4.2-4.6c0-2.8-1.6-4.6-4.2-4.6H104V160.5z M107.4,150.9c3.3,0,5.4,1.9,5.4,5.1
		c0,3.1-2.1,5.1-5.4,5.1h-5.6l0-0.2h0.2c0.5,0,0.9-0.4,0.9-0.9v-8c0-0.5-0.4-0.9-1-0.9h-0.2l0-0.2L107.4,150.9z"/>
	<path class="st0" d="M121.2,161h-6.9l0-0.2h0.2c0.5,0,1-0.4,1-0.9v-8c0-0.5-0.4-0.9-1-0.9h-0.2l0-0.2h4.9c0.7,0,1.6-0.2,1.9-0.3
		v1.9l-0.2,0v-0.3c0-0.5-0.3-0.9-0.8-0.9h-3.5v4.3h2.9c0.5,0,0.7-0.3,0.7-0.7v-0.2l0.2,0v2.4l-0.2,0v-0.2c0-0.4-0.2-0.7-0.6-0.7
		h-2.9v4.3h2.6c1.6,0,2.2-0.8,2.7-1.9h0.2L121.2,161z"/>
	<path class="st0" d="M134.9,149.4v0.3v1.1l-0.2,0v-0.2c0-0.5-0.4-0.8-0.8-0.8h-3.6v5.2h2.9c0.5,0,0.8-0.4,0.8-0.8v-0.3l0.2,0v2.7
		l-0.2,0v-0.2c0-0.4-0.4-0.8-0.8-0.8h-2.9v4.3c0,0.6,0.5,1.1,1.1,1.1h0.2l0,0.2h-3.7l0-0.2h0.2c0.6,0,1.1-0.5,1.1-1.1v-9.5
		c0-0.5-0.5-1-1.1-1h-0.2l0-0.2h4.9c0.7,0,1.7-0.2,2-0.3V149.4z"/>
	<path class="st0" d="M143.1,161h-6.9l0-0.2h0.2c0.5,0,1-0.4,1-0.9v-8c0-0.5-0.4-0.9-1-0.9h-0.2l0-0.2h4.9c0.7,0,1.6-0.2,1.9-0.3
		v1.9l-0.2,0v-0.3c0-0.5-0.3-0.9-0.8-0.9h-3.5v4.3h2.9c0.5,0,0.7-0.3,0.7-0.7v-0.2l0.2,0v2.4l-0.2,0v-0.2c0-0.4-0.2-0.7-0.6-0.7
		h-2.9v4.3h2.6c1.6,0,2.2-0.8,2.7-1.9h0.2L143.1,161z"/>
	<path class="st0" d="M147.6,160.5h3.4c2.6,0,4.2-1.7,4.2-4.6c0-2.8-1.6-4.6-4.2-4.6h-3.4V160.5z M151,150.9c3.3,0,5.4,1.9,5.4,5.1
		c0,3.1-2.1,5.1-5.4,5.1h-5.6l0-0.2h0.2c0.5,0,0.9-0.4,0.9-0.9v-8c0-0.5-0.4-0.9-1-0.9h-0.2l0-0.2L151,150.9z"/>
	<path class="st0" d="M164.8,161h-6.9l0-0.2h0.2c0.5,0,1-0.4,1-0.9v-8c0-0.5-0.4-0.9-1-0.9h-0.2l0-0.2h4.9c0.7,0,1.6-0.2,1.9-0.3
		v1.9l-0.2,0v-0.3c0-0.5-0.3-0.9-0.8-0.9h-3.5v4.3h2.9c0.5,0,0.7-0.3,0.7-0.7v-0.2l0.2,0v2.4l-0.2,0v-0.2c0-0.4-0.2-0.7-0.6-0.7
		h-2.9v4.3h2.6c1.6,0,2.2-0.8,2.7-1.9h0.2L164.8,161z"/>
	<path class="st0" d="M171.2,150.9c2.1,0,3.4,1,3.4,2.7c0,1.4-1.1,2.6-2.6,2.8c0.4,0.2,0.9,0.8,1.3,1.3c0,0,0.8,1.1,1.5,1.8
		c0.7,0.8,1.2,1.3,2.1,1.3v0.2h-0.5c-1.9,0-2.6-0.9-3.1-1.5c-0.2-0.2-1.5-2.2-1.7-2.3c-0.5-0.6-1-1.1-1.7-1.1v-0.2c0,0,0.4,0,1,0
		c0.9,0,2,0,2.5-1.5c0.1-0.2,0.1-0.6,0.1-1c0-1.3-0.9-2-2.2-2.1c-1,0-1.8,0-1.9,0v8.5c0,0.5,0.4,0.9,1,0.9h0.2l0,0.2H167l0-0.2h0.2
		c0.5,0,0.9-0.4,1-0.9v-8c0-0.5-0.4-0.9-1-0.9H167l0-0.2L171.2,150.9z"/>
	<path class="st0" d="M184.1,157.1l-1.9-4.6l-2,4.6H184.1z M186.5,159.9c0.3,0.7,0.9,1,1.3,1h0.1v0.2h-3.5v-0.2h0.1
		c0.4,0,0.8-0.4,0.6-1l-0.9-2.3H180l-0.9,2.2c-0.3,0.7,0.2,1.1,0.6,1.1h0.1v0.2h-3.2v-0.2h0.1c0.5,0,1-0.3,1.3-1l3.5-7.5
		c0,0,0.6-1.3,0.7-1.7h0.2L186.5,159.9z"/>
	<path class="st0" d="M196.6,158.6l-0.9,2.4h-6.9l0-0.2h0.2c0.5,0,1-0.4,1-0.9v-8c0-0.5-0.5-0.9-1-0.9h-0.2l0-0.2h3.5l0,0.2h-0.2
		c-0.5,0-1,0.4-1,0.9v8.5h2.6c1.6,0,2.2-0.8,2.7-1.9H196.6z"/>
	<path class="st0" d="M204.3,160.5h3.4c2.6,0,4.2-1.7,4.2-4.6c0-2.8-1.6-4.6-4.2-4.6h-3.4V160.5z M207.7,150.9
		c3.3,0,5.4,1.9,5.4,5.1c0,3.1-2.1,5.1-5.4,5.1H202l0-0.2h0.2c0.5,0,0.9-0.4,0.9-0.9v-8c0-0.5-0.4-0.9-1-0.9H202l0-0.2L207.7,150.9z
		"/>
	<path class="st0" d="M221.5,161h-6.9l0-0.2h0.2c0.5,0,1-0.4,1-0.9v-8c0-0.5-0.4-0.9-1-0.9h-0.2l0-0.2h4.9c0.7,0,1.6-0.2,1.9-0.3
		v1.9l-0.2,0v-0.3c0-0.5-0.3-0.9-0.8-0.9h-3.5v4.3h2.9c0.5,0,0.7-0.3,0.7-0.7v-0.2l0.2,0v2.4l-0.2,0v-0.2c0-0.4-0.2-0.7-0.6-0.7
		h-2.9v4.3h2.6c1.6,0,2.2-0.8,2.7-1.9h0.2L221.5,161z"/>
	<path class="st0" d="M233.4,156.1c0.7,0.6,0.8,1.4,0.8,2.1c0,1.9-1.2,3.2-3.2,3.2c-0.8,0-2.2-0.2-2.9-0.9c-0.1-0.5-0.1-1.6,0.2-2.4
		h0.1c-0.2,1.7,0.9,2.9,2.4,2.8c1.2-0.1,2.3-0.9,2.3-2.3c0-0.7-0.2-1.2-0.7-1.6l-3.2-3c-0.7-0.6-0.9-1.4-0.9-2.1c0-1.4,1-2.9,3-2.9
		c0.4,0,1,0.1,1.5,0.2h0.7v0.2v1.9h-0.2c0-1.1-0.8-1.7-1.9-1.7c-1.2,0-2.1,0.9-2.1,1.9c0,0.4,0.1,1.1,0.7,1.6L233.4,156.1z"/>
	<path class="st0" d="M242.7,148.5c-0.2,0.4-0.5,0.6-0.9,0.6c-0.6,0-1.3-0.7-2-0.7c-0.5,0-1,0.5-1.1,1.4h0.2
		c0.2-0.5,0.5-0.7,0.9-0.7c0.5,0,1.3,0.7,2,0.7c0.6,0,1-0.5,1.1-1.3H242.7z M242.4,157.1l-1.9-4.6l-2,4.6H242.4z M244.9,159.9
		c0.3,0.7,0.9,1,1.3,1h0.1v0.2h-3.5v-0.2h0.1c0.4,0,0.8-0.4,0.6-1l-0.9-2.3h-4.3l-0.9,2.2c-0.3,0.7,0.2,1.1,0.6,1.1h0.1v0.2h-3.2
		v-0.2h0.1c0.5,0,1-0.3,1.3-1l3.5-7.5c0,0,0.6-1.3,0.7-1.7h0.2L244.9,159.9z"/>
	<path class="st0" d="M257,156c0-2.9-2-4.8-4.5-4.8c-2.5,0-4.5,1.9-4.5,4.8c0,2.9,2,4.8,4.5,4.8C255,160.8,257,158.8,257,156
		 M258.2,156c0,3.1-2.6,5.3-5.7,5.3c-3.2,0-5.7-2.2-5.7-5.3c0-3.1,2.5-5.3,5.7-5.3C255.7,150.7,258.2,152.8,258.2,156"/>
	<path class="st0" d="M268.7,149.2c2.2,0,3.5,1.2,3.5,3.3c0,2.6-2.8,3.9-4.9,2.8l0-0.2c0,0,2.8,0.6,3.5-1.8c0.1-0.2,0.1-0.6,0.1-1
		c0-1.6-0.8-2.6-2.3-2.6h-1.9v10.1c0,0.6,0.5,1.1,1.1,1.1h0.2l0,0.2h-3.7l0-0.2h0.2c0.6,0,1.1-0.5,1.1-1.1v-9.5
		c-0.1-0.5-0.5-1-1.1-1h-0.2l0-0.2H268.7z"/>
	<path class="st0" d="M278.9,157.1l-1.9-4.6l-2,4.6H278.9z M281.3,159.9c0.3,0.7,0.9,1,1.3,1h0.1v0.2h-3.5v-0.2h0.1
		c0.4,0,0.8-0.4,0.6-1l-0.9-2.3h-4.3l-0.9,2.2c-0.3,0.7,0.2,1.1,0.6,1.1h0.1v0.2h-3.2v-0.2h0.1c0.4,0,1-0.3,1.3-1l3.5-7.5
		c0,0,0.6-1.3,0.7-1.7h0.2L281.3,159.9z"/>
	<path class="st0" d="M293.3,150.9v0.2H293c-0.4,0-0.8,0.3-0.8,0.7v5.7c0,2.4-1.6,3.8-4.2,3.8c-2.6,0-4.2-1.4-4.2-3.8v-5.7
		c0-0.4-0.4-0.7-0.8-0.7h-0.3v-0.2h3.2v0.2h-0.3c-0.4,0-0.8,0.3-0.8,0.7v5.5c0,2.2,1.2,3.5,3.1,3.5c2.1,0,3.4-1.3,3.4-3.3v-5.7
		c0-0.4-0.4-0.7-0.8-0.7h-0.3v-0.2H293.3z"/>
	<path class="st0" d="M302.6,158.6l-0.9,2.4h-6.9l0-0.2h0.2c0.5,0,1-0.4,1-0.9v-8c0-0.5-0.5-0.9-1-0.9h-0.2l0-0.2h3.5l0,0.2h-0.2
		c-0.5,0-1,0.4-1,0.9v8.5h2.6c1.6,0,2.2-0.8,2.7-1.9H302.6z"/>
	<path class="st0" d="M313.8,156c0-2.9-2-4.8-4.5-4.8c-2.5,0-4.5,1.9-4.5,4.8c0,2.9,2,4.8,4.5,4.8
		C311.8,160.8,313.8,158.8,313.8,156 M315.1,156c0,3.1-2.6,5.3-5.7,5.3c-3.2,0-5.7-2.2-5.7-5.3c0-3.1,2.5-5.3,5.7-5.3
		C312.5,150.7,315.1,152.8,315.1,156"/>
</g>
<rect x="46.6" y="170.8" class="st0" width="223.6" height="1.5"/>
<path class="st0" d="M96.5,2.2v0.5h-0.8c-1.4,0-2.6,1-2.7,2.4v19.9c0,7.9-5.4,13.1-13.5,13.1c-8.4,0-13.9-5.2-13.9-13.1V5.2
	c0-1.4-1.2-2.5-2.7-2.5h-0.8V2.2h10.2v0.5h-0.8c-1.4,0-2.6,1-2.7,2.4v19.2c0,7.3,4.3,12.2,10.7,12.2c6.7,0,11.2-4.6,11.2-11.6V5.1
	c-0.1-1.4-1.2-2.4-2.7-2.4h-0.8V2.2L96.5,2.2z"/>
<path class="st0" d="M135.7,2.2l0,0.5h-0.9c-1.7,0-3,1.3-3.1,3v26c0,3.2,0.5,6.4,0.5,6.4h-0.5L104.3,8.8v25c0.1,1.7,1.4,3,3.1,3h0.9
	l0,0.5H98l0-0.5h0.9c1.7,0,3.1-1.4,3.1-3V7.7c0-3.4-0.5-6.3-0.5-6.3h0.5l27.4,29.2V5.7c0-1.7-1.4-3-3.1-3h-0.9l0-0.5H135.7z"/>
<path class="st0" d="M151,37.4h-11l0-0.5h0.6c1.8,0,3.2-1.4,3.2-3.2V5.8c0-1.7-1.5-3.1-3.2-3.1H140l0-0.5h11l0,0.5h-0.6
	c-1.8,0-3.2,1.4-3.2,3.1v27.9c0,1.8,1.5,3.2,3.2,3.2h0.6L151,37.4z"/>
<path class="st0" d="M177.2,2.8v0.9V7l-0.5,0V6.2c0-1.4-1.1-2.5-2.4-2.5h-10.6v15.5h8.5c1.3,0,2.4-1.1,2.4-2.5v-0.7l0.5,0v8l-0.5,0
	v-0.7c0-1.3-1.1-2.4-2.4-2.5h-8.5v12.9c0,1.8,1.5,3.2,3.2,3.2h0.6l0,0.5h-11l0-0.5h0.6c1.8,0,3.2-1.4,3.2-3.2V5.6
	c0-1.6-1.5-2.9-3.2-2.9h-0.6l0-0.5h14.7c2.2,0,5.1-0.5,6-0.9L177.2,2.8z"/>
<path class="st0" d="M204,37.4h-20.8l0-0.5h0.6c1.8,0,3.2-1.4,3.2-3.2V5.6c-0.2-1.6-1.5-2.9-3.2-2.9h-0.6l0-0.5h14.7
	c2.2,0,5.1-0.5,6-0.9v1.5v0.8v4l-0.5,0V6.7c0-1.6-1.2-2.9-2.8-3h-10.2v15.5h8.5c1.3,0,2.4-1.1,2.4-2.5v-0.7l0.5,0v8l-0.5,0v-0.7
	c0-1.3-1.1-2.4-2.4-2.5h-8.5v15.1h7.2c5.3,0,7.4-2.8,8.9-6.6h0.5L204,37.4z"/>
<path class="st0" d="M227.1,22.6c2,1.9,2.5,4.1,2.5,6.1c0,5.6-3.6,9.4-9.4,9.4c-2.5,0-6.5-0.7-8.5-2.7c-0.4-1.6-0.2-4.8,0.6-7h0.4
	c-0.5,5.2,2.8,8.5,7.2,8.2c3.7-0.2,6.7-2.7,6.7-6.7c0-2-0.7-3.5-2-4.7l-9.6-8.9c-2-1.9-2.7-4.3-2.7-6.2c0-4.2,3.1-8.5,8.8-8.5
	c1.3,0,3,0.2,4.3,0.5h2v0.6v5.6h-0.5c0-3.2-2.5-5.2-5.7-5.2c-3.7,0-6.2,2.7-6.2,5.8c0,1.3,0.4,3.2,2,4.6L227.1,22.6z"/>
<path class="st0" d="M247.1,2.2c6.4,0,10.4,3.7,10.4,9.7c0,7.7-8.3,11.7-14.6,8.4l0-0.5c0,0,8.3,1.8,10.5-5.4c0.2-0.7,0.4-1.9,0.3-3
	c-0.1-4.6-2.5-7.7-6.8-7.7h-5.8v30c0,1.8,1.5,3.2,3.2,3.2h0.6l0,0.5h-11l0-0.5h0.6c1.8,0,3.2-1.4,3.2-3.2V5.6
	c-0.2-1.6-1.5-2.9-3.2-2.9H234l0-0.5L247.1,2.2z"/>
</svg>
