<?xml version="1.0" encoding="UTF-8" standalone="no"?>
<!-- Created with Inkscape (http://www.inkscape.org/) -->

<svg
   version="1.1"
   id="svg1115"
   xml:space="preserve"
   width="590.2973"
   height="341.10666"
   viewBox="0 0 590.2973 341.10666"
   sodipodi:docname="logo-vertical.svg"
   inkscape:version="1.1.2 (0a00cf5339, 2022-02-04)"
   xmlns:inkscape="http://www.inkscape.org/namespaces/inkscape"
   xmlns:sodipodi="http://sodipodi.sourceforge.net/DTD/sodipodi-0.dtd"
   xmlns="http://www.w3.org/2000/svg"
   xmlns:svg="http://www.w3.org/2000/svg"><defs
     id="defs1119"><clipPath
       clipPathUnits="userSpaceOnUse"
       id="clipPath1129"><path
         d="M 0,255.83 H 442.723 V 0 H 0 Z"
         id="path1127" /></clipPath></defs><sodipodi:namedview
     id="namedview1117"
     pagecolor="#505050"
     bordercolor="#eeeeee"
     borderopacity="1"
     inkscape:pageshadow="0"
     inkscape:pageopacity="0"
     inkscape:pagecheckerboard="0"
     showgrid="false"
     inkscape:zoom="0.63847739"
     inkscape:cx="302.28165"
     inkscape:cy="162.10441"
     inkscape:window-width="1536"
     inkscape:window-height="795"
     inkscape:window-x="0"
     inkscape:window-y="32"
     inkscape:window-maximized="1"
     inkscape:current-layer="g1121" /><g
     id="g1121"
     inkscape:groupmode="layer"
     inkscape:label="prodmais_logo"
     transform="matrix(1.3333333,0,0,-1.3333333,0,341.10667)"><g
       id="g1123"><g
         id="g1125"
         clip-path="url(#clipPath1129)"><g
           id="g1131"
           transform="translate(200.1123,107.3457)"><path
             d="m 0,0 h 20.471 l 22.922,45.843 c 0.31,0.618 0.941,1.009 1.633,1.009 h 35.14 c 18.369,0 33.313,14.945 33.313,33.314 0,18.368 -14.944,33.313 -33.313,33.313 h -2.042 c -0.774,0 -1.462,0.487 -1.721,1.216 -4.704,13.285 -17.313,22.21 -31.377,22.21 -7.45,0 -14.515,-2.435 -20.432,-7.042 -0.612,-0.472 -1.459,-0.513 -2.11,-0.093 -7.261,4.667 -15.667,7.135 -24.31,7.135 -24.827,0 -45.028,-20.198 -45.028,-45.025 0,-1.01 -0.816,-1.826 -1.826,-1.826 -11.909,0 -21.599,-9.691 -21.599,-21.602 0,-11.91 9.69,-21.6 21.599,-21.6 h 23.428 c 1.009,0 1.826,-0.817 1.826,-1.827 0,-11.909 9.69,-21.599 21.6,-21.599 C -0.816,23.426 0,22.609 0,21.6 Z M 21.6,-3.652 H -1.826 c -1.009,0 -1.826,0.817 -1.826,1.826 V 19.84 c -12.473,0.893 -22.465,10.887 -23.36,23.36 H -48.68 c -13.923,0 -25.252,11.328 -25.252,25.252 0,13.322 10.368,24.268 23.458,25.192 0.932,26.027 22.396,46.914 48.648,46.914 8.918,0 17.604,-2.431 25.202,-7.04 6.349,4.609 13.806,7.04 21.65,7.04 15.173,0 28.822,-9.361 34.364,-23.426 h 0.776 c 20.384,0 36.966,-16.582 36.966,-36.966 C 117.132,59.782 100.55,43.2 80.166,43.2 H 46.155 L 23.233,-2.643 C 22.923,-3.262 22.292,-3.652 21.6,-3.652"
             style="fill:#1c8ebb;fill-opacity:1;fill-rule:nonzero;stroke:none"
             id="path1133" /></g><g
           id="g1135"
           transform="translate(198.2866,174.8848)"><path
             d="m 0,0 c -12.413,0 -22.513,-10.101 -22.513,-22.514 0,-12.412 10.1,-22.512 22.513,-22.512 H 22.513 V 0 Z M 23.426,-46.853 H 0 c -13.42,0 -24.339,10.919 -24.339,24.339 0,13.421 10.919,24.34 24.339,24.34 h 23.426 c 0.505,0 0.913,-0.409 0.913,-0.913 v -46.852 c 0,-0.504 -0.408,-0.914 -0.913,-0.914"
             style="fill:#1c8ebb;fill-opacity:1;fill-rule:nonzero;stroke:none"
             id="path1137" /></g><g
           id="g1139"
           transform="translate(152.3457,153.2842)"><path
             d="M 0,0 H 91.88 V 45.941 C 91.88,71.271 71.271,91.88 45.941,91.88 20.608,91.88 0,71.271 0,45.941 Z M 92.792,-1.825 H -0.913 c -0.504,0 -0.913,0.408 -0.913,0.912 v 46.854 c 0,26.338 21.429,47.765 47.767,47.765 26.338,0 47.765,-21.427 47.765,-47.765 V -0.913 c 0,-0.504 -0.409,-0.912 -0.914,-0.912"
             style="fill:#1c8ebb;fill-opacity:1;fill-rule:nonzero;stroke:none"
             id="path1141" /></g><g
           id="g1143"
           transform="translate(199.1997,106.4326)"><path
             d="M 0,0 H 21.949 L 44.462,45.026 H 0 Z M 22.513,-1.826 H -0.913 c -0.505,0 -0.913,0.408 -0.913,0.913 v 46.851 c 0,0.505 0.408,0.914 0.913,0.914 h 46.851 c 0.316,0 0.61,-0.164 0.778,-0.433 0.166,-0.27 0.18,-0.605 0.039,-0.889 L 23.33,-1.321 C 23.174,-1.63 22.859,-1.826 22.513,-1.826"
             style="fill:#1c8ebb;fill-opacity:1;fill-rule:nonzero;stroke:none"
             id="path1145" /></g><g
           id="g1147"
           transform="translate(151.4326,198.3125)"><path
             d="m 0,0 c -12.413,0 -22.513,-10.101 -22.513,-22.515 0,-12.413 10.1,-22.513 22.513,-22.513 H 22.515 V 0 Z M 23.428,-46.854 H 0 c -13.42,0 -24.339,10.918 -24.339,24.339 0,13.422 10.919,24.341 24.339,24.341 h 23.428 c 0.505,0 0.913,-0.409 0.913,-0.913 v -46.854 c 0,-0.504 -0.408,-0.913 -0.913,-0.913"
             style="fill:#1c8ebb;fill-opacity:1;fill-rule:nonzero;stroke:none"
             id="path1149" /></g><g
           id="g1151"
           transform="translate(246.0513,153.2842)"><path
             d="M 0,0 H 34.227 C 53.1,0 68.454,15.354 68.454,34.228 68.454,53.101 53.1,68.454 34.227,68.454 H 0 Z m 34.227,-1.825 h -35.14 c -0.504,0 -0.913,0.408 -0.913,0.912 v 70.28 c 0,0.505 0.409,0.913 0.913,0.913 h 35.14 c 19.879,0 36.053,-16.174 36.053,-36.052 0,-19.88 -16.174,-36.053 -36.053,-36.053"
             style="fill:#1c8ebb;fill-opacity:1;fill-rule:nonzero;stroke:none"
             id="path1153" /></g><g
           id="g1155"
           transform="translate(210.9116,176.7109)"><path
             d="M 0,0 H 68.454 V 34.227 C 68.454,53.1 53.1,68.453 34.227,68.453 15.354,68.453 0,53.1 0,34.227 Z m 69.367,-1.826 h -70.28 c -0.504,0 -0.913,0.408 -0.913,0.913 v 35.14 c 0,19.878 16.174,36.052 36.053,36.052 19.879,0 36.053,-16.174 36.053,-36.052 v -35.14 c 0,-0.505 -0.409,-0.913 -0.913,-0.913"
             style="fill:#1c8ebb;fill-opacity:1;fill-rule:nonzero;stroke:none"
             id="path1157" /></g><g
           id="g1159"
           transform="translate(186.4814,79.0996)"><path
             d="m 0,0 c -3.572,0 -6.479,-2.906 -6.479,-6.479 v -46.365 c 0,-3.571 2.907,-6.477 6.479,-6.477 h 46.367 c 3.572,0 6.477,2.906 6.477,6.477 V -6.479 C 52.844,-2.906 49.939,0 46.367,0 Z M 46.367,-70.277 H 0 c -9.613,0 -17.434,7.82 -17.434,17.433 v 46.365 c 0,9.614 7.821,17.435 17.434,17.435 h 46.367 c 9.612,0 17.433,-7.821 17.433,-17.435 v -46.365 c 0,-9.613 -7.821,-17.433 -17.433,-17.433"
             style="fill:#1c8ebb;fill-opacity:1;fill-rule:nonzero;stroke:none"
             id="path1161" /></g><g
           id="g1163"
           transform="translate(10.3564,8.9287)"><path
             d="m 0,0 c -3.026,0 -5.496,2.452 -5.496,5.479 v 70.277 c 0,3.026 2.452,5.478 5.478,5.478 3.026,0 5.496,-2.452 5.496,-5.478 V 5.479 C 5.478,2.452 3.026,0 0,0"
             style="fill:#1c8ebb;fill-opacity:1;fill-rule:nonzero;stroke:none"
             id="path1165" /></g><g
           id="g1167"
           transform="translate(339.3291,57.7617)"><path
             d="m 0,0 c -3.026,0 -5.496,2.452 -5.496,5.479 v 70.279 c 0,3.026 2.452,5.477 5.478,5.477 3.026,0 5.496,-2.451 5.496,-5.477 V 5.479 C 5.478,2.452 3.026,0 0,0"
             style="fill:#1c8ebb;fill-opacity:1;fill-rule:nonzero;stroke:none"
             id="path1169" /></g><g
           id="g1171"
           transform="translate(397.9551,57.7617)"><path
             d="m 0,0 c -3.026,0 -5.496,2.452 -5.496,5.479 v 70.279 c 0,3.026 2.452,5.477 5.478,5.477 3.027,0 5.497,-2.451 5.497,-5.477 V 5.479 C 5.479,2.452 3.026,0 0,0"
             style="fill:#1c8ebb;fill-opacity:1;fill-rule:nonzero;stroke:none"
             id="path1173" /></g><g
           id="g1175"
           transform="translate(433.0859,92.8926)"><path
             d="m 0,0 h -70.279 c -3.027,0 -5.479,2.452 -5.479,5.479 0,3.025 2.452,5.495 5.479,5.495 H 0 c 3.026,0 5.479,-2.452 5.479,-5.478 C 5.479,2.47 3.026,0 0,0"
             style="fill:#1c8ebb;fill-opacity:1;fill-rule:nonzero;stroke:none"
             id="path1177" /></g><g
           id="g1179"
           transform="translate(15.8252,66.7363)"><path
             d="m 0,0 h 29.662 c 16.356,0 29.662,13.307 29.662,29.662 0,16.356 -13.306,29.662 -29.662,29.662 H 5.937 C 2.663,59.324 0,56.662 0,53.388 Z m 29.662,-10.956 h -35.14 c -3.026,0 -5.478,2.452 -5.478,5.478 v 58.866 c 0,9.313 7.579,16.892 16.893,16.892 h 23.725 c 22.397,0 40.618,-18.22 40.618,-40.618 0,-22.396 -18.221,-40.618 -40.618,-40.618"
             style="fill:#1c8ebb;fill-opacity:1;fill-rule:nonzero;stroke:none"
             id="path1181" /></g><g
           id="g1183"
           transform="translate(304.1895,81.1875)"><path
             d="m 0,0 c -16.356,0 -29.662,-13.306 -29.662,-29.661 0,-16.355 13.306,-29.66 29.662,-29.66 h 23.959 c 3.144,0 5.702,2.558 5.702,5.702 V 0 Z M 23.959,-70.277 H 0 c -22.397,0 -40.618,18.22 -40.618,40.616 0,22.396 18.221,40.617 40.618,40.617 h 35.14 c 3.026,0 5.477,-2.451 5.477,-5.477 v -59.098 c 0,-9.185 -7.473,-16.658 -16.658,-16.658"
             style="fill:#1c8ebb;fill-opacity:1;fill-rule:nonzero;stroke:none"
             id="path1185" /></g><g
           id="g1187"
           transform="translate(104.3418,8.8223)"><path
             d="m 0,0 c -3.026,0 -5.478,2.451 -5.478,5.478 v 58.739 c 0,9.383 7.634,17.016 17.017,17.016 h 35.313 c 3.026,0 5.478,-2.452 5.478,-5.477 0,-3.027 -2.452,-5.479 -5.478,-5.479 H 11.539 c -3.342,0 -6.061,-2.719 -6.061,-6.06 V 5.478 C 5.478,2.451 3.026,0 0,0"
             style="fill:#1c8ebb;fill-opacity:1;fill-rule:nonzero;stroke:none"
             id="path1189" /></g></g></g></g></svg>
