<?xml version="1.0" encoding="utf-8"?>
<!-- Generator: Adobe Illustrator 23.0.1, SVG Export Plug-In . SVG Version: 6.00 Build 0)  -->
<svg version="1.1" id="Camada_1" xmlns="http://www.w3.org/2000/svg" xmlns:xlink="http://www.w3.org/1999/xlink" x="0px" y="0px"
	 viewBox="0 0 80.7 44" style="enable-background:new 0 0 80.7 44;" xml:space="preserve">
<style type="text/css">
	.st0{fill:#33434C;}
	.st1{font-family:'Lato-Black';}
	.st2{font-size:27.7694px;}
	.st3{fill:#FFFFFF;}
	.st4{font-family:'Lato-Regular';}
	.st5{font-size:2.7109px;}
	.st6{font-size:3.2531px;}
	.st7{fill:#678342;}
	.st8{fill:#A42B43;}
	.st9{fill:#0071A6;}
	.st10{fill:#007C3D;}
	.st11{fill:#C94D2C;}
	.st12{fill:#164E86;}
	.st13{fill:#E4A712;}
</style>
<g>
	<text transform="matrix(1 0 0 1 41.8918 31.7394)" class="st0 st1 st2">STI</text>
	<polygon class="st0" points="31.1,37.1 81,37.1 81,40.7 25.1,40.7 	"/>
	<text transform="matrix(1 0 0 1 37.2058 39.924)" class="st3 st4 st5">TECNOLOGIA DA INFORMAÇÃO</text>
	<text transform="matrix(1 0 0 1 40.8074 36.2463)" class="st0 st4 st6">SUPERINTENDÊNCIA DE</text>
	<g id="lines_2_">
		<path class="st0" d="M19.2,22.6c0.9-0.2,1,0.2,1,0.9c0,2.4,0,4.8,0,7.2c0,0.5,0.1,0.7,0.7,0.7c4.3,0,8.7,0,13,0
			c0.2,0,0.6-0.2,0.7,0.3c0.1,0.5,0,0.7-0.6,0.7c-4.3,0-8.5,0-12.8,0c-1.1,0-0.9-0.1-0.9,1c0,1.7,0,3.4,0,5.1c0,0.7-0.4,0.5-0.7,0.6
			c-0.5,0.1-0.3-0.3-0.3-0.5c0-1.8,0-3.6,0-5.4c0-0.5-0.1-0.7-0.7-0.7c-4.3,0-8.7,0-13,0c-0.2,0-0.6,0.2-0.7-0.3
			c-0.1-0.6,0-0.7,0.6-0.7c4.3,0,8.7,0,13,0c0.6,0,0.7-0.2,0.7-0.7C19.2,28.1,19.2,25.4,19.2,22.6z"/>
		<path class="st0" d="M34.6,30.8c-1.2-2.2-2.5-4.4-3.7-6.6c-1.2-2.2-2.5-4.4-3.6-6.6c-0.2-0.4-0.4-0.5-0.9-0.3
			c-1.1,0.6-2.3,1.1-3.4,1.7c-0.3,0.1-0.5,0.2-0.6-0.2c-0.1-0.3-0.3-0.5,0.1-0.7c1.2-0.5,2.3-1.1,3.5-1.7c0.4-0.2,0.4-0.4,0.2-0.7
			c-1.9-3.4-3.8-6.9-5.8-10.4c-0.1-0.1-0.1-0.2-0.2-0.3c0.9-0.4,0.9-0.4,1.3,0.4c1.8,3.3,3.6,6.5,5.4,9.8c0.3,0.5,0.5,0.5,1,0.3
			c2.1-1,4.2-2,6.2-3.1c0.6-0.3,0.6,0.1,0.8,0.4c0.3,0.4-0.2,0.4-0.3,0.5c-2,1-4.1,2-6.2,3c-0.5,0.2-0.6,0.4-0.3,1
			c2.2,3.9,4.3,7.8,6.5,11.7C35.1,29.6,35.3,30.2,34.6,30.8z"/>
		<path class="st0" d="M4.7,31.1c-0.7-0.5-0.6-1-0.3-1.6c2.2-3.9,4.4-7.9,6.6-11.9c0.3-0.5,0.2-0.6-0.3-0.9C9,16,7.3,15.2,5.5,14.5
			C4.9,14.3,5,14,5.2,13.5c0.2-0.5,0.5-0.1,0.7,0c1.8,0.8,3.6,1.5,5.4,2.3c0.5,0.2,0.7,0.1,1-0.4c1.9-3.5,3.9-7,5.8-10.5
			c0.3-0.5,0.6-0.6,1-0.2c0.3,0.2,0,0.4-0.1,0.6c-1.7,3.1-3.4,6.2-5.1,9.3c-0.3,0.6-1,1.2-0.8,1.8c0.2,0.4,1.1,0.6,1.7,0.9
			c0.8,0.3,1.5,0.7,2.3,1c0.5,0.2,0.5,0.4,0.3,0.9c-0.2,0.6-0.5,0.2-0.7,0.1c-1.2-0.5-2.4-1-3.5-1.5c-0.6-0.3-0.9-0.2-1.2,0.4
			C9.6,22.3,7.3,26.5,5,30.6C4.9,30.8,4.8,31,4.7,31.1z"/>
		<path class="st0" d="M37.9,21.5c0,2.3,0,4.7,0,7c0,0.3,0.1,0.6-0.5,0.6c-0.5,0-0.6-0.2-0.6-0.6c0-4.7,0-9.3,0-14
			c0-0.6,0.3-0.6,0.7-0.6c0.6,0,0.3,0.4,0.3,0.6C37.9,16.9,37.9,19.2,37.9,21.5z"/>
		<path class="st0" d="M1.6,22.6c0-2.2,0-4.4,0-6.6c0-0.2-0.3-0.6,0.3-0.6c0.3,0,0.7-0.1,0.7,0.6c0,4.4,0,8.8,0,13.3
			c0,0.6-0.4,0.4-0.7,0.5c-0.4,0.1-0.4-0.2-0.4-0.5C1.6,27.1,1.6,24.9,1.6,22.6z"/>
		<path class="st0" d="M4.2,10.6c4.2-2.4,8.4-4.9,12.6-7.3c0.1-0.1,0.4-0.5,0.6,0c0.1,0.3,0.5,0.6-0.1,0.9c-2.6,1.5-5.2,3-7.8,4.5
			c-1.3,0.7-2.6,1.4-3.8,2.3C5,11.3,4.6,11.4,4.2,10.6z"/>
		<path class="st0" d="M4.1,34.5c0.5-0.8,0.5-0.9,1.3-0.4c3.8,2,7.7,4.1,11.5,6.1c0.5,0.3,0.6,0.7,0.3,1.1c-0.2,0.3-0.4,0-0.5-0.1
			c-3.3-1.7-6.6-3.5-9.9-5.2C5.9,35.5,5,35,4.1,34.5z"/>
		<path class="st0" d="M22.6,41.1c-0.5-0.9-0.5-0.9,0.4-1.4c3.7-2.2,7.4-4.3,11.1-6.5c0.5-0.3,0.7-0.3,1,0.2
			c0.3,0.5-0.1,0.5-0.3,0.6c-2.5,1.4-4.9,2.9-7.4,4.3C25.8,39.3,24.2,40.2,22.6,41.1z"/>
		<path class="st0" d="M35,9.7c0,0.6-0.5,0.8-0.9,0.6c-3.8-2-7.7-4-11.5-6.1c-0.4-0.2-0.5-0.3-0.3-0.8c0.2-0.5,0.5-0.3,0.7-0.1
			c3.9,2,7.7,4.1,11.6,6.1C34.7,9.5,34.9,9.6,35,9.7z"/>
	</g>
	<g id="circles_2_">
		<path class="st7" d="M2.5,15c-1.2,0-2.1-0.9-2.1-2.1c0-1.2,0.9-2.1,2.1-2.1c1.2,0,2.1,1,2.1,2.2C4.6,14.1,3.7,15,2.5,15z"/>
		<path class="st8" d="M22,19.9c0,1.2-0.9,2.1-2.1,2.1c-1.2,0-2.1-1-2.1-2.1c0-1.2,0.9-2.1,2.1-2.1C21.1,17.8,22,18.7,22,19.9z"/>
		<path class="st9" d="M39.3,31.8c0,1.2-0.9,2.1-2.1,2.1c-1.2,0-2.1-0.9-2.1-2.2c0-1.2,1-2.1,2.1-2.1C38.4,29.7,39.3,30.6,39.3,31.8
			z"/>
		<path class="st10" d="M2.2,34.5c-1.2,0-2.1-1-2.1-2.2c0-1.1,1-2.1,2.1-2.1c1.2,0,2.1,1,2.1,2.2C4.3,33.6,3.3,34.6,2.2,34.5z"/>
		<path class="st11" d="M19.9,4.4c-1.2,0-2.1-0.9-2.1-2.1c0-1.2,1-2.1,2.1-2.1c1.2,0,2.1,0.9,2.1,2.1C22,3.5,21.1,4.4,19.9,4.4z"/>
		<path class="st12" d="M35.1,11.2c0-1.2,0.9-2.1,2.1-2.1c1.2,0,2.1,0.9,2.1,2.1c0,1.2-1,2.1-2.1,2.1C36,13.4,35.1,12.4,35.1,11.2z"
			/>
		<path class="st13" d="M19.9,43.8c-1.2,0-2.1-0.9-2.1-2.1c0-1.2,0.9-2.1,2.1-2.1c1.2,0,2.1,0.9,2.1,2.1C22,43,21.1,43.8,19.9,43.8z
			"/>
	</g>
</g>
</svg>
