<?xml version="1.0" encoding="utf-8"?>
<!-- Generator: Adobe Illustrator 23.0.1, SVG Export Plug-In . SVG Version: 6.00 Build 0)  -->
<svg version="1.1" id="Camada_1" xmlns="http://www.w3.org/2000/svg" xmlns:xlink="http://www.w3.org/1999/xlink" x="0px" y="0px"
	 viewBox="0 0 317 140.2" style="enable-background:new 0 0 317 140.2;" xml:space="preserve">
<style type="text/css">
	.st0{fill:#FFFFFF;}
</style>
<rect x="180.7" y="126.8" class="st0" width="111.8" height="3.1"/>
<rect x="24.2" y="126.8" class="st0" width="111.8" height="3.1"/>
<rect x="180.7" y="101.4" class="st0" width="111.8" height="3.1"/>
<rect x="144.1" y="101.4" class="st0" width="28.4" height="3.1"/>
<rect x="144.1" y="106.5" class="st0" width="3.1" height="26"/>
<rect x="169.5" y="106.5" class="st0" width="3.1" height="26"/>
<rect x="24.2" y="101.4" class="st0" width="111.8" height="3.1"/>
<rect x="154.9" y="121.7" class="st0" width="3.1" height="3.1"/>
<rect x="151.1" y="121.7" class="st0" width="3.1" height="3.1"/>
<rect x="158.7" y="121.7" class="st0" width="3.1" height="3.1"/>
<rect x="162.5" y="121.7" class="st0" width="3.1" height="3.1"/>
<rect x="154.9" y="125.5" class="st0" width="3.1" height="3.1"/>
<rect x="151.1" y="125.5" class="st0" width="3.1" height="3.1"/>
<rect x="158.7" y="125.5" class="st0" width="3.1" height="3.1"/>
<rect x="162.5" y="125.5" class="st0" width="3.1" height="3.1"/>
<rect x="154.9" y="129.3" class="st0" width="3.1" height="3.1"/>
<rect x="151.1" y="129.3" class="st0" width="3.1" height="3.1"/>
<rect x="158.7" y="129.3" class="st0" width="3.1" height="3.1"/>
<rect x="162.5" y="129.3" class="st0" width="3.1" height="3.1"/>
<rect x="154.9" y="110.3" class="st0" width="3.1" height="3.1"/>
<rect x="151.1" y="110.3" class="st0" width="3.1" height="3.1"/>
<rect x="158.7" y="110.3" class="st0" width="3.1" height="3.1"/>
<rect x="162.5" y="110.3" class="st0" width="3.1" height="3.1"/>
<rect x="154.9" y="106.5" class="st0" width="3.1" height="3.1"/>
<rect x="151.1" y="106.5" class="st0" width="3.1" height="3.1"/>
<rect x="158.7" y="106.5" class="st0" width="3.1" height="3.1"/>
<rect x="162.5" y="106.5" class="st0" width="3.1" height="3.1"/>
<rect x="154.9" y="114.1" class="st0" width="3.1" height="3.1"/>
<rect x="151.1" y="114.1" class="st0" width="3.1" height="3.1"/>
<rect x="158.7" y="114.1" class="st0" width="3.1" height="3.1"/>
<rect x="162.5" y="114.1" class="st0" width="3.1" height="3.1"/>
<rect x="154.9" y="117.9" class="st0" width="3.1" height="3.1"/>
<rect x="151.1" y="117.9" class="st0" width="3.1" height="3.1"/>
<rect x="158.7" y="117.9" class="st0" width="3.1" height="3.1"/>
<rect x="162.5" y="117.9" class="st0" width="3.1" height="3.1"/>
<rect x="279.8" y="121.7" class="st0" width="3.1" height="3.1"/>
<rect x="276" y="121.7" class="st0" width="3.1" height="3.1"/>
<rect x="283.6" y="121.7" class="st0" width="3.1" height="3.1"/>
<rect x="279.8" y="110.3" class="st0" width="3.1" height="3.1"/>
<rect x="276" y="110.3" class="st0" width="3.1" height="3.1"/>
<rect x="283.6" y="110.3" class="st0" width="3.1" height="3.1"/>
<rect x="279.8" y="106.5" class="st0" width="3.1" height="3.1"/>
<rect x="276" y="106.5" class="st0" width="3.1" height="3.1"/>
<rect x="283.6" y="106.5" class="st0" width="3.1" height="3.1"/>
<rect x="279.8" y="114.1" class="st0" width="3.1" height="3.1"/>
<rect x="276" y="114.1" class="st0" width="3.1" height="3.1"/>
<rect x="283.6" y="114.1" class="st0" width="3.1" height="3.1"/>
<rect x="279.8" y="117.9" class="st0" width="3.1" height="3.1"/>
<rect x="276" y="117.9" class="st0" width="3.1" height="3.1"/>
<rect x="283.6" y="117.9" class="st0" width="3.1" height="3.1"/>
<rect x="257.4" y="121.7" class="st0" width="3.1" height="3.1"/>
<rect x="253.6" y="121.7" class="st0" width="3.1" height="3.1"/>
<rect x="261.2" y="121.7" class="st0" width="3.1" height="3.1"/>
<rect x="257.4" y="110.3" class="st0" width="3.1" height="3.1"/>
<rect x="253.6" y="110.3" class="st0" width="3.1" height="3.1"/>
<rect x="261.2" y="110.3" class="st0" width="3.1" height="3.1"/>
<rect x="257.4" y="106.5" class="st0" width="3.1" height="3.1"/>
<rect x="253.6" y="106.5" class="st0" width="3.1" height="3.1"/>
<rect x="261.2" y="106.5" class="st0" width="3.1" height="3.1"/>
<rect x="257.4" y="114.1" class="st0" width="3.1" height="3.1"/>
<rect x="253.6" y="114.1" class="st0" width="3.1" height="3.1"/>
<rect x="261.2" y="114.1" class="st0" width="3.1" height="3.1"/>
<rect x="257.4" y="117.9" class="st0" width="3.1" height="3.1"/>
<rect x="253.6" y="117.9" class="st0" width="3.1" height="3.1"/>
<rect x="261.2" y="117.9" class="st0" width="3.1" height="3.1"/>
<rect x="33.8" y="84.4" class="st0" width="3.1" height="3.1"/>
<rect x="30" y="84.4" class="st0" width="3.1" height="3.1"/>
<rect x="37.6" y="84.4" class="st0" width="3.1" height="3.1"/>
<rect x="33.8" y="88.2" class="st0" width="3.1" height="3.1"/>
<rect x="30" y="88.2" class="st0" width="3.1" height="3.1"/>
<rect x="37.6" y="88.2" class="st0" width="3.1" height="3.1"/>
<rect x="33.8" y="92" class="st0" width="3.1" height="3.1"/>
<rect x="30" y="92" class="st0" width="3.1" height="3.1"/>
<rect x="37.6" y="92" class="st0" width="3.1" height="3.1"/>
<rect x="33.8" y="76.7" class="st0" width="3.1" height="3.1"/>
<rect x="30" y="76.7" class="st0" width="3.1" height="3.1"/>
<rect x="37.6" y="76.7" class="st0" width="3.1" height="3.1"/>
<rect x="33.8" y="80.5" class="st0" width="3.1" height="3.1"/>
<rect x="30" y="80.5" class="st0" width="3.1" height="3.1"/>
<rect x="37.6" y="80.5" class="st0" width="3.1" height="3.1"/>
<g>
	<path class="st0" d="M33.1,73.1c-1.1,0.3-2.2,0.8-3.1,1.4V76h3.1V73.1z"/>
	<path class="st0" d="M40.7,74.5c-0.9-0.7-2-1.1-3.1-1.4V76h3.1V74.5z"/>
	<path class="st0" d="M36.9,72.9c-0.5-0.1-1-0.1-1.5-0.1s-1,0.1-1.5,0.1V76H37L36.9,72.9L36.9,72.9z"/>
</g>
<rect x="33.8" y="121.7" class="st0" width="3.1" height="3.1"/>
<rect x="37.6" y="121.7" class="st0" width="3.1" height="3.1"/>
<rect x="30" y="121.7" class="st0" width="3.1" height="3.1"/>
<rect x="33.8" y="110.3" class="st0" width="3.1" height="3.1"/>
<rect x="37.6" y="110.3" class="st0" width="3.1" height="3.1"/>
<rect x="30" y="110.3" class="st0" width="3.1" height="3.1"/>
<rect x="33.8" y="106.5" class="st0" width="3.1" height="3.1"/>
<rect x="37.6" y="106.5" class="st0" width="3.1" height="3.1"/>
<rect x="30" y="106.5" class="st0" width="3.1" height="3.1"/>
<rect x="33.8" y="114.1" class="st0" width="3.1" height="3.1"/>
<rect x="37.6" y="114.1" class="st0" width="3.1" height="3.1"/>
<rect x="30" y="114.1" class="st0" width="3.1" height="3.1"/>
<rect x="33.8" y="117.9" class="st0" width="3.1" height="3.1"/>
<rect x="37.6" y="117.9" class="st0" width="3.1" height="3.1"/>
<rect x="30" y="117.9" class="st0" width="3.1" height="3.1"/>
<rect x="56.2" y="121.7" class="st0" width="3.1" height="3.1"/>
<rect x="60" y="121.7" class="st0" width="3.1" height="3.1"/>
<rect x="52.4" y="121.7" class="st0" width="3.1" height="3.1"/>
<rect x="56.2" y="110.3" class="st0" width="3.1" height="3.1"/>
<rect x="60" y="110.3" class="st0" width="3.1" height="3.1"/>
<rect x="52.4" y="110.3" class="st0" width="3.1" height="3.1"/>
<rect x="56.2" y="106.5" class="st0" width="3.1" height="3.1"/>
<rect x="60" y="106.5" class="st0" width="3.1" height="3.1"/>
<rect x="52.4" y="106.5" class="st0" width="3.1" height="3.1"/>
<rect x="56.2" y="114.1" class="st0" width="3.1" height="3.1"/>
<rect x="60" y="114.1" class="st0" width="3.1" height="3.1"/>
<rect x="52.4" y="114.1" class="st0" width="3.1" height="3.1"/>
<rect x="56.2" y="117.9" class="st0" width="3.1" height="3.1"/>
<rect x="60" y="117.9" class="st0" width="3.1" height="3.1"/>
<rect x="52.4" y="117.9" class="st0" width="3.1" height="3.1"/>
<rect x="119.4" y="106.5" class="st0" width="16.5" height="18.3"/>
<rect x="74.7" y="106.5" class="st0" width="16.5" height="18.3"/>
<rect x="97.1" y="106.5" class="st0" width="16.5" height="18.3"/>
<rect x="225.4" y="106.5" class="st0" width="16.5" height="18.3"/>
<rect x="180.7" y="106.5" class="st0" width="16.5" height="18.3"/>
<rect x="203.1" y="106.5" class="st0" width="16.5" height="18.3"/>
<polygon class="st0" points="180.7,135.1 180.7,135.1 136,135.1 136,135.1 136,132 24.2,132 24.2,138.1 24.2,138.2 292.5,138.2 
	292.5,138.1 292.5,132 180.7,132 "/>
<g>
	<path class="st0" d="M158.3,72.9h-12.6l0,0l0,0c0,0.1,0,0.3,0,0.4c0,4.7,0.6,8.9,2,12.7c0.3,0.9,0.6,1.7,1,2.6
		c2,4.7,5.2,8.4,9.6,11l0,0l0,0c4.4-2.6,7.6-6.3,9.6-11c0.4-0.8,0.7-1.7,1-2.6c1.4-3.8,2-8,2-12.7c0-0.1,0-0.3,0-0.4l0,0l0,0H158.3z
		"/>
</g>
<polygon class="st0" points="158.3,58.5 139.9,69.9 176.7,69.9 "/>
<polygon class="st0" points="135.9,66.5 158.3,52.7 158.3,52.7 180.7,66.5 180.7,66.5 314.9,66.5 267.7,37.3 247.9,49.6 68.8,49.6 
	49,37.3 1.8,66.5 "/>
<rect x="56.2" y="84.4" class="st0" width="3.1" height="3.1"/>
<rect x="52.4" y="84.4" class="st0" width="3.1" height="3.1"/>
<rect x="60" y="84.4" class="st0" width="3.1" height="3.1"/>
<rect x="56.2" y="88.2" class="st0" width="3.1" height="3.1"/>
<rect x="52.4" y="88.2" class="st0" width="3.1" height="3.1"/>
<rect x="60" y="88.2" class="st0" width="3.1" height="3.1"/>
<rect x="56.2" y="92" class="st0" width="3.1" height="3.1"/>
<rect x="52.4" y="92" class="st0" width="3.1" height="3.1"/>
<rect x="60" y="92" class="st0" width="3.1" height="3.1"/>
<rect x="56.2" y="76.7" class="st0" width="3.1" height="3.1"/>
<rect x="52.4" y="76.7" class="st0" width="3.1" height="3.1"/>
<rect x="60" y="76.7" class="st0" width="3.1" height="3.1"/>
<rect x="56.2" y="80.5" class="st0" width="3.1" height="3.1"/>
<rect x="52.4" y="80.5" class="st0" width="3.1" height="3.1"/>
<rect x="60" y="80.5" class="st0" width="3.1" height="3.1"/>
<g>
	<path class="st0" d="M55.4,73.1c-1.1,0.3-2.2,0.8-3.1,1.4V76h3.1V73.1z"/>
	<path class="st0" d="M63,74.5c-0.9-0.7-2-1.1-3.1-1.4V76H63V74.5z"/>
	<path class="st0" d="M59.2,72.9c-0.5-0.1-1-0.1-1.5-0.1s-1,0.1-1.5,0.1V76h3.1L59.2,72.9L59.2,72.9z"/>
</g>
<rect x="78.5" y="84.4" class="st0" width="3.1" height="3.1"/>
<rect x="74.7" y="84.4" class="st0" width="3.1" height="3.1"/>
<rect x="82.3" y="84.4" class="st0" width="3.1" height="3.1"/>
<rect x="78.5" y="88.2" class="st0" width="3.1" height="3.1"/>
<rect x="74.7" y="88.2" class="st0" width="3.1" height="3.1"/>
<rect x="82.3" y="88.2" class="st0" width="3.1" height="3.1"/>
<rect x="78.5" y="92" class="st0" width="3.1" height="3.1"/>
<rect x="74.7" y="92" class="st0" width="3.1" height="3.1"/>
<rect x="82.3" y="92" class="st0" width="3.1" height="3.1"/>
<rect x="78.5" y="76.7" class="st0" width="3.1" height="3.1"/>
<rect x="74.7" y="76.7" class="st0" width="3.1" height="3.1"/>
<rect x="82.3" y="76.7" class="st0" width="3.1" height="3.1"/>
<rect x="78.5" y="80.5" class="st0" width="3.1" height="3.1"/>
<rect x="74.7" y="80.5" class="st0" width="3.1" height="3.1"/>
<rect x="82.3" y="80.5" class="st0" width="3.1" height="3.1"/>
<g>
	<path class="st0" d="M77.8,73.1c-1.1,0.3-2.2,0.8-3.1,1.4V76h3.1V73.1z"/>
	<path class="st0" d="M85.4,74.5c-0.9-0.7-2-1.1-3.1-1.4V76h3.1V74.5z"/>
	<path class="st0" d="M81.6,72.9c-0.5-0.1-1-0.1-1.5-0.1s-1,0.1-1.5,0.1V76h3.1L81.6,72.9L81.6,72.9z"/>
</g>
<rect x="100.9" y="84.4" class="st0" width="3.1" height="3.1"/>
<rect x="97.1" y="84.4" class="st0" width="3.1" height="3.1"/>
<rect x="104.7" y="84.4" class="st0" width="3.1" height="3.1"/>
<rect x="100.9" y="88.2" class="st0" width="3.1" height="3.1"/>
<rect x="97.1" y="88.2" class="st0" width="3.1" height="3.1"/>
<rect x="104.7" y="88.2" class="st0" width="3.1" height="3.1"/>
<rect x="100.9" y="92" class="st0" width="3.1" height="3.1"/>
<rect x="97.1" y="92" class="st0" width="3.1" height="3.1"/>
<rect x="104.7" y="92" class="st0" width="3.1" height="3.1"/>
<rect x="100.9" y="76.7" class="st0" width="3.1" height="3.1"/>
<rect x="97.1" y="76.7" class="st0" width="3.1" height="3.1"/>
<rect x="104.7" y="76.7" class="st0" width="3.1" height="3.1"/>
<rect x="100.9" y="80.5" class="st0" width="3.1" height="3.1"/>
<rect x="97.1" y="80.5" class="st0" width="3.1" height="3.1"/>
<rect x="104.7" y="80.5" class="st0" width="3.1" height="3.1"/>
<g>
	<path class="st0" d="M100.2,73.1c-1.1,0.3-2.2,0.8-3.1,1.4V76h3.1V73.1z"/>
	<path class="st0" d="M107.8,74.5c-0.9-0.7-2-1.1-3.1-1.4V76h3.1V74.5z"/>
	<path class="st0" d="M104,72.9c-0.5-0.1-1-0.1-1.5-0.1s-1,0.1-1.5,0.1V76h3.1L104,72.9L104,72.9z"/>
</g>
<rect x="123.2" y="84.4" class="st0" width="3.1" height="3.1"/>
<rect x="119.4" y="84.4" class="st0" width="3.1" height="3.1"/>
<rect x="127.1" y="84.4" class="st0" width="3.1" height="3.1"/>
<rect x="123.2" y="88.2" class="st0" width="3.1" height="3.1"/>
<rect x="119.4" y="88.2" class="st0" width="3.1" height="3.1"/>
<rect x="127.1" y="88.2" class="st0" width="3.1" height="3.1"/>
<rect x="123.2" y="92" class="st0" width="3.1" height="3.1"/>
<rect x="119.4" y="92" class="st0" width="3.1" height="3.1"/>
<rect x="127.1" y="92" class="st0" width="3.1" height="3.1"/>
<rect x="123.2" y="76.7" class="st0" width="3.1" height="3.1"/>
<rect x="119.4" y="76.7" class="st0" width="3.1" height="3.1"/>
<rect x="127.1" y="76.7" class="st0" width="3.1" height="3.1"/>
<rect x="123.2" y="80.5" class="st0" width="3.1" height="3.1"/>
<rect x="119.4" y="80.5" class="st0" width="3.1" height="3.1"/>
<rect x="127.1" y="80.5" class="st0" width="3.1" height="3.1"/>
<g>
	<path class="st0" d="M122.5,73.1c-1.1,0.3-2.2,0.8-3.1,1.4V76h3.1V73.1z"/>
	<path class="st0" d="M130.1,74.5c-0.9-0.7-2-1.1-3.1-1.4V76h3.1V74.5z"/>
	<path class="st0" d="M126.3,72.9c-0.5-0.1-1-0.1-1.5-0.1s-1,0.1-1.5,0.1V76h3.1L126.3,72.9L126.3,72.9z"/>
</g>
<rect x="190.3" y="84.4" class="st0" width="3.1" height="3.1"/>
<rect x="186.5" y="84.4" class="st0" width="3.1" height="3.1"/>
<rect x="194.1" y="84.4" class="st0" width="3.1" height="3.1"/>
<rect x="190.3" y="88.2" class="st0" width="3.1" height="3.1"/>
<rect x="186.5" y="88.2" class="st0" width="3.1" height="3.1"/>
<rect x="194.1" y="88.2" class="st0" width="3.1" height="3.1"/>
<rect x="190.3" y="92" class="st0" width="3.1" height="3.1"/>
<rect x="186.5" y="92" class="st0" width="3.1" height="3.1"/>
<rect x="194.1" y="92" class="st0" width="3.1" height="3.1"/>
<rect x="190.3" y="76.7" class="st0" width="3.1" height="3.1"/>
<rect x="186.5" y="76.7" class="st0" width="3.1" height="3.1"/>
<rect x="194.1" y="76.7" class="st0" width="3.1" height="3.1"/>
<rect x="190.3" y="80.5" class="st0" width="3.1" height="3.1"/>
<rect x="186.5" y="80.5" class="st0" width="3.1" height="3.1"/>
<rect x="194.1" y="80.5" class="st0" width="3.1" height="3.1"/>
<g>
	<path class="st0" d="M189.6,73.1c-1.1,0.3-2.2,0.8-3.1,1.4V76h3.1V73.1z"/>
	<path class="st0" d="M197.2,74.5c-0.9-0.7-2-1.1-3.1-1.4V76h3.1V74.5z"/>
	<path class="st0" d="M193.4,72.9c-0.5-0.1-1-0.1-1.5-0.1s-1,0.1-1.5,0.1V76h3.1v-3.1H193.4z"/>
</g>
<rect x="212.7" y="84.4" class="st0" width="3.1" height="3.1"/>
<rect x="208.9" y="84.4" class="st0" width="3.1" height="3.1"/>
<rect x="216.5" y="84.4" class="st0" width="3.1" height="3.1"/>
<rect x="212.7" y="88.2" class="st0" width="3.1" height="3.1"/>
<rect x="208.9" y="88.2" class="st0" width="3.1" height="3.1"/>
<rect x="216.5" y="88.2" class="st0" width="3.1" height="3.1"/>
<rect x="212.7" y="92" class="st0" width="3.1" height="3.1"/>
<rect x="208.9" y="92" class="st0" width="3.1" height="3.1"/>
<rect x="216.5" y="92" class="st0" width="3.1" height="3.1"/>
<rect x="212.7" y="76.7" class="st0" width="3.1" height="3.1"/>
<rect x="208.9" y="76.7" class="st0" width="3.1" height="3.1"/>
<rect x="216.5" y="76.7" class="st0" width="3.1" height="3.1"/>
<rect x="212.7" y="80.5" class="st0" width="3.1" height="3.1"/>
<rect x="208.9" y="80.5" class="st0" width="3.1" height="3.1"/>
<rect x="216.5" y="80.5" class="st0" width="3.1" height="3.1"/>
<g>
	<path class="st0" d="M212,73.1c-1.1,0.3-2.2,0.8-3.1,1.4V76h3.1V73.1z"/>
	<path class="st0" d="M219.6,74.5c-0.9-0.7-2-1.1-3.1-1.4V76h3.1V74.5z"/>
	<path class="st0" d="M215.8,72.9c-0.5-0.1-1-0.1-1.5-0.1s-1,0.1-1.5,0.1V76h3.1v-3.1H215.8z"/>
</g>
<rect x="235.1" y="84.4" class="st0" width="3.1" height="3.1"/>
<rect x="231.3" y="84.4" class="st0" width="3.1" height="3.1"/>
<rect x="238.9" y="84.4" class="st0" width="3.1" height="3.1"/>
<rect x="235.1" y="88.2" class="st0" width="3.1" height="3.1"/>
<rect x="231.3" y="88.2" class="st0" width="3.1" height="3.1"/>
<rect x="238.9" y="88.2" class="st0" width="3.1" height="3.1"/>
<rect x="235.1" y="92" class="st0" width="3.1" height="3.1"/>
<rect x="231.3" y="92" class="st0" width="3.1" height="3.1"/>
<rect x="238.9" y="92" class="st0" width="3.1" height="3.1"/>
<rect x="235.1" y="76.7" class="st0" width="3.1" height="3.1"/>
<rect x="231.3" y="76.7" class="st0" width="3.1" height="3.1"/>
<rect x="238.9" y="76.7" class="st0" width="3.1" height="3.1"/>
<rect x="235.1" y="80.5" class="st0" width="3.1" height="3.1"/>
<rect x="231.3" y="80.5" class="st0" width="3.1" height="3.1"/>
<rect x="238.9" y="80.5" class="st0" width="3.1" height="3.1"/>
<g>
	<path class="st0" d="M234.3,73.1c-1.1,0.3-2.2,0.8-3.1,1.4V76h3.1V73.1z"/>
	<path class="st0" d="M241.9,74.5c-0.9-0.7-2-1.1-3.1-1.4V76h3.1V74.5z"/>
	<path class="st0" d="M238.1,72.9c-0.5-0.1-1-0.1-1.5-0.1s-1,0.1-1.5,0.1V76h3.1v-3.1H238.1z"/>
</g>
<rect x="257.4" y="84.4" class="st0" width="3.1" height="3.1"/>
<rect x="253.6" y="84.4" class="st0" width="3.1" height="3.1"/>
<rect x="261.2" y="84.4" class="st0" width="3.1" height="3.1"/>
<rect x="257.4" y="88.2" class="st0" width="3.1" height="3.1"/>
<rect x="253.6" y="88.2" class="st0" width="3.1" height="3.1"/>
<rect x="261.2" y="88.2" class="st0" width="3.1" height="3.1"/>
<rect x="257.4" y="92" class="st0" width="3.1" height="3.1"/>
<rect x="253.6" y="92" class="st0" width="3.1" height="3.1"/>
<rect x="261.2" y="92" class="st0" width="3.1" height="3.1"/>
<rect x="257.4" y="76.7" class="st0" width="3.1" height="3.1"/>
<rect x="253.6" y="76.7" class="st0" width="3.1" height="3.1"/>
<rect x="261.2" y="76.7" class="st0" width="3.1" height="3.1"/>
<rect x="257.4" y="80.5" class="st0" width="3.1" height="3.1"/>
<rect x="253.6" y="80.5" class="st0" width="3.1" height="3.1"/>
<rect x="261.2" y="80.5" class="st0" width="3.1" height="3.1"/>
<g>
	<path class="st0" d="M256.7,73.1c-1.1,0.3-2.2,0.8-3.1,1.4V76h3.1V73.1z"/>
	<path class="st0" d="M264.3,74.5c-0.9-0.7-2-1.1-3.1-1.4V76h3.1V74.5z"/>
	<path class="st0" d="M260.5,72.9c-0.5-0.1-1-0.1-1.5-0.1s-1,0.1-1.5,0.1V76h3.1v-3.1H260.5z"/>
</g>
<rect x="279.8" y="84.4" class="st0" width="3.1" height="3.1"/>
<rect x="276" y="84.4" class="st0" width="3.1" height="3.1"/>
<rect x="283.6" y="84.4" class="st0" width="3.1" height="3.1"/>
<rect x="279.8" y="88.2" class="st0" width="3.1" height="3.1"/>
<rect x="276" y="88.2" class="st0" width="3.1" height="3.1"/>
<rect x="283.6" y="88.2" class="st0" width="3.1" height="3.1"/>
<rect x="279.8" y="92" class="st0" width="3.1" height="3.1"/>
<rect x="276" y="92" class="st0" width="3.1" height="3.1"/>
<rect x="283.6" y="92" class="st0" width="3.1" height="3.1"/>
<rect x="279.8" y="76.7" class="st0" width="3.1" height="3.1"/>
<rect x="276" y="76.7" class="st0" width="3.1" height="3.1"/>
<rect x="283.6" y="76.7" class="st0" width="3.1" height="3.1"/>
<rect x="279.8" y="80.5" class="st0" width="3.1" height="3.1"/>
<rect x="276" y="80.5" class="st0" width="3.1" height="3.1"/>
<rect x="283.6" y="80.5" class="st0" width="3.1" height="3.1"/>
<path class="st0" d="M282.9,72.9c-0.5-0.1-1-0.1-1.5-0.1s-1,0.1-1.5,0.1V76h3.1v-3.1H282.9z"/>
<path class="st0" d="M286.7,74.5c-0.9-0.7-2-1.1-3.1-1.4V76h3.1V74.5z"/>
<path class="st0" d="M279.1,73.1c-1.1,0.3-2.2,0.8-3.1,1.4V76h3.1V73.1z"/>
<path class="st0" d="M96.5,2.2v0.5h-0.8c-1.4,0-2.6,1-2.7,2.4V25c0,7.9-5.4,13.1-13.5,13.1c-8.4,0-13.9-5.2-13.9-13.1V5.2
	c0-1.4-1.2-2.5-2.7-2.5h-0.8V2.2h10.2v0.5h-0.8c-1.4,0-2.6,1-2.7,2.4v19.2c0,7.3,4.3,12.2,10.7,12.2c6.7,0,11.2-4.6,11.2-11.6V5.1
	c-0.1-1.4-1.2-2.4-2.7-2.4h-0.8V2.2H96.5z"/>
<path class="st0" d="M135.7,2.2v0.5h-0.9c-1.7,0-3,1.3-3.1,3v26c0,3.2,0.5,6.4,0.5,6.4h-0.5L104.3,8.8v25c0.1,1.7,1.4,3,3.1,3h0.9
	v0.5H98v-0.5h0.9c1.7,0,3.1-1.4,3.1-3V7.7c0-3.4-0.5-6.3-0.5-6.3h0.5l27.4,29.2V5.7c0-1.7-1.4-3-3.1-3h-0.9V2.2
	C125.4,2.2,135.7,2.2,135.7,2.2z"/>
<path class="st0" d="M151,37.4h-11v-0.5h0.6c1.8,0,3.2-1.4,3.2-3.2V5.8c0-1.7-1.5-3.1-3.2-3.1H140V2.2h11v0.5h-0.6
	c-1.8,0-3.2,1.4-3.2,3.1v27.9c0,1.8,1.5,3.2,3.2,3.2h0.6V37.4z"/>
<path class="st0" d="M177.2,2.8v0.9V7h-0.5V6.2c0-1.4-1.1-2.5-2.4-2.5h-10.6v15.5h8.5c1.3,0,2.4-1.1,2.4-2.5V16h0.5v8h-0.5v-0.7
	c0-1.3-1.1-2.4-2.4-2.5h-8.5v12.9c0,1.8,1.5,3.2,3.2,3.2h0.6v0.5h-11v-0.5h0.6c1.8,0,3.2-1.4,3.2-3.2V5.6c0-1.6-1.5-2.9-3.2-2.9
	h-0.6V2.2h14.7c2.2,0,5.1-0.5,6-0.9V2.8z"/>
<path class="st0" d="M204,37.4h-20.8v-0.5h0.6c1.8,0,3.2-1.4,3.2-3.2V5.6c-0.2-1.6-1.5-2.9-3.2-2.9h-0.6V2.2h14.7
	c2.2,0,5.1-0.5,6-0.9v1.5v0.8v4h-0.5V6.7c0-1.6-1.2-2.9-2.8-3h-10.2v15.5h8.5c1.3,0,2.4-1.1,2.4-2.5V16h0.5v8h-0.5v-0.7
	c0-1.3-1.1-2.4-2.4-2.5h-8.5v15.1h7.2c5.3,0,7.4-2.8,8.9-6.6h0.5L204,37.4z"/>
<path class="st0" d="M227.1,22.6c2,1.9,2.5,4.1,2.5,6.1c0,5.6-3.6,9.4-9.4,9.4c-2.5,0-6.5-0.7-8.5-2.7c-0.4-1.6-0.2-4.8,0.6-7h0.4
	c-0.5,5.2,2.8,8.5,7.2,8.2c3.7-0.2,6.7-2.7,6.7-6.7c0-2-0.7-3.5-2-4.7l-9.6-8.9c-2-1.9-2.7-4.3-2.7-6.2c0-4.2,3.1-8.5,8.8-8.5
	c1.3,0,3,0.2,4.3,0.5h2v0.6v5.6h-0.5c0-3.2-2.5-5.2-5.7-5.2c-3.7,0-6.2,2.7-6.2,5.8c0,1.3,0.4,3.2,2,4.6L227.1,22.6z"/>
<path class="st0" d="M247.1,2.2c6.4,0,10.4,3.7,10.4,9.7c0,7.7-8.3,11.7-14.6,8.4v-0.5c0,0,8.3,1.8,10.5-5.4c0.2-0.7,0.4-1.9,0.3-3
	c-0.1-4.6-2.5-7.7-6.8-7.7h-5.8v30c0,1.8,1.5,3.2,3.2,3.2h0.6v0.5h-11v-0.5h0.6c1.8,0,3.2-1.4,3.2-3.2V5.6c-0.2-1.6-1.5-2.9-3.2-2.9
	H234V2.2L247.1,2.2z"/>
</svg>
