<?xml version="1.0" encoding="utf-8"?>
<!-- Generator: Adobe Illustrator 23.0.1, SVG Export Plug-In . SVG Version: 6.00 Build 0)  -->
<svg version="1.1" id="Camada_1" xmlns="http://www.w3.org/2000/svg" xmlns:xlink="http://www.w3.org/1999/xlink" x="0px" y="0px"
	 viewBox="0 0 500 202" style="enable-background:new 0 0 500 202;" xml:space="preserve">
<style type="text/css">
	.st0{fill:#FEB279;}
	.st1{fill:#A092FE;}
	.st2{fill:#7E70D4;}
	.st3{fill:#A091FE;}
	.st4{fill:#C2B8FD;}
</style>
<g>
	<path class="st0" d="M166.3,94.7c1.5-1.4,3-2.7,4.5-4.1c7.4-6.8,14.8-13.6,22.3-20.4c1.9-1.7,4.1-2.2,5.9-1.3c1.9,1,3.1,2.9,3,4.9
		c-0.1,1.4-0.8,2.5-1.8,3.4c-5.2,4.7-10.5,9.4-15.7,14.1c-1.2,1-3,1.9-3.3,3.2c-0.3,1.3,1.7,2.3,2.7,3.4
		c6.1,6.7,12.4,13.4,18.4,20.2c2.2,2.4,1.8,5.1-0.6,7.3c-2.3,2.1-5,1.9-7.3-0.4c-1.1-1.1-2.3-2.3-3.4-3.5
		c-5.9-6.2-11.7-12.4-17.5-18.6c-0.7-0.8-1.2-0.9-2-0.1c-1.5,1.5-3.2,2.9-4.8,4.3c-0.7,0.6-0.7,1.3-0.7,2.1c0,3.9,0,7.9,0,11.8
		c0,3.5-1.9,5.7-4.8,5.9c-3.3,0.2-5.6-1.7-5.9-5.1c0-0.5,0-1,0-1.4c0-23,0-46.1,0-69.1c0-0.5,0-1,0-1.4c0.3-3,2.4-5,5.3-5
		c2.9,0,5,2,5.3,5c0.1,0.6,0,1.2,0,1.8c0,13.7,0,27.4,0,41.2C166,93.3,165.9,94,166.3,94.7z"/>
	<path class="st0" d="M403.8,90.2c0,5.2,0,10.4,0,15.6c0,2.4,0.7,4.6,1.8,6.7c1.4,2.6,3.8,4.2,6.7,5c3.6,1,7.2,0.8,10.7-0.3
		c4.6-1.4,7.7-5.8,8-10.9c0.5-9.5,0.1-19,0.3-28.4c0-1.1,0-2.3,0-3.4c0-3.5,2-5.7,5.2-5.7c3.1,0,5.2,2.3,5.2,5.8
		c0,7.1,0,14.2,0,21.3c0,4.2,0.1,8.4-0.3,12.7c-1.1,10.3-9,18.1-19.3,19.1c-5.4,0.5-10.6,0.4-15.6-1.6c-7.2-2.8-11.2-8.3-12.7-15.7
		c-0.5-2.6-0.7-5.2-0.7-7.8c0-9.3,0-18.6,0-27.9c0-3.6,2.2-5.9,5.5-5.8c3,0.1,5.1,2.3,5.1,5.7C403.8,79.7,403.7,84.9,403.8,90.2
		C403.8,90.2,403.8,90.2,403.8,90.2z"/>
	<path class="st0" d="M476.1,127.9c-7.9-0.3-15.4-2.6-21.1-9.2c-2.3-2.7-2.4-5-0.2-7c2.2-2.1,4.8-2,7.2,0.5
		c3.2,3.4,6.9,6.1,11.6,6.9c3.7,0.6,7.5,0.6,11-1.2c2.4-1.2,3.8-2.9,4-5.7c0.2-2.9-0.9-5.1-3.4-6.6c-3.7-2.2-7.9-3-11.9-4.3
		c-5-1.6-10-3-13.8-7.1c-4.6-5-5.1-13.9-0.7-19.1c5.5-6.6,12.8-8.5,21-7.6c3.1,0.3,6,1.3,8.9,2.6c2.8,1.3,5,3.2,7,5.5
		c1.8,2,1.6,4.5-0.3,6.2c-1.8,1.7-4.4,1.6-6.3-0.2c-4.9-4.7-10.6-6.4-17.2-5c-4.6,1-6.6,4.2-5.8,8.5c0.4,2.2,1.8,3.6,3.8,4.7
		c3.7,1.9,7.7,2.8,11.6,4c3.6,1.1,7.2,2.3,10.5,4.4c8.1,5.5,8.2,18.4,1,24.2C488.1,126.4,482.6,127.8,476.1,127.9z"/>
	<path class="st0" d="M231.9,64.1c0,1.3,0.1,2.5,0,3.8c-0.1,1.2,0.3,1.7,1.6,1.6c2.5-0.1,5-0.1,7.5,0c3,0,4.9,1.9,4.9,4.7
		c0,2.9-1.7,4.8-4.8,4.9c-2.5,0.1-5,0.1-7.5,0c-1.3,0-1.7,0.3-1.7,1.7c0.1,10.4,0,20.9,0,31.3c0,4.4,2.6,6.3,6.9,5.3
		c3.1-0.8,4.2-0.4,5.2,1.8c1,2.2,0.4,4.2-1.9,5.8c-3,2.1-6.4,2.1-9.8,1.7c-8.1-0.8-10.6-6.6-10.8-11.9c-0.5-11.1-0.1-22.3-0.2-33.5
		c0-1.8-0.4-2.5-2.3-2.3c-1.4,0.2-2.9,0.1-4.3,0c-2.9-0.2-4.7-2.3-4.7-5.2c0.1-2.6,1.9-4.3,4.9-4.3c1.6,0,3.2-0.1,4.8,0
		c1.2,0.1,1.5-0.4,1.5-1.6c-0.1-2.4,0-4.9,0-7.3c0-3.6,2.1-5.8,5.4-5.8c3.2,0,5.2,2.3,5.3,5.9C231.9,61.8,231.9,62.9,231.9,64.1z"/>
	<path class="st1" d="M99.2,126.8c0.6,0.2,1.1,0.5,1.7,0.7c-5.7,11.6-12.6,22.4-21.1,32.2c-9.4,10.9-20.3,19.9-33.1,26.7
		c-8.2,4.4-16.7,7.9-25.8,9.8c-0.9,0.2-1.2,0.8-1.4,1.6c-1,2.6-3.8,4.2-6.6,3.8c-2.4-0.3-4.6-2.5-5-5c-0.4-2.7,1.1-5.5,3.6-6.5
		c3.2-1.4,6.8,0.2,8,3.6c0.3,0.9,0.6,1,1.5,0.8c5.8-1.3,11.5-3.2,16.9-5.7c12.3-5.5,23.2-13,32.9-22.4c9.4-9.1,17.2-19.3,23.6-30.6
		C96.1,132.9,97.8,130,99.2,126.8z"/>
	<path class="st1" d="M96.8,71.7c-0.4,0.5-0.9,0.7-1.5,1C90,61,83.5,50.3,75.2,40.6c-9.1-10.6-19.7-19.2-32-25.7
		c-3.7-1.9-7.5-3.7-11.4-5.1c-0.9-0.3-1.5-0.2-2.2,0.5c-2.2,2.2-5.2,2.4-7.6,0.6c-2.3-1.6-3.1-4.7-2-7.3c1.1-2.6,3.9-4.1,6.6-3.6
		c2.9,0.6,5,3,4.9,6c0,1.4,0.4,1.9,1.7,2.4c16.5,6.1,30.1,16.3,41.8,29.2C84,47.8,91.3,59.2,96.8,71.7z"/>
	<path class="st1" d="M88.5,118.6c0.5,0.4,1,0.8,1.3,1.4c-7.9,3.6-16.2,5.8-24.7,7.5c-8.6,1.7-17.4,2.7-26.2,3.3
		c-8,0.6-16,0.7-23.9,0.6c-1.1,0-1.9,0.1-2.6,1.3c-1.4,2.6-4.5,3.5-7.1,2.5c-2.7-1-4.4-4-3.9-6.9c0.5-2.6,3-4.7,5.7-4.8
		c3-0.1,5.5,1.8,6,4.8c0.3,1.4,1,1.3,2,1.3c10.7,0.1,21.3-0.4,31.9-1.4c12.1-1.2,23.9-3.3,35.4-7.2
		C84.6,120.3,86.6,119.6,88.5,118.6z"/>
	<path class="st1" d="M86.1,82c-0.3,0.5-0.6,1-0.9,1.5c-6.8-3.5-13.9-6.2-21.3-8.1c-8.6-2.2-17.4-2.9-26.2-2.3
		c-7.7,0.5-15.2,2.1-22.4,4.9c-1,0.4-1.3,0.7-1.1,1.9c0.6,2.9-1,5.5-3.9,6.6c-2.5,0.9-5.5,0-6.9-2.2c-1.7-2.5-1.5-5.5,0.7-7.7
		c2.1-2.1,5.1-2.5,7.5-0.8c1.2,0.9,2.2,0.9,3.5,0.4c11.3-4.4,23-5.7,34.9-4.9C62.7,72.3,74.8,76,86.1,82z"/>
	<path class="st1" d="M95.2,124.6c0.6,0.2,1.1,0.5,1.5,1c-10.4,13.1-23.7,22.3-39.3,28c-8.1,3-16.4,4.7-25,5.6
		c-1.1,0.1-1.5,0.6-1.8,1.5c-1,2.6-3.7,4-6.5,3.6c-2.4-0.3-4.6-2.6-5-5.2c-0.4-2.4,1.2-5.2,3.5-6.3c3.2-1.5,6.8,0,8.1,3.3
		c0.4,1.1,0.9,1.4,1.9,1.2c6.9-0.8,13.6-2.1,20.2-4.2c12.1-3.8,23.1-9.8,32.6-18.3C89,131.8,92.3,128.4,95.2,124.6z"/>
	<path class="st1" d="M91.4,75.7c-0.4,0.4-0.9,0.9-1.3,1.3c-4.2-4.7-9.1-8.7-14.5-12.1c-11.3-7.3-23.6-12-36.9-14
		c-2-0.3-4-0.6-6-0.8c-1.2-0.1-1.6,0.1-2.1,1.2c-1.4,3.4-5.2,4.7-8.3,3.1c-3.1-1.6-4.2-5.6-2.3-8.6c1.3-2.1,3.3-2.9,5.6-2.7
		c2.3,0.2,4.2,1.3,4.9,3.5c0.5,1.3,1.3,1.7,2.5,1.8c18.5,1.7,35.1,8.1,49.8,19.5C85.8,70.2,88.7,72.8,91.4,75.7z"/>
	<path class="st1" d="M81.9,104.9c0.3,0.5,0.4,1.1,0.4,1.7c-5.3,0.9-10.7,1.9-16,2.7c-9,1.4-18.1,2.8-27.1,4.2
		c-5.2,0.8-10.5,1.4-15.7,2.1c-0.9,0.1-1.1,0.4-1.3,1.3c-0.4,2.7-2,4.4-4.7,5c-2.4,0.5-4.4-0.3-5.9-2.1c-1.7-2-1.8-4.4-0.6-6.7
		c2.1-4,7.7-4.3,10.2-0.5c0.7,1.1,1.4,1.4,2.6,1.2c9.5-1.3,19.1-2.5,28.6-4c9.6-1.5,19.2-3,28.7-4.9
		C81.3,104.9,81.6,104.9,81.9,104.9z"/>
	<path class="st1" d="M81.9,92.3c0,0.6,0,1.1-0.3,1.6c-10.3-2.7-20.7-3.8-31.3-3.6c-4.7,0.1-9.4,0.5-14.1,1c-1,0.1-1.1,0.6-1.2,1.4
		c-0.4,2.9-2,4.6-4.8,5.3c-2.1,0.5-4.8-0.7-6.1-2.6c-1.4-2.1-1.4-4.8,0.1-6.9c2.2-3.2,7.1-3.4,9.5-0.2c1,1.3,2,1.4,3.4,1.2
		c6.2-0.8,12.3-1.2,18.5-0.9C64.5,88.9,73.4,89.7,81.9,92.3z"/>
	<path class="st0" d="M374.1,77.1c-8.2-10.5-24.1-12.5-34.5-4.1c-1.4,1.1-2.6,2.5-4.1,4c0-1.2,0-2,0-2.8c-0.1-3.4-2.2-5.7-5.3-5.7
		c-3,0-5.1,2.3-5.2,5.6c0,2.9,0,5.7,0,8.6c0,20,0,40.1,0,60.1c0,1.6,0.2,3.1,1.2,4.4c1.5,1.8,3.7,2.3,6,1.5c2-0.7,3.2-2.4,3.2-4.9
		c0-8,0-16.1,0-24.5c1.3,1.1,2.3,2,3.3,2.9c8.9,7.6,21.6,7.4,30.3,0.9c6.4-4.8,10.1-11.2,11.3-19C381.9,94.3,380.3,85.1,374.1,77.1z
		 M365.4,112.7c-9.2,9.9-25.4,5.7-29.2-7.3c-0.3-1-0.5-2-0.7-2.9c-0.3-1.6-0.4-3.2-0.4-4.8c0-5.5,1.5-10.6,5.3-14.8
		c2.7-2.9,6-4.6,9.9-5.2c11.6-1.7,19.3,7.1,20.4,16.5C371.4,101.1,370.2,107.5,365.4,112.7z"/>
	<path class="st0" d="M312,90.5c-1.6-7.5-5.5-13.7-11.9-18.1c-6.4-4.5-13.6-5.8-21.3-4.8c-6.4,0.9-11.9,3.7-16.2,8.3
		c-7.2,7.5-9.5,16.7-8,26.7c2.2,15.2,14.4,25.2,28.8,25.1c1.8,0,3.6,0,5.3-0.4c9.2-1.8,16.1-6.6,20.5-14.9
		C312.9,105.6,313.6,98.2,312,90.5z M291.4,116.4c-9.7,4.9-22.2-0.4-25.4-10.9c-2.2-7.4-1.8-14.6,3-21.1c7.6-10.3,23.2-9.5,30,1.4
		c2.3,3.7,3.3,7.6,3.2,11.9C302,105.9,299.1,112.5,291.4,116.4z"/>
	<path class="st0" d="M133.3,75.6c-7.2-6.6-15.7-8.8-25.3-7.7c-4,0.5-7.7,2-11.3,3.8c-0.7,0-1.1,0.4-1.5,1c-1.3,1-2.6,2-3.9,3
		c-0.8,0.1-1.3,0.5-1.3,1.3c-1.3,1.7-2.6,3.4-3.9,5c-0.6,0.3-1,0.8-0.9,1.5c-1.3,2.8-2.5,5.7-3.3,8.8c-0.5,0.5-0.4,1.1-0.3,1.6
		c-0.2,3.7-0.3,7.3,0.3,11c-0.2,0.7-0.1,1.2,0.4,1.7c1.3,4.3,3.4,8.3,6.2,11.9c0.2,0.7,0.7,1.1,1.3,1.4c1.8,1.5,3.6,3.1,5.4,4.6
		c0.3,0.6,0.8,1,1.5,1c0.8,0.4,1.6,0.8,2.4,1.2c0.4,0.7,1,0.8,1.7,0.7c9.6,3.4,19,3,27.8-2.4c8.8-5.4,13.8-13.4,14.8-23.6
		C144.4,91.3,140.9,82.6,133.3,75.6z M112.5,122.6c-12.1-0.1-23.7-10.1-23.6-24.4c0-13.5,11.1-24.3,24-24.1
		c13.2,0.2,23.6,10.8,23.5,24.4C136.6,111.7,125.5,122.7,112.5,122.6z"/>
	<path class="st2" d="M129.9,97.1c1.1,8.9-5.8,17.8-14.6,18.9c-11.7,1.5-18.5-7.3-19.7-14.4c-0.4-2.3-0.4-4.5,0-6.7
		c0.2-0.4,0.4-0.6,0.9-0.3c0.8,1,0.9,2.3,1.5,3.4c1.6,3.2,4,4.2,7.4,3c2.3-0.8,4.2-2.2,6-3.7c2.3-1.9,4.5-3.7,7.5-4.2
		C123.3,92.3,126.9,93.8,129.9,97.1z"/>
	<path class="st3" d="M96.3,94.6c-0.2,0.1-0.4,0.2-0.6,0.3c2.5-11.1,13-17.2,23.2-13.2c5.8,2.2,9.5,6.6,10.8,12.8
		c0.3,0.9-0.2,1-0.8,0.6c-0.8-0.4-1.6-0.9-2.3-1.3c-5-2.6-9.6-1.9-14,1.5c-1.5,1.1-2.8,2.4-4.3,3.5c-0.9,0.6-1.8,1.2-2.8,1.6
		c-3.1,1.3-5.4,0.5-7-2.5c-0.5-0.9-0.7-1.9-1-2.9C97.3,94.3,97,94,96.3,94.6z"/>
	<path class="st4" d="M96.3,94.6c0-0.5,0-1.2,0.7-1.3c0.7-0.1,0.7,0.6,0.8,1.1c0.4,1.5,0.7,3,1.6,4.3c1.3,1.8,2.8,2.3,4.9,1.7
		c2.9-0.9,4.9-3,7.2-4.8c5.8-4.7,10.9-5,17.3-0.8c0.4,0.3,0.7,0.5,0.8-0.2c0.6,0.8,0.3,1.7,0.3,2.6c-2.2-1.6-4.4-3.1-7.2-3.7
		c-3.7-0.8-6.6,0.7-9.3,2.9c-2.6,2-5,4.3-8.3,5.3c-3.1,1-5.6,0-7.2-2.9C97.1,97.4,96.7,96,96.3,94.6z"/>
</g>
</svg>
