<?xml version="1.0" encoding="utf-8"?>
<!-- Generator: Adobe Illustrator 23.0.1, SVG Export Plug-In . SVG Version: 6.00 Build 0)  -->
<svg version="1.1" id="Camada_1" xmlns="http://www.w3.org/2000/svg" xmlns:xlink="http://www.w3.org/1999/xlink" x="0px" y="0px"
	 viewBox="0 0 500 126" style="enable-background:new 0 0 500 126;" xml:space="preserve">
<style type="text/css">
	.st0{fill:#3D4DB7;}
	.st1{fill:#353F49;}
	.st2{fill:#0677B5;}
</style>
<g>
	<g transform="translate(0.000000,768.000000) scale(0.100000,-0.100000)">
		<path class="st0" d="M4650.2,6290c0-4.9,4.1-4.9,11.2,0c4.5,3,4.1,3.7-2.6,3.7C4654,6293.7,4650.2,6292.2,4650.2,6290z"/>
	</g>
	<g>
		<path id="XMLID_42_" class="st1" d="M493.5,40.2c3.1,0,5.3,2.5,5.3,5.6c0,3.1-2.5,5.6-5.3,5.6c-3.1,0-5.6-2.5-5.6-5.6
			C487.9,42.7,490.4,40.2,493.5,40.2L493.5,40.2z M493.2,41.1c-2.5,0-4.4,2.2-4.4,4.7c0,2.5,1.9,4.7,4.4,4.7c2.5,0,4.4-2.2,4.4-4.7
			C497.9,43.3,495.7,41.1,493.2,41.1L493.2,41.1z M492.3,48.9h-0.9v-6.3c0.6,0,0.9,0,1.9,0c0.9,0,1.6,0.3,1.9,0.3
			c0.3,0.3,0.6,0.6,0.6,1.3c0,0.9-0.6,1.3-1.3,1.6l0,0c0.6,0,0.9,0.6,0.9,1.6c0,0.9,0.3,1.3,0.3,1.6h-0.9c0-0.3-0.3-0.6-0.3-1.6
			c0-0.9-0.6-0.9-1.3-0.9h-0.6v2.5H492.3z M492.3,45.5h0.6c0.9,0,1.6-0.3,1.6-0.9s-0.3-0.9-1.6-0.9c-0.3,0-0.6,0-0.6,0V45.5z"/>
		<path id="XMLID_38_" class="st1" d="M183.3,81.3c-6.3,0-11.6-3.1-14.4-8.2v35.1h-10V37.3h10v7.2c2.8-5,8.2-8.5,14.4-8.5
			c12.9,0,20.7,10.7,20.7,22.3C204,70.3,195.8,81.3,183.3,81.3z M181.4,44.9c-7.2,0-12.2,6.3-12.2,13.5c0,7.5,4.7,14.1,12.2,14.1
			c7.2,0,12.2-6.3,12.2-13.5C193.6,51.1,188.6,44.9,181.4,44.9z"/>
		<path id="XMLID_35_" class="st1" d="M231.9,36.1c14.1,0,21.3,10.7,21.3,22.6c0,0.6,0,1.9,0,2.5h-32.9c0,7.5,6,12.2,13.5,12.2
			c5.3,0,9.7-2.2,13.2-5.3l5.3,5.3c-4.1,3.5-9.4,7.5-19.8,7.5c-15.1,0-22.9-10.7-22.9-22.6C209.9,46.7,217.8,36.1,231.9,36.1z
			 M220.3,54.9h23.2c-0.6-6.3-5.3-11.6-11.6-11.6C225.6,43.3,220.9,48.9,220.3,54.9z"/>
		<path id="XMLID_33_" class="st1" d="M270.8,79.4h-10.4v-42h10.4V43c2.2-4.1,6.9-6.9,12.5-6.9c12.5,0,17.6,8.2,17.6,20.4v22.9h-10
			V56.5c0-8.5-3.8-12.2-10-12.2c-5.3,0-10,3.5-10,11.6V79.4L270.8,79.4z"/>
		<path id="XMLID_31_" class="st1" d="M312.8,54.3v-8.5h-6v-8.5h6V23.2h10.4v14.1h8.8v8.5h-8.8V54c0,13.5,0.6,17.6,5.3,17.6
			c0.9,0,1.9-0.3,2.8-0.3l1.3,7.8c-2.8,0.9-5.3,1.6-7.2,1.6C312.8,80.6,312.8,71.5,312.8,54.3z"/>
		<path id="XMLID_28_" class="st1" d="M359,36.1c6.6,0,11.3,3.5,14.4,8.5v-7.2h10v42h-10v-6.6c-2.8,5-8.2,8.5-14.4,8.5
			c-12.9,0-20.7-10.7-20.7-22.3C338.3,47.1,346.4,36.1,359,36.1z M360.8,72.2c7.2,0,12.2-6.3,12.2-13.5c0-7.2-5-13.8-12.2-13.8
			c-7.2,0-12.2,6.3-12.2,13.8C348.6,66.2,353.6,72.2,360.8,72.2z"/>
		<path id="XMLID_26_" class="st1" d="M402.6,79.4h-10V0h10v43.3c2.2-4.1,6.9-6.9,12.5-6.9c12.5,0,17.6,8.2,17.6,20.4v22.9h-10.4
			V56.8c0-8.5-3.8-12.2-9.7-12.2c-5.6,0-10,3.5-10,11.6L402.6,79.4L402.6,79.4z"/>
		<path id="XMLID_22_" class="st1" d="M439,58.3c0-11.6,7.5-22.3,22.6-22.3c15.1,0,22.6,10.4,22.6,22.3c0,11.9-7.5,22.3-22.6,22.3
			C446.5,80.6,439,70.3,439,58.3z M474.1,58.3c0-8.8-5.3-14.7-12.5-14.7c-6.9,0-12.2,6-12.2,14.7c0,9.1,5.3,15.1,12.2,15.1
			C468.4,73.4,474.1,67.4,474.1,58.3z"/>
		<g id="XMLID_19_">
			<path id="XMLID_20_" class="st2" d="M66,33.3c-4.7,0-9.7,0.9-14.4,2.5c-11,4.7-19.5,13.5-23.8,24.5c-4.4,12.2-3.5,26.4,2.5,38.6
				c9.4,17.3,26.7,27.6,46.7,27.6c9.7,0,19.5-2.5,28.2-7.2c14.7-8.8,25.1-22.9,28.5-39.8c3.8-17.6-0.3-36.4-11-51.8
				C109.6,10,89.2,0,66.9,0C41.8,0,18.9,12.5,6,33.6c-1.3,2.2-2.8,4.7-3.8,7.2c0,0.3-0.3,1.6,0,2.2c0.3,0.6,1.3,0.6,1.6,0.6l0,0
				c0.9,0,2.2-0.9,3.8-3.5c7.8-11,16.6-18.8,27-24.2c9.1-4.7,19.5-7.2,29.8-7.2c24.5,0,45.5,13.2,54.9,34.8
				c5.6,13.5,5.6,28.5,0,41.4c-5,11.6-14.7,20.7-26.7,25.1c-4.4,1.6-9.1,2.2-13.8,2.2c-18.2,0-32.9-11-37-27.6
				c-1.9-8.8,0.3-18.5,5.6-25.1c3.1-4.1,8.8-8.8,17.9-8.8c5.6,0,11.3,2.8,14.4,6.9c2.5,3.1,3.1,6.6,2.5,10.4c-0.6,2.8-3.5,6.3-6,6.3
				c-0.6,0-1.6-0.3-1.9-0.6c-0.6-0.6-0.6-1.3-0.6-1.9c-0.3-1.6-0.6-3.8-3.8-5c-0.6-0.3-1.3-0.3-1.9-0.3c-4.7,0-7.8,4.4-8.8,8.8
				c-0.6,4.1,0.6,8.2,3.5,11.3c3.5,4.1,9.1,6.3,15.1,6.3c0.6,0,0.9,0,1.6,0c7.2-0.9,13.2-4.4,17.3-10.4c4.7-6.9,6-16.3,3.8-24.8
				C95.1,42.7,81.6,33.3,66,33.3z"/>
		</g>
	</g>
</g>
</svg>
