<?xml version="1.0" encoding="utf-8"?>
<!-- Generator: Adobe Illustrator 23.0.1, SVG Export Plug-In . SVG Version: 6.00 Build 0)  -->
<svg version="1.1" id="Camada_1" xmlns="http://www.w3.org/2000/svg" xmlns:xlink="http://www.w3.org/1999/xlink" x="0px" y="0px"
	 viewBox="0 0 80.7 44" style="enable-background:new 0 0 80.7 44;" xml:space="preserve">
<style type="text/css">
	.st0{fill:#FFFFFF;}
	.st1{fill:#678342;}
	.st2{fill:#A42B43;}
	.st3{fill:#0071A6;}
	.st4{fill:#007C3D;}
	.st5{fill:#C94D2C;}
	.st6{fill:#164E86;}
	.st7{fill:#E4A712;}
</style>
<polygon class="st0" points="31.3,36.5 80.7,36.5 80.7,40.1 25.4,40.1 "/>
<g>
	<path d="M38.9,37.6h-0.6v1.7H38v-1.7h-0.6v-0.2h1.5V37.6z"/>
	<path d="M40.5,39.1l0,0.2h-1.2v-1.9h1.2v0.2h-0.9v0.6h0.7v0.2h-0.7v0.7H40.5z"/>
	<path d="M42.2,38.9C42.2,38.9,42.3,38.9,42.2,38.9l0.1,0.1c-0.1,0.1-0.2,0.2-0.3,0.2c-0.1,0.1-0.2,0.1-0.4,0.1
		c-0.1,0-0.3,0-0.4-0.1c-0.1,0-0.2-0.1-0.3-0.2c-0.1-0.1-0.1-0.2-0.2-0.3c0-0.1-0.1-0.3-0.1-0.4c0-0.1,0-0.3,0.1-0.4
		c0-0.1,0.1-0.2,0.2-0.3c0.1-0.1,0.2-0.2,0.3-0.2c0.1,0,0.2-0.1,0.4-0.1c0.1,0,0.3,0,0.4,0.1c0.1,0,0.2,0.1,0.3,0.2l-0.1,0.1
		c0,0,0,0,0,0c0,0,0,0,0,0c0,0,0,0-0.1,0c0,0-0.1,0-0.1-0.1c0,0-0.1,0-0.1-0.1c-0.1,0-0.1,0-0.2,0c-0.1,0-0.2,0-0.3,0.1
		c-0.1,0-0.2,0.1-0.2,0.1c-0.1,0.1-0.1,0.1-0.1,0.2c0,0.1,0,0.2,0,0.3c0,0.1,0,0.2,0.1,0.3c0,0.1,0.1,0.2,0.1,0.2
		c0.1,0.1,0.1,0.1,0.2,0.1c0.1,0,0.2,0.1,0.3,0.1c0.1,0,0.1,0,0.2,0c0,0,0.1,0,0.1,0c0,0,0.1,0,0.1-0.1C42.1,39,42.2,38.9,42.2,38.9
		C42.2,38.9,42.2,38.9,42.2,38.9z"/>
	<path d="M44.3,37.4v1.9h-0.1c0,0,0,0-0.1,0c0,0,0,0,0,0L43,37.8c0,0,0,0,0,0.1c0,0,0,0,0,0.1v1.4h-0.2v-1.9h0.1c0,0,0,0,0,0
		c0,0,0,0,0,0s0,0,0,0c0,0,0,0,0,0l1.1,1.4c0,0,0,0,0-0.1c0,0,0,0,0-0.1v-1.4H44.3z"/>
	<path d="M46.7,38.3c0,0.1,0,0.3-0.1,0.4c0,0.1-0.1,0.2-0.2,0.3c-0.1,0.1-0.2,0.2-0.3,0.2c-0.1,0-0.2,0.1-0.4,0.1
		c-0.1,0-0.3,0-0.4-0.1c-0.1,0-0.2-0.1-0.3-0.2c-0.1-0.1-0.1-0.2-0.2-0.3c0-0.1-0.1-0.3-0.1-0.4c0-0.1,0-0.3,0.1-0.4
		c0-0.1,0.1-0.2,0.2-0.3c0.1-0.1,0.2-0.2,0.3-0.2c0.1,0,0.2-0.1,0.4-0.1c0.1,0,0.3,0,0.4,0.1c0.1,0,0.2,0.1,0.3,0.2
		c0.1,0.1,0.1,0.2,0.2,0.3C46.7,38.1,46.7,38.2,46.7,38.3z M46.4,38.3c0-0.1,0-0.2,0-0.3c0-0.1-0.1-0.2-0.1-0.2
		c-0.1-0.1-0.1-0.1-0.2-0.1c-0.1,0-0.2-0.1-0.3-0.1c-0.1,0-0.2,0-0.3,0.1c-0.1,0-0.2,0.1-0.2,0.1c-0.1,0.1-0.1,0.1-0.1,0.2
		c0,0.1,0,0.2,0,0.3c0,0.1,0,0.2,0,0.3c0,0.1,0.1,0.2,0.1,0.2c0.1,0.1,0.1,0.1,0.2,0.1c0.1,0,0.2,0.1,0.3,0.1c0.1,0,0.2,0,0.3-0.1
		c0.1,0,0.2-0.1,0.2-0.1c0.1-0.1,0.1-0.1,0.1-0.2C46.4,38.6,46.4,38.5,46.4,38.3z"/>
	<path d="M48.3,39.1v0.2h-1.1v-1.9h0.3v1.7H48.3z"/>
	<path d="M50.4,38.3c0,0.1,0,0.3-0.1,0.4c0,0.1-0.1,0.2-0.2,0.3c-0.1,0.1-0.2,0.2-0.3,0.2c-0.1,0-0.2,0.1-0.4,0.1
		c-0.1,0-0.3,0-0.4-0.1c-0.1,0-0.2-0.1-0.3-0.2c-0.1-0.1-0.1-0.2-0.2-0.3c0-0.1-0.1-0.3-0.1-0.4c0-0.1,0-0.3,0.1-0.4
		c0-0.1,0.1-0.2,0.2-0.3c0.1-0.1,0.2-0.2,0.3-0.2c0.1,0,0.2-0.1,0.4-0.1c0.1,0,0.3,0,0.4,0.1c0.1,0,0.2,0.1,0.3,0.2
		c0.1,0.1,0.1,0.2,0.2,0.3C50.3,38.1,50.4,38.2,50.4,38.3z M50.1,38.3c0-0.1,0-0.2,0-0.3c0-0.1-0.1-0.2-0.1-0.2
		c-0.1-0.1-0.1-0.1-0.2-0.1c-0.1,0-0.2-0.1-0.3-0.1c-0.1,0-0.2,0-0.3,0.1c-0.1,0-0.2,0.1-0.2,0.1c-0.1,0.1-0.1,0.1-0.1,0.2
		c0,0.1,0,0.2,0,0.3c0,0.1,0,0.2,0,0.3c0,0.1,0.1,0.2,0.1,0.2C49,39,49,39,49.1,39c0.1,0,0.2,0.1,0.3,0.1c0.1,0,0.2,0,0.3-0.1
		c0.1,0,0.2-0.1,0.2-0.1c0.1-0.1,0.1-0.1,0.1-0.2C50.1,38.6,50.1,38.5,50.1,38.3z"/>
	<path d="M52.4,38.4v0.7c-0.1,0.1-0.2,0.1-0.3,0.2c-0.1,0-0.2,0.1-0.4,0.1c-0.2,0-0.3,0-0.4-0.1c-0.1,0-0.2-0.1-0.3-0.2
		c-0.1-0.1-0.2-0.2-0.2-0.3c0-0.1-0.1-0.3-0.1-0.4c0-0.1,0-0.3,0.1-0.4c0-0.1,0.1-0.2,0.2-0.3c0.1-0.1,0.2-0.2,0.3-0.2
		c0.1,0,0.3-0.1,0.4-0.1c0.1,0,0.1,0,0.2,0c0.1,0,0.1,0,0.2,0c0.1,0,0.1,0,0.2,0.1c0,0,0.1,0.1,0.1,0.1l-0.1,0.1c0,0,0,0,0,0
		c0,0,0,0-0.1,0c0,0,0,0-0.1,0c0,0-0.1,0-0.1-0.1c0,0-0.1,0-0.1,0c-0.1,0-0.1,0-0.2,0c-0.1,0-0.2,0-0.3,0.1c-0.1,0-0.2,0.1-0.2,0.2
		c-0.1,0.1-0.1,0.1-0.1,0.2c0,0.1,0,0.2,0,0.3c0,0.1,0,0.2,0.1,0.3c0,0.1,0.1,0.2,0.1,0.2c0.1,0.1,0.1,0.1,0.2,0.2
		c0.1,0,0.2,0.1,0.3,0.1c0.1,0,0.2,0,0.2,0c0.1,0,0.1,0,0.2-0.1v-0.4h-0.3c0,0,0,0,0,0c0,0,0,0,0,0v-0.1H52.4z"/>
	<path d="M53.2,39.3h-0.3v-1.9h0.3V39.3z"/>
	<path d="M55.3,39.3h-0.2c0,0,0,0-0.1,0c0,0,0,0,0,0l-0.2-0.5H54l-0.2,0.5c0,0,0,0,0,0c0,0,0,0-0.1,0h-0.2l0.8-1.9h0.3L55.3,39.3z
		 M54.8,38.6l-0.3-0.8c0,0,0-0.1,0-0.1c0,0,0-0.1,0-0.1c0,0.1,0,0.1-0.1,0.2l-0.3,0.8H54.8z"/>
	<path d="M58,38.3c0,0.1,0,0.3-0.1,0.4c0,0.1-0.1,0.2-0.2,0.3c-0.1,0.1-0.2,0.1-0.3,0.2c-0.1,0-0.2,0.1-0.4,0.1h-0.7v-1.9h0.7
		c0.1,0,0.3,0,0.4,0.1c0.1,0,0.2,0.1,0.3,0.2c0.1,0.1,0.1,0.2,0.2,0.3C58,38.1,58,38.2,58,38.3z M57.8,38.3c0-0.1,0-0.2,0-0.3
		c0-0.1-0.1-0.2-0.1-0.2c-0.1-0.1-0.1-0.1-0.2-0.1c-0.1,0-0.2-0.1-0.3-0.1h-0.5v1.5h0.5c0.1,0,0.2,0,0.3-0.1c0.1,0,0.2-0.1,0.2-0.1
		c0.1-0.1,0.1-0.1,0.1-0.2C57.8,38.6,57.8,38.5,57.8,38.3z"/>
	<path d="M60,39.3h-0.2c0,0,0,0-0.1,0c0,0,0,0,0,0l-0.2-0.5h-0.9l-0.2,0.5c0,0,0,0,0,0c0,0,0,0-0.1,0h-0.2l0.8-1.9h0.3L60,39.3z
		 M59.5,38.6l-0.3-0.8c0,0,0-0.1,0-0.1c0,0,0-0.1,0-0.1c0,0.1,0,0.1-0.1,0.2l-0.3,0.8H59.5z"/>
	<path d="M61.4,39.3h-0.3v-1.9h0.3V39.3z"/>
	<path d="M63.5,37.4v1.9h-0.1c0,0,0,0-0.1,0c0,0,0,0,0,0l-1.1-1.4c0,0,0,0,0,0.1c0,0,0,0,0,0.1v1.4H62v-1.9h0.1c0,0,0,0,0,0
		c0,0,0,0,0,0c0,0,0,0,0,0c0,0,0,0,0,0l1.1,1.4c0,0,0,0,0-0.1c0,0,0,0,0-0.1v-1.4H63.5z"/>
	<path d="M64.4,37.6v0.7h0.8v0.2h-0.8v0.8h-0.3v-1.9h1.2v0.2H64.4z"/>
	<path d="M67.5,38.3c0,0.1,0,0.3-0.1,0.4c0,0.1-0.1,0.2-0.2,0.3c-0.1,0.1-0.2,0.2-0.3,0.2c-0.1,0-0.2,0.1-0.4,0.1
		c-0.1,0-0.3,0-0.4-0.1c-0.1,0-0.2-0.1-0.3-0.2c-0.1-0.1-0.1-0.2-0.2-0.3c0-0.1-0.1-0.3-0.1-0.4c0-0.1,0-0.3,0.1-0.4
		c0-0.1,0.1-0.2,0.2-0.3c0.1-0.1,0.2-0.2,0.3-0.2c0.1,0,0.2-0.1,0.4-0.1c0.1,0,0.3,0,0.4,0.1c0.1,0,0.2,0.1,0.3,0.2
		c0.1,0.1,0.1,0.2,0.2,0.3C67.5,38.1,67.5,38.2,67.5,38.3z M67.2,38.3c0-0.1,0-0.2,0-0.3c0-0.1-0.1-0.2-0.1-0.2
		c-0.1-0.1-0.1-0.1-0.2-0.1c-0.1,0-0.2-0.1-0.3-0.1c-0.1,0-0.2,0-0.3,0.1c-0.1,0-0.2,0.1-0.2,0.1c-0.1,0.1-0.1,0.1-0.1,0.2
		c0,0.1,0,0.2,0,0.3c0,0.1,0,0.2,0,0.3c0,0.1,0.1,0.2,0.1,0.2c0.1,0.1,0.1,0.1,0.2,0.1c0.1,0,0.2,0.1,0.3,0.1c0.1,0,0.2,0,0.3-0.1
		c0.1,0,0.2-0.1,0.2-0.1c0.1-0.1,0.1-0.1,0.1-0.2C67.2,38.6,67.2,38.5,67.2,38.3z"/>
	<path d="M69.4,39.3h-0.2c0,0-0.1,0-0.1-0.1l-0.5-0.7c0,0,0,0,0,0c0,0,0,0-0.1,0h-0.2v0.8H68v-1.9h0.5c0.1,0,0.2,0,0.3,0
		s0.2,0.1,0.2,0.1c0.1,0,0.1,0.1,0.1,0.2c0,0.1,0,0.1,0,0.2c0,0.1,0,0.1,0,0.2c0,0.1-0.1,0.1-0.1,0.2c0,0-0.1,0.1-0.1,0.1
		c-0.1,0-0.1,0.1-0.2,0.1c0,0,0.1,0,0.1,0.1L69.4,39.3z M68.5,38.3c0.1,0,0.1,0,0.2,0c0.1,0,0.1,0,0.1-0.1c0,0,0.1-0.1,0.1-0.1
		c0,0,0-0.1,0-0.2c0-0.1,0-0.2-0.1-0.3c-0.1-0.1-0.2-0.1-0.3-0.1h-0.3v0.7H68.5z"/>
	<path d="M71.8,37.4v1.9h-0.2v-1.4c0,0,0,0,0-0.1c0,0,0,0,0-0.1L70.9,39c0,0-0.1,0.1-0.1,0.1h0c0,0-0.1,0-0.1-0.1L70,37.8
		c0,0,0,0.1,0,0.1v1.4h-0.2v-1.9h0.2c0,0,0,0,0.1,0s0,0,0,0l0.7,1.2c0,0,0,0,0,0.1c0,0,0,0,0,0.1c0,0,0,0,0-0.1c0,0,0,0,0-0.1
		l0.7-1.2c0,0,0,0,0,0c0,0,0,0,0.1,0H71.8z"/>
	<path d="M73.9,39.3h-0.2c0,0,0,0-0.1,0c0,0,0,0,0,0l-0.2-0.5h-0.9l-0.2,0.5c0,0,0,0,0,0c0,0,0,0-0.1,0h-0.2l0.8-1.9h0.3L73.9,39.3z
		 M73.4,38.6l-0.3-0.8c0,0,0-0.1,0-0.1c0,0,0-0.1,0-0.1c0,0.1,0,0.1-0.1,0.2l-0.3,0.8H73.4z"/>
	<path d="M75.8,39c-0.1,0.1-0.2,0.2-0.3,0.2c-0.1,0.1-0.2,0.1-0.4,0.1l0,0.1c0.1,0,0.1,0,0.2,0.1c0,0,0.1,0.1,0.1,0.1
		c0,0,0,0.1,0,0.1c0,0,0,0-0.1,0.1c0,0-0.1,0-0.1,0c0,0-0.1,0-0.1,0c0,0-0.1,0-0.1,0c0,0-0.1,0-0.1,0l0-0.1c0,0,0,0,0,0c0,0,0,0,0,0
		s0,0,0,0c0,0,0,0,0,0c0,0,0,0,0,0c0,0,0.1,0,0.1,0c0,0,0,0,0-0.1c0,0,0-0.1-0.1-0.1c0,0-0.1,0-0.2,0l0.1-0.2c-0.1,0-0.2,0-0.3-0.1
		c-0.1-0.1-0.2-0.1-0.3-0.2c-0.1-0.1-0.1-0.2-0.2-0.3c0-0.1-0.1-0.2-0.1-0.4c0-0.1,0-0.3,0.1-0.4c0-0.1,0.1-0.2,0.2-0.3
		c0.1-0.1,0.2-0.2,0.3-0.2c0.1,0,0.2-0.1,0.4-0.1c0.1,0,0.3,0,0.4,0.1c0.1,0,0.2,0.1,0.3,0.2l-0.1,0.1c0,0,0,0,0,0c0,0,0,0,0,0
		c0,0,0,0-0.1,0c0,0-0.1,0-0.1-0.1c0,0-0.1,0-0.1-0.1c-0.1,0-0.1,0-0.2,0c-0.1,0-0.2,0-0.3,0.1c-0.1,0-0.2,0.1-0.2,0.1
		c-0.1,0.1-0.1,0.1-0.1,0.2c0,0.1,0,0.2,0,0.3c0,0.1,0,0.2,0.1,0.3s0.1,0.2,0.1,0.2c0.1,0.1,0.1,0.1,0.2,0.1c0.1,0,0.2,0.1,0.3,0.1
		c0.1,0,0.1,0,0.2,0c0,0,0.1,0,0.1,0c0,0,0.1,0,0.1-0.1c0,0,0.1,0,0.1-0.1c0,0,0,0,0,0c0,0,0,0,0,0L75.8,39z"/>
	<path d="M77.7,39.3h-0.2c0,0,0,0-0.1,0c0,0,0,0,0,0l-0.2-0.5h-0.9l-0.2,0.5c0,0,0,0,0,0c0,0,0,0-0.1,0h-0.2l0.8-1.9H77L77.7,39.3z
		 M77,37.1C77,37.1,77,37.1,77,37.1C77.1,37,77.1,37,77,37.1c0.1-0.1,0.1-0.1,0.1-0.1c0,0,0,0,0,0h0.1c0,0,0,0.1,0,0.1
		c0,0,0,0.1,0,0.1c0,0,0,0-0.1,0.1c0,0-0.1,0-0.1,0c0,0-0.1,0-0.1,0c0,0-0.1,0-0.1,0c0,0-0.1,0-0.1,0c0,0,0,0-0.1,0c0,0,0,0-0.1,0
		c0,0,0,0,0,0s0,0,0,0s0,0,0,0h-0.1c0,0,0-0.1,0-0.1c0,0,0-0.1,0-0.1c0,0,0,0,0.1-0.1c0,0,0.1,0,0.1,0c0,0,0.1,0,0.1,0
		c0,0,0.1,0,0.1,0C76.9,37,76.9,37,77,37.1C77,37.1,77,37.1,77,37.1z M77.2,38.6l-0.3-0.8c0,0,0-0.1,0-0.1c0,0,0-0.1,0-0.1
		c0,0.1,0,0.1-0.1,0.2l-0.3,0.8H77.2z"/>
	<path d="M79.9,38.3c0,0.1,0,0.3-0.1,0.4c0,0.1-0.1,0.2-0.2,0.3c-0.1,0.1-0.2,0.2-0.3,0.2c-0.1,0-0.2,0.1-0.4,0.1
		c-0.1,0-0.3,0-0.4-0.1c-0.1,0-0.2-0.1-0.3-0.2c-0.1-0.1-0.1-0.2-0.2-0.3c0-0.1-0.1-0.3-0.1-0.4c0-0.1,0-0.3,0.1-0.4
		c0-0.1,0.1-0.2,0.2-0.3c0.1-0.1,0.2-0.2,0.3-0.2c0.1,0,0.2-0.1,0.4-0.1c0.1,0,0.3,0,0.4,0.1c0.1,0,0.2,0.1,0.3,0.2
		c0.1,0.1,0.1,0.2,0.2,0.3C79.8,38.1,79.9,38.2,79.9,38.3z M79.6,38.3c0-0.1,0-0.2,0-0.3c0-0.1-0.1-0.2-0.1-0.2
		c-0.1-0.1-0.1-0.1-0.2-0.1c-0.1,0-0.2-0.1-0.3-0.1c-0.1,0-0.2,0-0.3,0.1c-0.1,0-0.2,0.1-0.2,0.1c-0.1,0.1-0.1,0.1-0.1,0.2
		c0,0.1,0,0.2,0,0.3c0,0.1,0,0.2,0,0.3c0,0.1,0.1,0.2,0.1,0.2c0.1,0.1,0.1,0.1,0.2,0.1c0.1,0,0.2,0.1,0.3,0.1c0.1,0,0.2,0,0.3-0.1
		c0.1,0,0.2-0.1,0.2-0.1c0.1-0.1,0.1-0.1,0.1-0.2C79.6,38.6,79.6,38.5,79.6,38.3z"/>
</g>
<g>
	<path class="st0" d="M42.4,33.7C42.4,33.7,42.3,33.7,42.4,33.7C42.3,33.8,42.3,33.8,42.4,33.7c-0.1,0-0.1,0-0.1,0
		c0,0-0.1,0-0.1-0.1c0,0-0.1,0-0.1-0.1c-0.1,0-0.1,0-0.2,0c-0.1,0-0.1,0-0.2,0c-0.1,0-0.1,0-0.1,0.1c0,0-0.1,0.1-0.1,0.1
		c0,0,0,0.1,0,0.1c0,0.1,0,0.1,0,0.2c0,0,0.1,0.1,0.1,0.1c0.1,0,0.1,0.1,0.2,0.1c0.1,0,0.1,0,0.2,0.1c0.1,0,0.1,0.1,0.2,0.1
		c0.1,0,0.1,0.1,0.2,0.1c0.1,0,0.1,0.1,0.1,0.2c0,0.1,0,0.1,0,0.2c0,0.1,0,0.2-0.1,0.3c0,0.1-0.1,0.2-0.2,0.2
		c-0.1,0.1-0.1,0.1-0.2,0.2c-0.1,0-0.2,0.1-0.3,0.1c-0.2,0-0.3,0-0.4-0.1c-0.1-0.1-0.2-0.1-0.3-0.2l0.1-0.1c0,0,0,0,0,0c0,0,0,0,0,0
		c0,0,0,0,0,0c0,0,0,0,0.1,0s0,0,0.1,0.1c0,0,0.1,0,0.1,0.1c0,0,0.1,0,0.1,0c0,0,0.1,0,0.2,0c0.1,0,0.1,0,0.2,0c0.1,0,0.1,0,0.1-0.1
		c0,0,0.1-0.1,0.1-0.1c0-0.1,0-0.1,0-0.2c0-0.1,0-0.1,0-0.2c0,0-0.1-0.1-0.1-0.1c-0.1,0-0.1-0.1-0.2-0.1c-0.1,0-0.1,0-0.2-0.1
		c-0.1,0-0.1,0-0.2-0.1c-0.1,0-0.1-0.1-0.2-0.1c-0.1,0-0.1-0.1-0.1-0.2c0-0.1,0-0.2,0-0.3c0-0.1,0-0.2,0-0.2c0-0.1,0.1-0.1,0.1-0.2
		c0.1-0.1,0.1-0.1,0.2-0.1c0.1,0,0.2-0.1,0.3-0.1c0.1,0,0.2,0,0.4,0.1c0.1,0,0.2,0.1,0.3,0.2L42.4,33.7z"/>
	<path class="st0" d="M44,35.4c0.1,0,0.2,0,0.3,0c0.1,0,0.1-0.1,0.2-0.1c0.1-0.1,0.1-0.1,0.1-0.2c0-0.1,0-0.2,0-0.3v-1.4h0.3v1.4
		c0,0.1,0,0.3-0.1,0.4c0,0.1-0.1,0.2-0.2,0.3c-0.1,0.1-0.2,0.1-0.3,0.2c-0.1,0-0.2,0.1-0.4,0.1c-0.1,0-0.3,0-0.4-0.1
		c-0.1,0-0.2-0.1-0.3-0.2c-0.1-0.1-0.1-0.2-0.2-0.3c0-0.1-0.1-0.2-0.1-0.4v-1.4h0.3v1.4c0,0.1,0,0.2,0,0.3c0,0.1,0.1,0.1,0.1,0.2
		c0.1,0.1,0.1,0.1,0.2,0.1C43.8,35.4,43.9,35.4,44,35.4z"/>
	<path class="st0" d="M46.3,33.4c0.1,0,0.3,0,0.4,0.1c0.1,0,0.2,0.1,0.3,0.1s0.1,0.1,0.2,0.2c0,0.1,0.1,0.2,0.1,0.3
		c0,0.1,0,0.2-0.1,0.3c0,0.1-0.1,0.2-0.2,0.2c-0.1,0.1-0.2,0.1-0.3,0.2c-0.1,0-0.2,0.1-0.4,0.1h-0.4v0.9h-0.3v-2.3H46.3z M46.3,34.5
		c0.1,0,0.2,0,0.2,0c0.1,0,0.1-0.1,0.2-0.1c0,0,0.1-0.1,0.1-0.2c0-0.1,0-0.1,0-0.2c0-0.1,0-0.3-0.1-0.3c-0.1-0.1-0.2-0.1-0.4-0.1
		h-0.4v0.9H46.3z"/>
	<path class="st0" d="M49.1,35.4l0,0.3h-1.4v-2.3h1.4v0.3H48v0.8h0.9v0.2H48v0.8H49.1z"/>
	<path class="st0" d="M51.4,35.7h-0.3c-0.1,0-0.1,0-0.1-0.1l-0.6-0.8c0,0,0,0-0.1-0.1c0,0-0.1,0-0.1,0H50v1h-0.3v-2.3h0.7
		c0.1,0,0.3,0,0.4,0c0.1,0,0.2,0.1,0.3,0.1c0.1,0.1,0.1,0.1,0.2,0.2c0,0.1,0,0.2,0,0.3c0,0.1,0,0.2,0,0.2c0,0.1-0.1,0.1-0.1,0.2
		c0,0.1-0.1,0.1-0.2,0.1c-0.1,0-0.1,0.1-0.2,0.1c0,0,0.1,0.1,0.1,0.1L51.4,35.7z M50.3,34.5c0.1,0,0.2,0,0.2,0
		c0.1,0,0.1-0.1,0.2-0.1c0,0,0.1-0.1,0.1-0.1c0-0.1,0-0.1,0-0.2c0-0.1,0-0.2-0.1-0.3c-0.1-0.1-0.2-0.1-0.4-0.1H50v0.9H50.3z"/>
	<path class="st0" d="M52.1,35.7h-0.3v-2.3h0.3V35.7z"/>
	<path class="st0" d="M54.7,33.4v2.3h-0.2c0,0,0,0-0.1,0c0,0,0,0,0,0l-1.3-1.7c0,0,0,0.1,0,0.1c0,0,0,0,0,0.1v1.6h-0.3v-2.3H53
		c0,0,0,0,0,0c0,0,0,0,0,0c0,0,0,0,0,0c0,0,0,0,0,0l1.3,1.7c0,0,0-0.1,0-0.1c0,0,0-0.1,0-0.1v-1.6H54.7z"/>
	<path class="st0" d="M57,33.6h-0.7v2H56v-2h-0.7v-0.3H57V33.6z"/>
	<path class="st0" d="M58.9,35.4l0,0.3h-1.4v-2.3h1.4v0.3h-1.1v0.8h0.9v0.2h-0.9v0.8H58.9z"/>
	<path class="st0" d="M61.4,33.4v2.3h-0.2c0,0,0,0-0.1,0c0,0,0,0,0,0l-1.3-1.7c0,0,0,0.1,0,0.1c0,0,0,0,0,0.1v1.6h-0.3v-2.3h0.2
		c0,0,0,0,0,0c0,0,0,0,0,0c0,0,0,0,0,0c0,0,0,0,0,0l1.3,1.7c0,0,0-0.1,0-0.1c0,0,0-0.1,0-0.1v-1.6H61.4z"/>
	<path class="st0" d="M64.1,34.5c0,0.2,0,0.3-0.1,0.5c-0.1,0.1-0.1,0.3-0.2,0.4c-0.1,0.1-0.2,0.2-0.4,0.2c-0.1,0.1-0.3,0.1-0.5,0.1
		h-0.9v-2.3H63c0.2,0,0.3,0,0.5,0.1c0.1,0.1,0.3,0.1,0.4,0.2c0.1,0.1,0.2,0.2,0.2,0.4C64.1,34.2,64.1,34.3,64.1,34.5z M63.8,34.5
		c0-0.1,0-0.3-0.1-0.4c0-0.1-0.1-0.2-0.2-0.3c-0.1-0.1-0.2-0.1-0.3-0.2c-0.1,0-0.2-0.1-0.3-0.1h-0.5v1.8H63c0.1,0,0.2,0,0.3-0.1
		c0.1,0,0.2-0.1,0.3-0.2c0.1-0.1,0.1-0.2,0.2-0.3C63.8,34.8,63.8,34.6,63.8,34.5z"/>
	<path class="st0" d="M66.1,35.4l0,0.3h-1.4v-2.3h1.4v0.3H65v0.8h0.9v0.2H65v0.8H66.1z M66,33.2h-0.2c0,0,0,0,0,0c0,0,0,0-0.1,0
		l-0.2-0.2l0,0l0,0l-0.2,0.2c0,0,0,0-0.1,0c0,0,0,0,0,0h-0.2l0.4-0.4h0.3L66,33.2z"/>
	<path class="st0" d="M68.6,33.4v2.3h-0.2c0,0,0,0-0.1,0s0,0,0,0L67,33.9c0,0,0,0.1,0,0.1c0,0,0,0,0,0.1v1.6h-0.3v-2.3h0.2
		c0,0,0,0,0,0c0,0,0,0,0,0c0,0,0,0,0,0c0,0,0,0,0,0l1.3,1.7c0,0,0-0.1,0-0.1c0,0,0-0.1,0-0.1v-1.6H68.6z"/>
	<path class="st0" d="M70.9,35.2C70.9,35.2,71,35.2,70.9,35.2l0.2,0.2c-0.1,0.1-0.2,0.2-0.3,0.3c-0.1,0.1-0.3,0.1-0.5,0.1
		c-0.2,0-0.3,0-0.5-0.1c-0.1-0.1-0.3-0.1-0.3-0.2s-0.2-0.2-0.2-0.4c-0.1-0.1-0.1-0.3-0.1-0.5c0-0.2,0-0.3,0.1-0.5
		c0.1-0.1,0.1-0.3,0.2-0.4c0.1-0.1,0.2-0.2,0.4-0.2c0.1-0.1,0.3-0.1,0.5-0.1c0.2,0,0.3,0,0.4,0.1c0.1,0.1,0.2,0.1,0.3,0.2L71,33.8
		c0,0,0,0,0,0c0,0,0,0,0,0c0,0,0,0-0.1,0c0,0-0.1,0-0.1-0.1c0,0-0.1,0-0.2-0.1c-0.1,0-0.2,0-0.2,0c-0.1,0-0.2,0-0.3,0.1
		c-0.1,0-0.2,0.1-0.3,0.2c-0.1,0.1-0.1,0.2-0.2,0.3c0,0.1-0.1,0.2-0.1,0.4c0,0.1,0,0.3,0.1,0.4c0,0.1,0.1,0.2,0.2,0.3
		c0.1,0.1,0.2,0.1,0.3,0.2c0.1,0,0.2,0.1,0.3,0.1c0.1,0,0.1,0,0.2,0c0.1,0,0.1,0,0.2,0c0,0,0.1,0,0.1-0.1
		C70.8,35.3,70.8,35.2,70.9,35.2C70.9,35.2,70.9,35.2,70.9,35.2z"/>
	<path class="st0" d="M71.9,35.7h-0.3v-2.3h0.3V35.7z"/>
	<path class="st0" d="M74.5,35.7h-0.2c0,0-0.1,0-0.1,0c0,0,0,0,0-0.1L74,35h-1l-0.2,0.6c0,0,0,0,0,0.1s0,0-0.1,0h-0.2l0.9-2.3h0.3
		L74.5,35.7z M73.9,34.8l-0.4-0.9c0,0,0-0.1,0-0.1c0,0,0-0.1,0-0.1c0,0.1,0,0.2-0.1,0.2L73,34.8H73.9z"/>
	<path class="st0" d="M77.8,34.5c0,0.2,0,0.3-0.1,0.5c-0.1,0.1-0.1,0.3-0.2,0.4c-0.1,0.1-0.2,0.2-0.4,0.2c-0.1,0.1-0.3,0.1-0.5,0.1
		h-0.9v-2.3h0.9c0.2,0,0.3,0,0.5,0.1c0.1,0.1,0.3,0.1,0.4,0.2c0.1,0.1,0.2,0.2,0.2,0.4C77.8,34.2,77.8,34.3,77.8,34.5z M77.5,34.5
		c0-0.1,0-0.3-0.1-0.4c0-0.1-0.1-0.2-0.2-0.3c-0.1-0.1-0.2-0.1-0.3-0.2c-0.1,0-0.2-0.1-0.3-0.1h-0.5v1.8h0.5c0.1,0,0.2,0,0.3-0.1
		c0.1,0,0.2-0.1,0.3-0.2c0.1-0.1,0.1-0.2,0.2-0.3C77.5,34.8,77.5,34.6,77.5,34.5z"/>
	<path class="st0" d="M79.8,35.4l0,0.3h-1.4v-2.3h1.4v0.3h-1.1v0.8h0.9v0.2h-0.9v0.8H79.8z"/>
</g>
<g>
	<path class="st0" d="M54.8,15.3c-0.1,0.2-0.3,0.4-0.4,0.5c-0.2,0.1-0.3,0.2-0.6,0.2c-0.2,0-0.4-0.1-0.7-0.2
		c-0.2-0.1-0.5-0.3-0.8-0.4c-0.3-0.2-0.7-0.3-1.1-0.4c-0.4-0.1-0.8-0.2-1.3-0.2c-0.9,0-1.5,0.2-1.9,0.6c-0.4,0.4-0.6,0.9-0.6,1.5
		c0,0.4,0.1,0.7,0.4,1c0.3,0.3,0.6,0.5,1,0.7c0.4,0.2,0.9,0.4,1.4,0.5c0.5,0.2,1.1,0.3,1.6,0.5c0.6,0.2,1.1,0.4,1.6,0.7
		c0.5,0.3,1,0.6,1.4,1c0.4,0.4,0.8,0.9,1,1.5c0.3,0.6,0.4,1.3,0.4,2.1c0,0.9-0.2,1.8-0.5,2.6c-0.3,0.8-0.8,1.5-1.4,2.1
		c-0.6,0.6-1.4,1.1-2.3,1.4c-0.9,0.3-1.9,0.5-3,0.5c-0.6,0-1.3-0.1-1.9-0.2c-0.6-0.1-1.3-0.3-1.9-0.5c-0.6-0.2-1.2-0.5-1.7-0.8
		c-0.5-0.3-1-0.7-1.4-1.1l1.4-2.2c0.1-0.2,0.2-0.3,0.4-0.4c0.2-0.1,0.4-0.2,0.6-0.2c0.3,0,0.6,0.1,0.8,0.3c0.3,0.2,0.6,0.4,0.9,0.6
		c0.4,0.2,0.8,0.4,1.2,0.6c0.5,0.2,1,0.3,1.6,0.3c0.8,0,1.5-0.2,2-0.6c0.5-0.4,0.7-1,0.7-1.8c0-0.5-0.1-0.8-0.4-1.1
		c-0.3-0.3-0.6-0.5-1-0.7C50,23.4,49.5,23.2,49,23c-0.5-0.1-1.1-0.3-1.6-0.5c-0.6-0.2-1.1-0.4-1.6-0.7c-0.5-0.3-1-0.6-1.4-1
		c-0.4-0.4-0.8-1-1-1.6c-0.3-0.6-0.4-1.4-0.4-2.4c0-0.8,0.2-1.5,0.5-2.2c0.3-0.7,0.7-1.3,1.3-1.9c0.6-0.6,1.3-1,2.2-1.3
		c0.9-0.3,1.8-0.5,2.9-0.5c0.6,0,1.2,0,1.8,0.1c0.6,0.1,1.1,0.2,1.7,0.4c0.5,0.2,1,0.4,1.5,0.7c0.5,0.3,0.9,0.6,1.2,0.9L54.8,15.3z"
		/>
	<path class="st0" d="M73,11.2v3.7h-5.6v16.3h-4.6V14.9h-5.6v-3.7H73z"/>
	<path class="st0" d="M80,31.2h-4.7v-20H80V31.2z"/>
</g>
<g id="lines_3_">
	<path class="st0" d="M19.5,22.2c0.9-0.2,1,0.2,1,0.9c0,2.4,0,4.8,0,7.1c0,0.5,0.1,0.7,0.7,0.7c4.3,0,8.6,0,12.8,0
		c0.2,0,0.6-0.2,0.6,0.3c0.1,0.5,0,0.7-0.6,0.7c-4.2,0-8.4,0-12.6,0c-1.1,0-0.9-0.1-0.9,1c0,1.7,0,3.4,0,5c0,0.7-0.4,0.5-0.7,0.5
		c-0.5,0.1-0.3-0.3-0.3-0.5c0-1.8,0-3.6,0-5.4c0-0.5-0.1-0.7-0.7-0.7c-4.3,0-8.6,0-12.8,0c-0.2,0-0.6,0.2-0.7-0.3
		c-0.1-0.6,0-0.7,0.6-0.7c4.3,0,8.6,0,12.9,0c0.6,0,0.7-0.2,0.7-0.7C19.5,27.6,19.5,24.9,19.5,22.2z"/>
	<path class="st0" d="M34.7,30.3c-1.2-2.2-2.4-4.4-3.6-6.5c-1.2-2.2-2.4-4.3-3.6-6.5c-0.2-0.4-0.4-0.5-0.9-0.3
		c-1.1,0.6-2.3,1.1-3.4,1.7c-0.3,0.1-0.5,0.2-0.6-0.2c-0.1-0.3-0.3-0.5,0.1-0.7c1.2-0.5,2.3-1.1,3.4-1.6c0.4-0.2,0.4-0.4,0.2-0.7
		c-1.9-3.4-3.8-6.8-5.7-10.2c-0.1-0.1-0.1-0.2-0.2-0.3c0.9-0.4,0.9-0.4,1.3,0.4c1.8,3.2,3.6,6.4,5.4,9.7c0.3,0.5,0.5,0.5,1,0.3
		c2-1,4.1-2,6.1-3c0.6-0.3,0.6,0.1,0.8,0.4c0.3,0.4-0.2,0.4-0.3,0.5c-2,1-4,2-6.1,3c-0.5,0.2-0.6,0.4-0.3,1
		c2.2,3.8,4.3,7.7,6.4,11.5C35.2,29.1,35.5,29.7,34.7,30.3z"/>
	<path class="st0" d="M5.2,30.6c-0.7-0.5-0.6-1-0.3-1.6c2.2-3.9,4.4-7.8,6.6-11.8c0.3-0.5,0.2-0.6-0.3-0.8c-1.8-0.7-3.5-1.5-5.2-2.2
		c-0.6-0.2-0.5-0.5-0.3-0.9c0.2-0.5,0.5-0.1,0.7,0c1.8,0.7,3.6,1.5,5.3,2.3c0.5,0.2,0.7,0.1,1-0.3c1.9-3.5,3.8-6.9,5.7-10.4
		c0.3-0.5,0.6-0.5,1-0.2c0.3,0.2,0,0.4-0.1,0.6c-1.7,3.1-3.4,6.1-5.1,9.2c-0.3,0.6-1,1.2-0.8,1.8c0.2,0.4,1.1,0.6,1.7,0.8
		c0.7,0.3,1.5,0.7,2.2,1c0.5,0.2,0.5,0.4,0.3,0.9c-0.2,0.6-0.5,0.2-0.7,0.1c-1.2-0.5-2.3-1-3.5-1.5c-0.6-0.3-0.9-0.2-1.2,0.4
		C10,21.9,7.8,26,5.5,30.1C5.4,30.3,5.3,30.4,5.2,30.6z"/>
	<path class="st0" d="M38,21.1c0,2.3,0,4.6,0,6.9c0,0.3,0.1,0.6-0.5,0.6c-0.5,0-0.6-0.2-0.6-0.6c0-4.6,0-9.2,0-13.8
		c0-0.6,0.3-0.6,0.7-0.6c0.6,0,0.3,0.4,0.3,0.6C38,16.5,38,18.8,38,21.1z"/>
	<path class="st0" d="M2.1,22.2c0-2.2,0-4.3,0-6.5c0-0.2-0.3-0.6,0.3-0.5c0.3,0,0.7-0.1,0.7,0.5c0,4.4,0,8.7,0,13.1
		c0,0.6-0.4,0.4-0.7,0.5C2,29.3,2.1,29,2.1,28.8C2.1,26.6,2.1,24.4,2.1,22.2z"/>
	<path class="st0" d="M4.7,10.3C8.8,7.9,13,5.4,17.1,3c0.1-0.1,0.4-0.5,0.6,0c0.1,0.3,0.5,0.6-0.1,0.9c-2.6,1.5-5.1,3-7.7,4.4
		c-1.3,0.7-2.6,1.4-3.8,2.2C5.5,11,5.1,11,4.7,10.3z"/>
	<path class="st0" d="M4.6,34c0.5-0.8,0.5-0.8,1.3-0.4c3.8,2,7.6,4,11.4,6c0.5,0.2,0.6,0.6,0.3,1.1c-0.2,0.3-0.4,0-0.5-0.1
		c-3.3-1.7-6.5-3.4-9.8-5.2C6.4,34.9,5.5,34.4,4.6,34z"/>
	<path class="st0" d="M22.9,40.5c-0.5-0.9-0.5-0.9,0.4-1.4c3.7-2.1,7.3-4.3,11-6.4c0.5-0.3,0.7-0.3,1,0.2c0.3,0.5-0.1,0.4-0.3,0.5
		c-2.4,1.4-4.9,2.8-7.3,4.3C26.1,38.6,24.5,39.6,22.9,40.5z"/>
	<path class="st0" d="M35.1,9.4c0,0.5-0.5,0.8-0.9,0.6c-3.8-2-7.6-4-11.4-6c-0.4-0.2-0.5-0.3-0.3-0.8c0.2-0.5,0.5-0.3,0.7-0.1
		c3.8,2,7.6,4,11.4,6C34.9,9.2,35,9.3,35.1,9.4z"/>
</g>
<g id="circles_3_">
	<path class="st1" d="M3,14.6c-1.2,0-2-0.9-2-2.1c0-1.1,0.9-2.1,2.1-2.1c1.2,0,2.1,1,2.1,2.1C5.1,13.7,4.2,14.6,3,14.6z"/>
	<path class="st2" d="M22.3,19.5c0,1.2-0.9,2.1-2.1,2.1c-1.2,0-2.1-0.9-2.1-2.1c0-1.2,0.9-2,2.1-2C21.4,17.5,22.3,18.3,22.3,19.5z"
		/>
	<path class="st3" d="M39.4,31.3c0,1.2-0.9,2.1-2.1,2.1c-1.2,0-2.1-0.9-2-2.1c0-1.2,1-2.1,2.1-2C38.5,29.2,39.4,30.1,39.4,31.3z"/>
	<path class="st4" d="M2.7,34c-1.2,0-2.1-1-2.1-2.1c0-1.1,1-2,2.1-2c1.2,0,2.1,1,2.1,2.1C4.8,33.1,3.8,34,2.7,34z"/>
	<path class="st5" d="M20.2,4.1c-1.2,0-2.1-0.9-2.1-2.1c0-1.1,1-2,2.1-2c1.2,0,2.1,0.9,2.1,2.1C22.3,3.2,21.4,4.1,20.2,4.1z"/>
	<path class="st6" d="M35.3,10.9c0-1.2,0.9-2.1,2.1-2.1c1.2,0,2.1,0.9,2.1,2.1c0,1.2-0.9,2.1-2.1,2C36.1,13,35.3,12.1,35.3,10.9z"/>
	<path class="st7" d="M20.2,43.1c-1.2,0-2.1-0.9-2.1-2.1c0-1.2,0.9-2.1,2.1-2.1c1.2,0,2.1,0.9,2.1,2.1
		C22.3,42.3,21.4,43.1,20.2,43.1z"/>
</g>
</svg>
