<?xml version="1.0" encoding="utf-8"?>
<!-- Generator: Adobe Illustrator 24.0.1, SVG Export Plug-In . SVG Version: 6.00 Build 0)  -->
<svg version="1.1" xmlns="http://www.w3.org/2000/svg" xmlns:xlink="http://www.w3.org/1999/xlink" x="0px" y="0px"
	 viewBox="0 0 64 64" style="enable-background:new 0 0 64 64;" xml:space="preserve">
<style type="text/css">
	.st0{fill:#FFCB00;}
	.st1{fill:#314D9B;}
	.st2{fill:#3EB9EB;}
	.st3{fill:#A1C517;}
	.st4{fill:#921C70;}
	.st5{fill:#2A245B;}
	.st6{fill:#F08800;}
	.st7{fill:#E4261F;}
</style>
<g id="Layer_1">
</g>
<g id="Layer_2">
	<g>
		<path class="st0" d="M43.5,51.2c1.2-2.2,2-4.5,2.4-7.1c-3.1,3.6-7.6,5.9-12.7,6.3c0,0,0,0,0,0c-2.1,1.5-4.3,2.6-6.7,3.3
			C19.2,55.8,10.9,54,5,48.2c-0.6-0.6-1.1-1.2-1.6-1.9c0.1,0.1,0.1,0.2,0.2,0.4c3.8,7.3,10.4,13,18.3,15.7c0.8,0.1,1.6,0.1,2.5,0.1
			C32.6,62.5,39.8,58,43.5,51.2z"/>
		<path class="st1" d="M13.6,33.3c0-0.4,0-0.8,0-1.3c0-4.7,1.7-8.9,4.6-12.2c0,0,0,0,0,0c0,0,0-0.1,0-0.1c0-0.1,0-0.3,0.1-0.4
			c0,0,0-0.1,0-0.1c0-0.1,0.1-0.3,0.1-0.4c0,0,0,0,0,0c1.8-8.5,8.5-15.3,17.1-17c2.2-0.4,4.4-0.5,6.5-0.3C38.8,0.5,35.5,0,32,0
			c-5.1,0-10,1.2-14.3,3.4C17,3.9,16.4,4.4,15.8,5C8.1,12.7,7.4,24.7,13.6,33.3z"/>
		<path class="st2" d="M12.8,43.5c2.2,1.2,4.5,2,7.1,2.4c-3.6-3.1-5.9-7.6-6.3-12.7C7.4,24.7,8.1,12.7,15.8,5
			c0.6-0.6,1.2-1.1,1.8-1.6c-0.1,0-0.2,0.1-0.2,0.1C10,7.3,4.3,13.9,1.6,21.9c-0.1,0.8-0.1,1.6-0.1,2.5C1.5,32.6,6,39.8,12.8,43.5z"
			/>
		<path class="st3" d="M26.5,53.7c2.4-0.7,4.6-1.8,6.7-3.3c0,0,0,0,0,0c-0.4,0-0.8,0-1.3,0c-4.7,0-8.9-1.7-12.2-4.6
			c-2.5-0.4-4.9-1.2-7.1-2.4C6,39.8,1.5,32.6,1.5,24.4c0-0.8,0-1.7,0.1-2.5c0,0.1-0.1,0.3-0.1,0.4C0.5,25.3,0,28.6,0,32
			c0,5.1,1.2,10,3.4,14.3C3.9,47,4.4,47.6,5,48.2C10.9,54,19.2,55.8,26.5,53.7z"/>
		<path class="st4" d="M60.6,17.7c-0.5-0.6-1.1-1.3-1.6-1.9c-5.8-5.8-14.1-7.7-21.5-5.5c-2.4,0.7-4.6,1.8-6.7,3.3c0.4,0,0.8,0,1.2,0
			c4.7,0,8.9,1.7,12.2,4.6c2.5,0.4,4.9,1.3,7.1,2.4c6.7,3.7,11.3,10.9,11.3,19.1c0,0.8,0,1.7-0.1,2.5c0.1-0.2,0.1-0.3,0.2-0.5
			c1-3,1.5-6.3,1.5-9.7C64,26.9,62.8,22,60.6,17.7z"/>
		<path class="st5" d="M35.4,1.8c-8.6,1.7-15.3,8.4-17.1,17c0,0,0,0,0,0c0,0.1-0.1,0.3-0.1,0.4c0,0,0,0.1,0,0.1c0,0.1,0,0.3-0.1,0.4
			c0,0,0,0.1,0,0.1c0,0,0,0,0,0c3.1-3.6,7.6-6,12.7-6.3c2.1-1.5,4.4-2.6,6.7-3.3C44.9,8.2,53.1,10,59,15.8c0.6,0.6,1.1,1.2,1.6,1.9
			c-0.1-0.2-0.2-0.3-0.2-0.5C56.6,9.9,50,4.3,42.1,1.6c-0.1,0-0.1,0-0.2-0.1C39.7,1.4,37.5,1.4,35.4,1.8z"/>
		<path class="st6" d="M53.7,37.4c-0.7-2.3-1.8-4.6-3.2-6.7c0,0.4,0,0.8,0,1.3c0,4.7-1.7,8.9-4.6,12.2c-0.4,2.5-1.3,4.9-2.4,7.1
			C39.8,58,32.6,62.5,24.4,62.5c-0.8,0-1.7,0-2.5-0.1c0.1,0,0.2,0.1,0.3,0.1c3.1,1,6.4,1.5,9.8,1.5c5.1,0,10-1.2,14.3-3.4
			c0.6-0.5,1.3-1.1,1.9-1.6C54,53.1,55.8,44.8,53.7,37.4z"/>
		<path class="st7" d="M51.2,20.5c-2.2-1.2-4.5-2-7.1-2.4c3.6,3.1,6,7.6,6.3,12.7c1.5,2.1,2.6,4.3,3.2,6.7
			c2.2,7.4,0.3,15.7-5.5,21.6c-0.6,0.6-1.2,1.1-1.9,1.6c0.2-0.1,0.4-0.2,0.7-0.3c7.2-3.8,12.8-10.3,15.4-18.2
			c0.1-0.8,0.1-1.6,0.1-2.5C62.5,31.4,58,24.2,51.2,20.5z"/>
	</g>
</g>
</svg>
