<?xml version="1.0" encoding="utf-8"?>
<!-- Generator: Adobe Illustrator 24.0.1, SVG Export Plug-In . SVG Version: 6.00 Build 0)  -->
<svg version="1.1" id="Camada_1" xmlns="http://www.w3.org/2000/svg" xmlns:xlink="http://www.w3.org/1999/xlink" x="0px" y="0px"
	 viewBox="0 0 64 64" style="enable-background:new 0 0 64 64;" xml:space="preserve">
<style type="text/css">
	.st0{fill:#424242;}
</style>
<path class="st0" d="M0,59.4c0.8-0.2,1.7-0.3,2.5-0.6c1.1-0.4,1.8-1.1,2.2-2.2C11,40.7,17.3,24.9,23.5,9c0.1-0.4,0.1-0.9,0-1.3
	c-0.7-1.9-1.5-3.7-2.2-5.6c-0.1-0.2-0.1-0.4-0.2-0.7c0.3,0,0.5,0,0.7,0c4.8,0,9.7,0,14.5,0c0.5,0,0.7,0.1,0.9,0.6
	c7.2,18,14.4,35.9,21.6,53.9c0.8,2,2.2,2.9,4.1,3.3c0.4,0.1,0.9,0.2,1.3,0.2c0,1,0,2.1,0,3.1c-0.1,0-0.2,0-0.2,0
	c-9.3,0-18.6,0-27.9,0c-0.2,0-0.3,0-0.5,0c0-1,0-2,0-3c0.8-0.1,1.5-0.1,2.2-0.2c1.2-0.1,2.3-0.3,3.4-1c0.9-0.6,1.5-1.5,1.4-2.6
	c-0.1-1.3-0.4-2.6-0.8-3.8c-0.8-2.4-1.9-4.8-2.8-7.2c-0.2-0.5-0.4-0.6-0.9-0.6c-7,0-14,0-21.1,0c-0.5,0-0.7,0.1-0.9,0.6
	c-1.1,2.9-2.2,5.8-3.4,8.8c-0.2,0.5-0.4,1-0.5,1.5c-0.4,2,0.3,3.2,2.2,3.8c0.6,0.2,1.2,0.3,1.8,0.4c0.7,0.1,1.4,0.2,2.1,0.2
	c0,1.1,0,2.1,0,3.1c-0.1,0-0.3,0-0.4,0c-5.9,0-11.9,0-17.8,0C0,61.5,0,60.5,0,59.4z M35.9,38.2c-3-7.5-6-14.9-9-22.3
	c-2.9,7.5-5.8,14.9-8.7,22.3C24.2,38.2,30,38.2,35.9,38.2z"/>
</svg>
