<?xml version="1.0" encoding="utf-8"?>
<!-- Generator: Adobe Illustrator 24.0.1, SVG Export Plug-In . SVG Version: 6.00 Build 0)  -->
<svg version="1.1" id="Camada_1" xmlns="http://www.w3.org/2000/svg" xmlns:xlink="http://www.w3.org/1999/xlink" x="0px" y="0px"
	 viewBox="0 0 64 64" style="enable-background:new 0 0 64 64;" xml:space="preserve">
<style type="text/css">
	.st0{fill:#60D937;}
	.st1{fill:#020851;}
</style>
<g>
	<path class="st0" d="M56,18.5c4.1,0,7.4-3.3,7.4-7.4S60.1,3.6,56,3.6s-7.4,3.3-7.4,7.4S51.9,18.5,56,18.5z"/>
	<path class="st1" d="M31.6,23.3v13.4h11.2c-1.5,1.7-2.9,3.4-4.4,5c-4.4,4.8-11.5,5.7-17.2,2.4c-5.4-3.1-8-9.9-6.2-15.9
		c1.9-6.1,7.2-10.1,13.6-10.1c1,0,2.2,0,3.4,0v-14c-1.6,0-3.1,0-4.3,0s-2.4,0.1-3.5,0.3C7.5,7-3.1,23.3,1.5,39.5
		c2.9,10.4,9.9,17.2,20.4,19.7c10.8,2.6,20.1-0.5,27.6-8.7c0.7-0.8,1.4-1.6,2.1-2.4v11.4h12V36.7V23.3H31.6z"/>
</g>
</svg>
