<?xml version="1.0" encoding="utf-8"?>
<!-- Generator: Adobe Illustrator 24.0.1, SVG Export Plug-In . SVG Version: 6.00 Build 0)  -->
<svg version="1.1" id="Camada_1" xmlns="http://www.w3.org/2000/svg" xmlns:xlink="http://www.w3.org/1999/xlink" x="0px" y="0px"
	 viewBox="0 0 64 64" style="enable-background:new 0 0 64 64;" xml:space="preserve">
<style type="text/css">
	.st0{fill:#40BA9B;}
</style>
<g>
	<g>
		<path class="st0" d="M0,64C0,42.6,0,21.3,0,0c21.3,0,42.6,0,64,0c0,21.3,0,42.6,0,64C42.7,64,21.4,64,0,64z M6,6
			c0,17.4,0,34.7,0,52c17.4,0,34.7,0,52,0c0-17.4,0-34.7,0-52C40.7,6,23.4,6,6,6z"/>
	</g>
	<g>
		<path class="st0" d="M27.5,37.3c1.8,3.2,3.9,6.2,6.4,8.8c1.1,1.2,1.8,1.5,3.6,1.9c0.2,1.1,0.2,1.2-0.9,1.4
			c-2.8,0.4-5.1-0.6-6.8-2.8c-1.9-2.6-3.7-5.4-5.4-8.1c-0.4-0.6-0.7-0.8-1.3-0.8c-0.7,0.1-1.3,0-2.1,0c0,0.3-0.1,0.5-0.1,0.8
			c0,2.2,0,4.4,0,6.5c0,1.9,0.7,2.5,2.6,2.7c0.4,0,0.8,0.1,1.2,0.2c0,0.4,0,0.8,0,1.2c-3.4,0-6.8,0-10.2,0c0-0.4,0-0.7,0-1.2
			c0.6-0.2,1.2-0.3,1.8-0.5c0.8-0.2,1.2-0.8,1.2-1.6c0.1-2.2,0.2-4.4,0.2-6.6c0-3.4,0-6.9,0-10.3c0-0.8-0.1-1.5-0.2-2.3
			c-0.2-1.1-1.1-1.5-2-1.6c-1-0.1-1.3-0.5-1-1.4c1,0,2,0,3,0c2.3,0,4.5-0.1,6.8-0.1c2,0,4,0.2,5.8,1.3c1.3,0.8,2.3,1.9,2.7,3.4
			c0.6,2.1,0.4,4.1-0.9,5.8c-0.8,1-1.9,1.8-2.9,2.6C28.6,36.9,28.1,37,27.5,37.3z M21,35.7c1.2,0,2.4,0.1,3.6,0
			c2.8-0.2,4.5-1.9,4.9-4.3c0.3-1.8-0.3-4.3-2.3-5.2c-2-0.9-4.1-0.7-6.2-0.6C21,29,21,32.3,21,35.7z"/>
	</g>
	<g>
		<path class="st0" d="M44.2,22.8c-1.1,0-1.9,0-2.7,0c0-0.6,0-1.1,0-1.6c1.5,0,2.9,0,4.5,0c0,2.2,0.3,4.4-1.5,6.2
			c-0.2,0.2-0.6,0.4-0.9,0.5c-1.3,0.3-2.6,0.7-4,0.4c-1.6-0.3-3.1-1.7-3.2-3.2c-0.2-2.4-0.2-4.8,0-7.2c0.1-1.4,1.7-2.9,3.3-3.2
			c1.7-0.3,3.4-0.3,4.8,0.8c0.5,0.4,0.9,0.9,1.4,1.5c-0.6,0.4-1.1,0.8-1.5,1c-1-0.5-1.8-1.2-2.7-1.5c-1.1-0.4-2.7,0.4-3,1.5
			c-0.5,2.3-0.6,4.6,0.1,6.9c0.3,1,1.2,1.5,2.1,1.5c1,0,2-0.4,2.5-1.4C43.7,24.5,43.9,23.7,44.2,22.8z"/>
	</g>
</g>
</svg>
