<?xml version="1.0" encoding="utf-8"?>
<!-- Generator: Adobe Illustrator 24.0.1, SVG Export Plug-In . SVG Version: 6.00 Build 0)  -->
<svg version="1.1" id="Camada_1" xmlns="http://www.w3.org/2000/svg" xmlns:xlink="http://www.w3.org/1999/xlink" x="0px" y="0px"
	 viewBox="0 0 64 64" style="enable-background:new 0 0 64 64;" xml:space="preserve">
<style type="text/css">
	.st0{fill:#A5CD39;}
	.st1{fill:#B0D350;}
	.st2{fill:#ADD149;}
	.st3{fill:#AED24B;}
	.st4{fill:#BFDB71;}
	.st5{fill:#C3DD7A;}
	.st6{fill:#C7E085;}
	.st7{fill:#BDDA6E;}
	.st8{fill:#CDE391;}
	.st9{fill:#D0E597;}
	.st10{fill:#B4D659;}
	.st11{fill:#E7F1CA;}
	.st12{fill:#B3D558;}
	.st13{fill:#BCDA6B;}
	.st14{fill:#C0DC74;}
	.st15{fill:#FEFEFE;}
</style>
<g>
	<path class="st0" d="M33.7,64c-0.2,0-0.4,0-0.6,0c-0.2-0.1-0.3-0.1-0.5,0c-0.3,0-0.6,0-0.8,0c-0.2-0.1-0.5,0-0.7,0
		c-0.1,0-0.3,0-0.4,0c-0.2,0-0.4,0-0.5,0c-0.1,0-0.2,0-0.3,0c-0.8-0.1-1.5-0.1-2.3-0.2c-0.8,0-1.5-0.2-2.2-0.3
		c-2.7-0.6-5.3-1.5-7.8-2.7c-2.8-1.4-5.4-3.2-7.7-5.4c-2.3-2.2-4.2-4.6-5.7-7.3c-2-3.4-3.3-7.1-3.9-11c-0.1-0.8-0.1-1.7-0.2-2.5
		c0-0.1,0-0.2,0-0.3c0-0.1,0-0.2,0-0.3c0.1-0.2,0-0.3,0-0.5c0-0.1,0-0.3,0-0.4c0-0.2,0-0.4,0-0.6c0-0.2,0-0.4,0-0.7
		c0.1-0.2,0.1-0.4,0-0.7c0-0.1,0-0.2,0-0.3c0.1-0.2,0.1-0.3,0-0.5c0-0.1,0-0.3,0-0.4c0.1-0.7,0.1-1.5,0.1-2.2
		c0.1-1.6,0.5-3.1,0.9-4.5c1.2-4.2,3.1-7.9,5.9-11.3c1.9-2.4,4.2-4.5,6.7-6.3c3.1-2.2,6.5-3.8,10.2-4.7c1.7-0.4,3.3-0.8,5.1-0.8
		c0.3,0,0.7,0,1-0.1c0.2,0,0.3,0,0.5,0c0.2,0.1,0.3,0,0.5,0c0.1,0,0.3,0,0.4,0c0.4,0,0.9,0,1.3,0c0.1,0.1,0.3,0,0.4,0
		c0.2,0,0.3,0,0.5,0c0.2,0,0.3,0,0.5,0c0.8,0.1,1.5,0.1,2.3,0.1c1.5,0.1,3,0.5,4.4,0.9c3.3,0.9,6.3,2.3,9.1,4.2
		c1.5,1,2.9,2.2,4.2,3.4c2.2,2,4,4.3,5.5,6.9c2.1,3.5,3.5,7.4,4.1,11.4c0.1,0.8,0.1,1.7,0.2,2.5c0,0.1,0,0.2,0,0.3
		c0,0.3,0,0.5,0,0.8c-0.1,0.2,0,0.3,0,0.5c0,0.2,0,0.4,0,0.6c0,0.2,0,0.4,0,0.7c-0.1,0.2,0,0.4,0,0.6c0,0.2,0,0.4,0,0.6
		c0,0.2,0,0.4,0,0.7c-0.1,0.7-0.1,1.5-0.1,2.2c-0.1,1.5-0.5,3-0.9,4.5c-0.9,3.2-2.3,6.2-4.1,9c-1.1,1.6-2.3,3.1-3.6,4.4
		c-1.6,1.7-3.4,3.2-5.4,4.6c-2.9,2-6.1,3.4-9.6,4.3c-2,0.5-4.1,0.8-6.1,0.8C34,64,33.8,63.9,33.7,64z"/>
	<path class="st1" d="M31,63.9c0.3,0,0.5-0.1,0.8,0.1C31.5,64,31.3,64,31,63.9C30.9,64,30.9,64,31,63.9z"/>
	<path class="st2" d="M0,31c0.1,0.2,0.1,0.4,0,0.7C0,31.4,0,31.2,0,31z"/>
	<path class="st3" d="M64,31.7c-0.1-0.2-0.1-0.4-0.1-0.6c0-0.1,0.1-0.1,0.1,0C64,31.3,64,31.5,64,31.7z"/>
	<path class="st2" d="M0,32.3c0.1,0.2,0.1,0.4,0.1,0.6C0,33,0,33,0,32.9C0,32.7,0,32.5,0,32.3z"/>
	<path class="st3" d="M63.9,32.9c0-0.2,0-0.4,0.1-0.6C64,32.5,64,32.7,63.9,32.9C64,33,64,33,63.9,32.9z"/>
	<path class="st4" d="M63.9,32.9C63.9,32.9,64,32.9,63.9,32.9c0.1,0.2,0.1,0.4,0.1,0.6C63.9,33.3,63.9,33.1,63.9,32.9z"/>
	<path class="st5" d="M30.9,0.1c-0.2,0-0.3,0.1-0.5-0.1C30.6,0,30.8,0,30.9,0.1C31,0,31,0.1,30.9,0.1z"/>
	<path class="st5" d="M33.6,0c-0.1,0.1-0.3,0.1-0.5,0.1c-0.1,0-0.1,0,0-0.1C33.3,0,33.4,0,33.6,0z"/>
	<path class="st6" d="M0,30.2c0.1,0.2,0.1,0.3,0,0.5C0,30.6,0,30.4,0,30.2z"/>
	<path class="st7" d="M64,31.1C64,31.1,63.9,31.1,64,31.1c-0.1-0.2-0.1-0.4,0-0.5C64,30.7,64,30.9,64,31.1z"/>
	<path class="st8" d="M0.1,33.3c0,0.2,0.1,0.3-0.1,0.5C0,33.7,0,33.5,0.1,33.3C0,33.3,0.1,33.3,0.1,33.3z"/>
	<path class="st9" d="M30.1,64c0.1-0.2,0.3-0.1,0.5-0.1c0.1,0,0.1,0,0,0.1C30.4,64,30.3,64,30.1,64z"/>
	<path class="st10" d="M32.6,64c0.2-0.1,0.3-0.1,0.5,0C32.9,64,32.8,64,32.6,64z"/>
	<path class="st11" d="M34.2,63.9C34.2,64,34.2,64,34.2,63.9C34,64,33.8,64,33.7,64C33.8,63.9,34,63.9,34.2,63.9z"/>
	<path class="st12" d="M30.9,0.1C30.9,0,30.9,0,30.9,0.1C31.1,0,31.2,0,31.3,0C31.2,0.1,31.1,0.1,30.9,0.1z"/>
	<path class="st12" d="M33.1,0C33.1,0,33.1,0,33.1,0c-0.1,0.1-0.3,0.1-0.4,0C32.8,0,32.9,0,33.1,0z"/>
	<path class="st13" d="M0.1,33.3C0,33.3,0,33.3,0.1,33.3C0,33.2,0,33.1,0,32.9c0,0,0.1,0,0.1,0C0.1,33.1,0.1,33.2,0.1,33.3z"/>
	<path class="st14" d="M30.6,64C30.6,64,30.6,64,30.6,64c0.1-0.1,0.3-0.1,0.4-0.1c0,0,0,0.1,0,0.1C30.9,64,30.7,64,30.6,64z"/>
	<path class="st15" d="M33.7,19.8c1.6,0,3.5-0.1,5.4,0.1c6.5,0.5,11,4.4,12.4,10.2c1.7,7.4-2.8,14.5-10.2,16.2
		c-1.2,0.3-2.4,0.4-3.7,0.4c-3.3,0-6.6,0-10,0c-0.4,0-0.5-0.1-0.5-0.5c0-8.6,0-17.2,0-25.9c0-0.4,0.1-0.5,0.5-0.5
		C29.6,19.8,31.5,19.8,33.7,19.8z"/>
	<path class="st15" d="M17.7,33.1c0-4.3,0-8.6,0-12.8c0-0.4,0.1-0.6,0.5-0.5c1,0,1.9,0,2.9,0c0.4,0,0.4,0.1,0.4,0.4c0,6,0,12,0,18
		c0,2.6,0,5.2,0,7.9c0,0.4-0.1,0.5-0.5,0.5c-1,0-1.9,0-2.9,0c-0.4,0-0.4-0.1-0.4-0.4C17.7,41.8,17.7,37.5,17.7,33.1z"/>
	<path class="st15" d="M22.2,14.2c0,1.4-1.2,2.5-2.5,2.5c-1.4,0-2.5-1.2-2.5-2.5c0-1.4,1.1-2.5,2.5-2.5
		C21.1,11.7,22.2,12.8,22.2,14.2z"/>
	<path class="st0" d="M31.1,33.2c0-3.2,0-6.3,0-9.5c0-0.3,0.1-0.5,0.4-0.5c2,0,4,0,6,0c1.7,0,3.4,0.3,4.9,1c2.7,1.2,4.4,3.3,5.1,6.2
		c0.6,2.3,0.4,4.5-0.5,6.6c-1.4,3.4-4,5.3-7.6,5.9c-0.8,0.1-1.6,0.2-2.4,0.2c-1.9,0-3.7,0-5.6,0c-0.3,0-0.4-0.1-0.4-0.4
		C31.1,39.5,31.1,36.3,31.1,33.2z"/>
</g>
</svg>
