<?xml version="1.0" encoding="utf-8"?>
<!-- Generator: Adobe Illustrator 24.0.1, SVG Export Plug-In . SVG Version: 6.00 Build 0)  -->
<svg version="1.1" id="Camada_1" xmlns="http://www.w3.org/2000/svg" xmlns:xlink="http://www.w3.org/1999/xlink" x="0px" y="0px"
	 viewBox="0 0 64 64" style="enable-background:new 0 0 64 64;" xml:space="preserve">
<style type="text/css">
	.st0{fill:#E4E4E4;}
	.st1{opacity:0.2;fill:#FFFFFF;enable-background:new    ;}
	.st2{opacity:0.2;enable-background:new    ;}
	.st3{fill:none;stroke:#A81717;stroke-width:6;stroke-linecap:square;stroke-linejoin:round;}
</style>
<g>
	<path class="st0" d="M32.2,1.1c-1.3,0-2.6,0.3-3.8,0.9L7,14c-2.2,1.3-3.6,3.6-3.6,6.1v23.8c0,2.5,1.4,4.8,3.6,6.1l21.4,11.9
		c2.2,1.3,5,1.3,7.3,0l21.3-12c2.2-1.3,3.6-3.6,3.6-6.1V20c0-2.5-1.4-4.8-3.6-6.1L35.6,2.1C34.6,1.5,33.4,1.2,32.2,1.1L32.2,1.1z"/>
	<path class="st1" d="M32.2,1.1c-1.3,0-2.6,0.3-3.8,0.9L7,14c-2.2,1.3-3.6,3.6-3.6,6.1v1.1c0-2.5,1.4-4.8,3.6-6.1L28.4,3.2
		c1.2-0.6,2.5-1,3.8-0.9c1.2,0,2.4,0.3,3.5,0.9L57,15.1c2.2,1.3,3.6,3.6,3.6,6.1v-1.1c0-2.5-1.4-4.8-3.6-6.1L35.6,2.1
		C34.6,1.5,33.4,1.2,32.2,1.1z"/>
	<path class="st2" d="M3.4,42.7C3.4,42.8,3.4,42.8,3.4,42.7L3.4,42.7L3.4,42.7z M3.4,43.8v1.1c0,2.5,1.4,4.8,3.6,6.1l21.4,11.9
		c2.2,1.3,5,1.3,7.3,0L57,51c2.2-1.3,3.6-3.6,3.6-6.1v-1.1c0,2.5-1.4,4.8-3.6,6.1L35.6,61.8c-2.2,1.3-5,1.3-7.3,0L7,49.9
		C4.8,48.7,3.4,46.3,3.4,43.8z"/>
	<path class="st3" d="M18.8,16.5h26.4L18.8,47.4h26.3"/>
</g>
</svg>
