<?xml version="1.0" encoding="utf-8"?>
<!-- Generator: Adobe Illustrator 24.0.1, SVG Export Plug-In . SVG Version: 6.00 Build 0)  -->
<svg version="1.1" id="Camada_1" xmlns="http://www.w3.org/2000/svg" xmlns:xlink="http://www.w3.org/1999/xlink" x="0px" y="0px"
	 viewBox="0 0 64 64" style="enable-background:new 0 0 64 64;" xml:space="preserve">
<style type="text/css">
	.st0{fill:#4285F4;}
	.st1{fill:#FFFFFF;}
</style>
<g>
	<path class="st0" d="M9.6,0h44.8C59.7,0,64,4.3,64,9.6v44.8c0,5.3-4.3,9.6-9.6,9.6H9.6C4.3,64,0,59.7,0,54.4V9.6C0,4.3,4.3,0,9.6,0
		z"/>
	<path class="st1" d="M26.6,13.9L13.3,25.6h8.6c0.6,5.6,5.1,8,9.8,8.4c-0.9,2.3-0.5,3.4,0.9,4.9c-5.4,0.1-12.9,3.3-12.9,8.4
		c0.5,5.6,7.9,6.8,11.5,6.8c4.8,0.1,10.1-2.4,11.3-6.8c0.5-4.4-1.3-6.8-3.9-8.9c-2.9-2.3-3.5-3.5-2.6-5c1.9-2.1,4.4-3.4,4.9-6.4
		c0.3-2.1-0.3-3.5-0.8-5.4l5.6-4.8l-0.1,2c-0.4,0.3-0.6,0.8-0.6,1.1v12.9c0.3,1.6,2.8,1.4,2.9,0V20c0-0.4-0.3-0.9-0.6-1v-3.1l2-2
		H26.6z M33.9,31.5c-7.6,1.3-10.9-10.9-4.8-12.4C36.1,17.8,39.5,29.9,33.9,31.5z M33.3,40.6c7.5,1.6,7.6,7.9,1.3,9.8
		c-5.5,1.1-10.3-0.5-10.1-3.8C24.4,43.5,28.8,40.6,33.3,40.6z"/>
</g>
</svg>
