<?xml version="1.0" encoding="utf-8"?>
<!-- Generator: Adobe Illustrator 24.0.1, SVG Export Plug-In . SVG Version: 6.00 Build 0)  -->
<svg version="1.1" id="Camada_1" xmlns="http://www.w3.org/2000/svg" xmlns:xlink="http://www.w3.org/1999/xlink" x="0px" y="0px"
	 viewBox="0 0 64 64" style="enable-background:new 0 0 64 64;" xml:space="preserve">
<style type="text/css">
	.st0{clip-path:url(#SVGID_2_);fill:#336698;}
	.st1{clip-path:url(#SVGID_4_);fill:#2E5C88;}
	.st2{fill:#FEFEFE;}
	.st3{fill:#305D8A;}
	.st4{fill:#2E5C88;}
</style>
<g>
	<g id="Camada_2_1_">
		<g>
			<g>
				<defs>
					<path id="SVGID_1_" d="M52.6,64H11.4C5.1,64,0,58.9,0,52.6V11.4C0,5.1,5.1,0,11.4,0h41.2C58.9,0,64,5.1,64,11.4v41.2
						C64,58.9,58.9,64,52.6,64z"/>
				</defs>
				<clipPath id="SVGID_2_">
					<use xlink:href="#SVGID_1_"  style="overflow:visible;"/>
				</clipPath>
				<path class="st0" d="M52.6,64H11.4C5.1,64,0,58.9,0,52.6V11.4C0,5.1,5.1,0,11.4,0h41.2C58.9,0,64,5.1,64,11.4v41.2
					C64,58.9,58.9,64,52.6,64z"/>
			</g>
			<g>
				<defs>
					<path id="SVGID_3_" d="M52.6,64H11.4C5.1,64,0,58.9,0,52.6V11.4C0,5.1,5.1,0,11.4,0h41.2C58.9,0,64,5.1,64,11.4v41.2
						C64,58.9,58.9,64,52.6,64z"/>
				</defs>
				<clipPath id="SVGID_4_">
					<use xlink:href="#SVGID_3_"  style="overflow:visible;"/>
				</clipPath>
				<path class="st1" d="M33.3,64c-0.2-0.2-0.3-0.4-0.5-0.6c-4.1-4.1-8.2-8.2-12.3-12.3c-0.2-0.2-0.4-0.4-0.5-0.6
					c0.2-0.3,0.6-0.4,0.9-0.4c2.1,0,4.2-0.3,6.3-0.1c1.4,0.1,2.8,0,4.2,0.1c0.5,0,0.6-0.1,0.7-0.6c0-0.5-0.1-0.7-0.6-0.7
					c-0.6,0-1.2,0-1.8-0.1c-0.6-0.1-0.9-0.4-1-1c-0.1-0.5-0.2-0.9-0.2-1.4c0.1-3.1-0.2-6.1-0.1-9.2c0-0.2,0-0.5,0-0.7
					c0.1-0.6,0.3-0.8,0.9-0.6c0.7,0.2,1.5,0.4,2.3,0.5c4.7,0.7,8.7-1.4,10.9-5.4c1.9-3.3,2.2-6.8,1.5-10.5c-0.2-0.8-0.6-1.5-0.9-2.2
					C43,18,42.9,17.8,43,17.6c0.3-0.1,0.4,0.2,0.6,0.4c6.7,6.7,13.4,13.3,20,20c0.2,0.2,0.4,0.4,0.6,0.5c0,8.3,0,16.6,0,24.9
					c0,0.4-0.1,0.5-0.5,0.5C53.4,64,43.4,64,33.3,64z"/>
			</g>
		</g>
	</g>
	<g id="Camada_1_1_">
		<path class="st2" d="M42.8,17.6c3.2,5.5,1.7,13.3-3.3,17c-3.2,2.4-6.7,2.6-10.4,1.4c-0.5-0.2-0.6-0.1-0.6,0.4
			c0.1,3.2,0.1,6.4,0.1,9.7c0,0.6,0.1,1.1,0.2,1.7c0.1,0.4,0.4,0.7,0.9,0.7c0.7,0,1.3,0.1,2,0c0.5,0,0.7,0.1,0.6,0.6
			c-0.1,1.4,0.3,1.4-1.4,1.3c-3.7-0.2-7.4-0.2-11,0.1c-0.4-0.1-0.3-0.5-0.3-0.8c0-1.3-0.1-1.1,1.1-1.2c0.3,0,0.7,0,1,0
			c0.7-0.1,1-0.3,1.2-1c0.2-0.9,0.2-1.8,0.2-2.8c0-7.7,0-15.4,0-23c0-0.2,0-0.4-0.1-0.6c-0.4-0.9-1-1.6-1.8-2
			c-0.3-0.2-0.5-0.4-0.7-0.6s-0.6-0.3-0.7-0.6c-0.1-0.6,0-0.9,0.6-1.1c1.9-0.8,3.8-1.7,5.7-2.5c0.3-0.1,0.7-0.2,1-0.4
			c0.5-0.2,0.9,0,1,0.5c0.5,0.4,0.4,1,0.5,1.6c0.1,0.4,0.2,0.4,0.4,0.2c0.2-0.2,0.4-0.4,0.7-0.3c1.6-1.1,3.3-1.9,5.3-2
			c2.9-0.2,5.2,0.9,7.1,3.1C42.3,17.1,42.6,17.4,42.8,17.6z"/>
		<path class="st3" d="M29.7,15.7c-0.4,0.4-0.8,0.8-1.2,1.2c-0.2-0.9-0.3-1.8-0.4-2.7C28.8,14.6,29.1,15.3,29.7,15.7z"/>
		<path class="st3" d="M20.4,18.4c0.6,0.2,1.1,0.5,1.6,0.9c0.6,0.4,1,1,1,1.8c-0.8-0.8-1.7-1.6-2.5-2.4
			C20.4,18.6,20.4,18.5,20.4,18.4z"/>
		<path class="st4" d="M28.5,25.2c0-1.9,0-3.8,0-5.7c0-0.3,0.1-0.6,0.3-0.8c1.9-2.2,5.9-3.1,8.3,0.4c1.2,1.8,1.6,3.8,1.9,6
			c0.2,2,0.2,4.1-0.6,6c-0.6,1.7-1.6,3.1-3.5,3.4c-2,0.4-3.9,0-5.5-1.4c-0.7-0.6-0.9-1.4-0.9-2.2C28.5,29,28.5,27.1,28.5,25.2
			L28.5,25.2z"/>
	</g>
</g>
</svg>
