<?xml version="1.0" encoding="utf-8"?>
<!-- Generator: Adobe Illustrator 24.0.1, SVG Export Plug-In . SVG Version: 6.00 Build 0)  -->
<svg version="1.1" id="Camada_1" xmlns="http://www.w3.org/2000/svg" xmlns:xlink="http://www.w3.org/1999/xlink" x="0px" y="0px"
	 viewBox="0 0 64 64" style="enable-background:new 0 0 64 64;" xml:space="preserve">
<style type="text/css">
	.st0{fill:#355E85;}
</style>
<g>
	<path class="st0" d="M50.4,24.1c0-1.6-0.1-3-0.5-4.3c-0.4-1.3-0.9-2.6-1.4-3.9c-0.2-0.5-0.2-1.1-0.3-1.7c0-0.3,0.2-0.5,0.5-0.4
		c0.7,0.2,1.1,0.8,1.5,1.3c1.2,1.3,2.4,2.7,3.5,4.1c1,1.2,1.8,2.6,2.5,4.1c0.4,0.9,0.8,1.8,1.1,2.7c0.4,1,0.7,2.1,0.8,3.2
		c0,0.4,0.2,0.9,0.2,1.3c0.1,0.5,0.1,0.9,0.1,1.4c0,1.1,0,2.1-0.1,3.2c-0.1,0.8-0.2,1.7-0.5,2.5c-0.3,0.6-0.4,1.2-0.6,1.8
		c-0.7,1.9-1.6,3.7-2.7,5.4c-1.5,2.4-3.3,4.4-5.4,6.3c-1.7,1.5-3.5,2.9-5.4,4.1c-1.4,0.9-2.8,1.6-4.3,2.4c-1.4,0.7-2.8,1.3-4.2,2
		c-0.8,0.3-1.7,0.6-2.5,0.9c-0.7,0.2-1.4,0.5-2.1,0.7c-0.8,0.2-1.5,0.5-2.3,0.7c-0.9,0.3-1.8,0.5-2.7,0.7c-1,0.2-2,0.4-3,0.7
		c-0.8,0.2-1.6,0.3-2.5,0.5c-0.7,0.1-1.4,0.3-2.2,0.4c-0.1,0-0.4-0.1-0.4-0.2c-0.4-0.9-0.7-1.9-1.1-2.9c-0.4-0.9-0.7-1.9-1.1-2.8
		c-0.3-0.8-0.6-1.7-1-2.5c-0.4-1.2-0.9-2.3-1.3-3.5c-0.4-1-0.7-1.9-1.1-2.9c-0.3-0.8-0.6-1.6-0.9-2.5c-0.3-0.8-0.6-1.6-0.9-2.3
		c-0.3-0.8-0.6-1.6-0.9-2.4c-0.3-0.8-0.6-1.7-0.9-2.5C8,38.7,7.7,38,7.5,37.2c-0.2-0.5-0.4-1.1-0.6-1.6c-0.1-0.3,0-0.4,0.3-0.3
		c0.7,0.2,1.3,0.3,2,0.5c0.7,0.2,1.5,0.4,2.2,0.6c1.5,0.4,2.9,0.7,4.4,1c3,0.6,6,0.9,9.1,1c0.6,0,1.2,0.1,1.7,0.1
		c1.5-0.1,3-0.1,4.5-0.3c1.9-0.2,3.7-0.5,5.5-1c2.4-0.7,4.8-1.6,6.9-2.9c2.1-1.3,3.9-2.8,5.2-4.9C49.8,27.7,50.4,25.9,50.4,24.1z"/>
	<path class="st0" d="M23.4,17.7c0.1,1.2,0.2,2.4,0.4,3.5c0.2,1.4,0.5,2.8,0.8,4.2c0.3,1.2,0.6,2.4,1,3.6c0.3,1,0.6,2,1,2.9
		c0.4,1,0.8,1.9,1.1,2.8c0.2,0.5,0.3,0.9,0.5,1.4c0.1,0.2,0.2,0.4,0.3,0.6c0.1,0.3,0,0.5-0.4,0.5c-0.3,0-0.6,0-0.9-0.1
		c-1.6-0.3-3.3-0.6-4.9-0.9c-0.9-0.2-1.8-0.3-2.7-0.5c-1.4-0.3-2.9-0.5-4.3-0.8c-1.3-0.2-2.5-0.5-3.8-0.7c-1.3-0.2-2.6-0.5-3.9-0.7
		c-0.5-0.1-0.7-0.3-0.8-0.9c-0.2-0.9-0.4-1.8-0.5-2.7c-0.2-0.9-0.3-1.8-0.4-2.7c-0.1-0.8-0.2-1.5-0.3-2.3c-0.2-2.5-0.3-5.1,0-7.6
		c0.2-1.4,0.4-2.8,0.8-4.2c0.3-1.2,0.8-2.4,1.4-3.5c0.7-1.4,1.6-2.8,2.6-4c1.3-1.5,2.8-2.7,4.5-3.6c1.4-0.8,2.8-1.3,4.4-1.6
		c1.2-0.3,2.4-0.5,3.6-0.7C23.2,0,23.6,0,24,0c2.1-0.1,4.1,0.1,6.2,0.4c2.1,0.3,4.1,0.7,6.1,1.4c1.4,0.5,2.8,0.9,4.2,1.4
		c1.4,0.5,2.8,1.2,4.1,1.8c0.5,0.2,1.1,0.4,1.5,0.7c0.3,0.2,0.5,0.4,0.6,0.7c0.1,0.2,0,0.4-0.2,0.4c-0.5,0.1-1,0.3-1.5,0.2
		c-1.4-0.1-2.8-0.3-4.2-0.5c-2-0.3-4-0.4-6-0.3c-1.5,0-3,0.3-4.4,0.7c-1.3,0.4-2.6,0.9-3.7,1.7c-0.8,0.6-1.3,1.3-1.8,2.1
		c-0.5,0.8-0.8,1.6-1,2.5c-0.2,0.8-0.3,1.6-0.4,2.4c-0.1,0.7,0,1.4,0,2.1C23.5,17.7,23.4,17.7,23.4,17.7z"/>
	<path class="st0" d="M46.5,22.7c-0.1,0.6-0.2,1.1-0.2,1.5c-0.1,0.8-0.4,1.5-0.8,2.1c-0.5,0.7-1,1.3-1.7,1.8c-1,0.7-2.2,1.1-3.4,1.4
		c-0.9,0.2-1.8,0.2-2.8,0.1c-0.8-0.2-1.7-0.3-2.5-0.6c-0.7-0.2-1.5-0.6-2.2-1c-0.8-0.5-1.6-1-2.3-1.6c-1.4-1.2-2.6-2.5-3.3-4.3
		c-0.5-1.3-0.9-2.6-0.8-4c0-0.9,0.3-1.6,0.6-2.4c0.7-1.6,2-2.6,3.6-3.3c0.7-0.3,1.6-0.4,2.4-0.5c1.5-0.2,2.9,0.1,4.3,0.6
		c2.9,0.9,5.3,2.6,7.1,5c0.7,0.9,1.3,1.9,1.6,3.1C46.2,21.3,46.4,22.1,46.5,22.7z"/>
</g>
</svg>
