<?xml version="1.0" encoding="utf-8"?>
<!-- Generator: Adobe Illustrator 24.0.1, SVG Export Plug-In . SVG Version: 6.00 Build 0)  -->
<svg version="1.1" id="Layer_1" xmlns:sketch="http://www.bohemiancoding.com/sketch/ns"
	 xmlns="http://www.w3.org/2000/svg" xmlns:xlink="http://www.w3.org/1999/xlink" x="0px" y="0px" viewBox="0 0 64 64"
	 style="enable-background:new 0 0 64 64;" xml:space="preserve">
<style type="text/css">
	.st0{fill:#A81A26;}
</style>
<title>Black</title>
<desc>Created with Sketch.</desc>
<g id="Page-1" sketch:type="MSPage">
	<g id="Black" sketch:type="MSArtboardGroup">
		<path id="Fill-17-Copy-4" sketch:type="MSShapeGroup" class="st0" d="M31.9,24.4L31.9,24.4L31.9,24.4c3.5,0,6.3,2.8,6.3,6.3
			c0,2-0.9,3.7-2.3,4.8c-0.6,0.6-1.4,1-2.3,1.2C33,36.9,32.5,37,31.9,37l0,0l0,0c-0.6,0-1.2-0.1-1.7-0.3c-0.9-0.2-1.7-0.6-2.3-1.2
			c-1.4-1.2-2.3-2.9-2.3-4.8C25.6,27.2,28.4,24.4,31.9,24.4 M5.3,49.7c3.4,0.4,6.4-2,6.7-5.5c0.1-1.2-0.1-2.3-0.6-3.3
			C6.6,30.5,30,30.3,26,40.1c0,0,0,0,0,0.1c-1.9,3-0.9,6.9,2.3,8.7c1.2,0.7,2.4,0.9,3.6,0.9c1.2,0.1,2.5-0.2,3.6-0.9
			c3.1-1.8,4.1-5.7,2.3-8.7c0,0,0,0,0-0.1c-4-9.8,19.4-9.6,14.7,0.8c-0.5,1-0.7,2.1-0.6,3.3c0.3,3.5,3.3,5.9,6.7,5.5
			c1.5-0.2,2.8-0.9,3.8-2c0,0,1.6-1.3,1.6-4.6c0-2.7-1.6-4.2-1.6-4.2c-1.2-1.3-3-1.9-4.9-1.7c-4.3-0.1-5-3.5-3.8-9.9
			c0.5-1.1,0.7-2.4,0.6-3.6c0.1-3.3-1.5-6.5-4.6-8.3c-0.4-0.2-0.8-0.4-1.1-0.6c-0.1-0.1-0.2-0.1-0.3-0.1c-0.1-0.1-0.2-0.1-0.4-0.1
			c-1-0.3-2-0.5-3-0.5c-3.3,0-6.1,1.8-7.7,4.4c-2.2,2.4-3.2,3.9-5.4,3.9c-2.1,0-3.2-1.5-5.4-3.9c-1.6-2.6-4.4-4.3-7.7-4.4
			c-1.1,0-2.1,0.2-3,0.5c-0.1,0-0.3,0.1-0.4,0.1c-0.1,0.1-0.2,0.1-0.3,0.1c-0.4,0.2-0.8,0.3-1.1,0.6c-3,1.8-4.7,5-4.6,8.3
			c-0.1,1.2,0.2,2.4,0.6,3.6c1.2,6.4,0.6,9.8-3.8,9.9C4,37,2.4,37.9,0.8,39.5s-1.5,5.9,0,7.8C2.1,48.5,3.5,49.4,5.3,49.7"/>
	</g>
</g>
</svg>
