<?xml version="1.0" encoding="utf-8"?>
<!-- Generator: Adobe Illustrator 23.0.1, SVG Export Plug-In . SVG Version: 6.00 Build 0)  -->
<svg version="1.1" id="Camada_1" xmlns="http://www.w3.org/2000/svg" xmlns:xlink="http://www.w3.org/1999/xlink" x="0px" y="0px"
	 viewBox="0 0 60 50" style="enable-background:new 0 0 60 50;" xml:space="preserve">
<style type="text/css">
	.st0{fill:none;stroke:#AAE29F;stroke-width:1.5;stroke-linecap:round;stroke-miterlimit:10;}
</style>
<polyline class="st0" points="26.3,40.8 31.6,35.6 36.2,40.2 40.1,32.3 42.6,38.1 45.7,35.8 51.1,41 "/>
<path class="st0" d="M31,24.8h-3.7c-0.6,0-1-0.6-1-1v-9.5c0-0.6,0.6-1,1-1H31c0.6,0,1,0.6,1,1v9.3C32,24.2,31.6,24.8,31,24.8z"/>
<path class="st0" d="M40.6,24.8H37c-0.6,0-1-0.6-1-1v-7.5c0-0.6,0.6-1,1-1h3.7c0.6,0,1,0.6,1,1v7.3C41.6,24.2,41.2,24.8,40.6,24.8z"
	/>
<path class="st0" d="M50.1,24.8h-3.7c-0.6,0-1-0.6-1-1V10.9c0-0.6,0.6-1,1-1h3.7c0.6,0,1,0.6,1,1v12.8
	C51.1,24.2,50.5,24.8,50.1,24.8z"/>
<line class="st0" x1="51.1" y1="27.9" x2="26.5" y2="27.9"/>
<line class="st0" x1="19.8" y1="15.3" x2="8.4" y2="15.3"/>
<line class="st0" x1="19.8" y1="19" x2="8.4" y2="19"/>
<line class="st0" x1="19.8" y1="23" x2="8.4" y2="23"/>
<path class="st0" d="M53,45.7H6.4c-2.7,0-5-2.3-5-5V12c0-2.7,2.3-5,5-5H53c2.9,0,5,2.3,5,5v28.4C58.2,43.3,55.9,45.7,53,45.7z"/>
<circle class="st0" cx="14.2" cy="35.8" r="5"/>
</svg>
