<?xml version="1.0" encoding="utf-8"?>
<!-- Generator: Adobe Illustrator 23.0.1, SVG Export Plug-In . SVG Version: 6.00 Build 0)  -->
<svg version="1.1" id="Camada_1" xmlns="http://www.w3.org/2000/svg" xmlns:xlink="http://www.w3.org/1999/xlink" x="0px" y="0px"
	 viewBox="0 0 100 100" style="enable-background:new 0 0 100 100;" xml:space="preserve">
<style type="text/css">
	.st0{fill:#AAE29F;}
</style>
<g>
	<path class="st0" d="M33.5,55.4L33.5,55.4c-6.2,0-11.1,5-11.1,11.1v22.3c0,6.2,5,11.1,11.1,11.1h0c6.2,0,11.1-5,11.1-11.1V66.5
		C44.6,60.4,39.6,55.4,33.5,55.4z"/>
	<path class="st0" d="M66.9,100L66.9,100c-6.2,0-11.1-5-11.1-11.1V44.3c0-6.2,5-11.1,11.1-11.1h0c6.2,0,11.1,5,11.1,11.1v44.6
		C78,95,73.1,100,66.9,100z"/>
</g>
</svg>
