<?xml version="1.0" encoding="utf-8"?>
<!-- Generator: Adobe Illustrator 23.0.1, SVG Export Plug-In . SVG Version: 6.00 Build 0)  -->
<svg version="1.1" id="Camada_1" xmlns="http://www.w3.org/2000/svg" xmlns:xlink="http://www.w3.org/1999/xlink" x="0px" y="0px"
	 viewBox="0 0 100 100" style="enable-background:new 0 0 100 100;" xml:space="preserve">
<style type="text/css">
	.st0{fill:#AAE29F;}
</style>
<g>
	<path class="st0" d="M15.2,55.4L15.2,55.4C9,55.4,4,60.4,4,66.5v22.3C4,95,9,100,15.2,100h0c6.2,0,11.1-5,11.1-11.1V66.5
		C26.3,60.4,21.3,55.4,15.2,55.4z"/>
	<path class="st0" d="M48.6,100L48.6,100c-6.2,0-11.1-5-11.1-11.1V44.3c0-6.2,5-11.1,11.1-11.1h0c6.2,0,11.1,5,11.1,11.1v44.6
		C59.7,95,54.7,100,48.6,100z"/>
	<path class="st0" d="M82,10.9L82,10.9c6.2,0,11.1,5,11.1,11.1v66.8c0,6.2-5,11.1-11.1,11.1h0c-6.2,0-11.1-5-11.1-11.1V22
		C70.8,15.8,75.8,10.9,82,10.9z"/>
</g>
</svg>
