<svg id="Camada_1" data-name="Camada 1" xmlns="http://www.w3.org/2000/svg" xmlns:xlink="http://www.w3.org/1999/xlink" viewBox="0 0 30 30"><defs><style>.cls-1{fill:none;}.cls-2{clip-path:url(#clip-path);}.cls-3{fill:#1877f2;}.cls-4{fill:#fff;}</style><clipPath id="clip-path"><rect class="cls-1" width="30" height="30"/></clipPath></defs><title>facebook</title><g class="cls-2"><path class="cls-3" d="M30,15A15,15,0,1,0,12.66,29.82V19.34H8.85V15h3.81V11.7c0-3.76,2.24-5.84,5.66-5.84a23.37,23.37,0,0,1,3.36.29V9.84H19.79a2.17,2.17,0,0,0-2.45,2.35V15H21.5l-.66,4.34h-3.5V29.82A15,15,0,0,0,30,15Z"/></g><path class="cls-4" d="M20.84,19.34,21.5,15H17.34V12.19a2.17,2.17,0,0,1,2.45-2.35h1.89V6.15a23.37,23.37,0,0,0-3.36-.29c-3.42,0-5.66,2.08-5.66,5.84V15H8.85v4.34h3.81V29.82a15.3,15.3,0,0,0,4.68,0V19.34Z"/></svg>