<svg id="Camada_1" data-name="Camada 1" xmlns="http://www.w3.org/2000/svg" viewBox="0 0 30 30"><defs><style>.cls-1{fill:#12100b;}</style></defs><title>instagram</title><path class="cls-1" d="M15,0c-4.07,0-4.58,0-6.18.09a11,11,0,0,0-3.65.7A7.23,7.23,0,0,0,2.52,2.52,7.23,7.23,0,0,0,.79,5.17a11,11,0,0,0-.7,3.65C0,10.42,0,10.93,0,15s0,4.58.09,6.18a11,11,0,0,0,.7,3.65,7.23,7.23,0,0,0,1.73,2.65,7.23,7.23,0,0,0,2.65,1.73,11,11,0,0,0,3.65.7c1.6.07,2.11.09,6.18.09s4.58,0,6.18-.09a11,11,0,0,0,3.65-.7,7.7,7.7,0,0,0,4.38-4.38,11,11,0,0,0,.7-3.65C30,19.58,30,19.07,30,15s0-4.58-.09-6.18a11,11,0,0,0-.7-3.65,7.23,7.23,0,0,0-1.73-2.65A7.23,7.23,0,0,0,24.83.79a11,11,0,0,0-3.65-.7C19.58,0,19.07,0,15,0Zm0,2.7c4,0,4.48,0,6.06.09a8.3,8.3,0,0,1,2.79.52,4.5,4.5,0,0,1,1.72,1.12,4.5,4.5,0,0,1,1.12,1.72,8.3,8.3,0,0,1,.52,2.79c.07,1.58.09,2.05.09,6.06s0,4.48-.09,6.06a8.3,8.3,0,0,1-.52,2.79,5,5,0,0,1-2.84,2.84,8.3,8.3,0,0,1-2.79.52c-1.58.07-2,.09-6.06.09s-4.48,0-6.06-.09a8.3,8.3,0,0,1-2.79-.52,4.5,4.5,0,0,1-1.72-1.12,4.5,4.5,0,0,1-1.12-1.72,8.3,8.3,0,0,1-.52-2.79C2.72,19.48,2.7,19,2.7,15s0-4.48.09-6.06a8.3,8.3,0,0,1,.52-2.79A4.5,4.5,0,0,1,4.43,4.43,4.5,4.5,0,0,1,6.15,3.31a8.3,8.3,0,0,1,2.79-.52C10.52,2.72,11,2.7,15,2.7"/><path class="cls-1" d="M15,20a5,5,0,1,1,5-5,5,5,0,0,1-5,5ZM15,7.3A7.7,7.7,0,1,0,22.7,15,7.7,7.7,0,0,0,15,7.3Z"/><path class="cls-1" d="M24.81,7A1.8,1.8,0,1,1,23,5.19,1.8,1.8,0,0,1,24.81,7Z"/></svg>