<svg id="Camada_1" data-name="Camada 1" xmlns="http://www.w3.org/2000/svg" viewBox="0 0 30 30"><defs><style>.cls-1{fill:#1d9bf0;}</style></defs><title>twitter</title><g id="Logo"><path id="white_background" data-name="white background" class="cls-1" d="M27,8.87c0,.27,0,.53,0,.8,0,8.14-6.2,17.53-17.53,17.53h0A17.39,17.39,0,0,1,0,24.43a12.08,12.08,0,0,0,1.47.09,12.41,12.41,0,0,0,7.65-2.64A6.17,6.17,0,0,1,3.36,17.6a6.21,6.21,0,0,0,2.78-.1,6.17,6.17,0,0,1-4.94-6v-.08a6.12,6.12,0,0,0,2.8.77A6.18,6.18,0,0,1,2.09,3.92a17.49,17.49,0,0,0,12.7,6.44,6.17,6.17,0,0,1,10.5-5.62A12.46,12.46,0,0,0,29.2,3.25a6.18,6.18,0,0,1-2.71,3.4,12.17,12.17,0,0,0,3.54-1A12.46,12.46,0,0,1,27,8.87Z"/></g></svg>