<?xml version="1.0" encoding="UTF-8" standalone="no"?>
<!-- Created with Inkscape (http://www.inkscape.org/) -->

<svg
   version="1.1"
   id="svg2"
   xml:space="preserve"
   width="1017.4533"
   height="184.74667"
   viewBox="0 0 1017.4533 184.74667"
   sodipodi:docname="capes.svg"
   inkscape:version="1.1.2 (0a00cf5339, 2022-02-04)"
   xmlns:inkscape="http://www.inkscape.org/namespaces/inkscape"
   xmlns:sodipodi="http://sodipodi.sourceforge.net/DTD/sodipodi-0.dtd"
   xmlns="http://www.w3.org/2000/svg"
   xmlns:svg="http://www.w3.org/2000/svg"><defs
     id="defs6" /><sodipodi:namedview
     id="namedview4"
     pagecolor="#505050"
     bordercolor="#eeeeee"
     borderopacity="1"
     inkscape:pageshadow="0"
     inkscape:pageopacity="0"
     inkscape:pagecheckerboard="0"
     showgrid="false"
     inkscape:lockguides="true"
     inkscape:zoom="0.44582783"
     inkscape:cx="1263.9408"
     inkscape:cy="407.10783"
     inkscape:window-width="1536"
     inkscape:window-height="795"
     inkscape:window-x="0"
     inkscape:window-y="32"
     inkscape:window-maximized="1"
     inkscape:current-layer="g8" /><g
     id="g8"
     inkscape:groupmode="layer"
     inkscape:label="ink_ext_XXXXXX"
     transform="matrix(1.3333333,0,0,-1.3333333,0,184.74667)"><g
       id="g10"
       transform="scale(0.1)"><path
         d="M 3240.77,498.945 C 3097.94,430.449 3010.5,389.637 2880.78,389.637 c -206.96,0 -354.14,126.789 -354.14,304.629 0,176.339 148.65,301.672 359.97,301.672 122.43,0 233.19,-40.801 342.49,-102.012 v 221.534 c -97.64,58.3 -221.52,87.44 -359.97,87.44 -380.39,0 -597.55,-247.763 -597.55,-513.009 0,-256.532 192.37,-507.219 578.6,-507.219 147.21,0 252.13,27.699 390.59,99.109 v 217.164"
         style="fill:#0994dc;fill-opacity:1;fill-rule:evenodd;stroke:none"
         id="path12" /><path
         d="m 4217.05,552.859 h -306.08 l 145.76,386.223 z m -20.4,623.791 H 3909.52 L 3508.74,182.672 h 262.34 l 74.32,196.75 h 444.52 l 81.62,-196.75 h 266.7 l -441.59,993.978 v 0"
         style="fill:#0994dc;fill-opacity:1;fill-rule:evenodd;stroke:none"
         id="path14" /><path
         d="m 5115.45,994.461 h 87.44 c 134.09,0 182.18,-30.606 182.18,-115.125 0,-74.348 -40.81,-115.148 -154.49,-115.148 H 5115.45 Z M 4867.7,1176.65 V 182.672 h 247.75 V 582.02 h 196.77 c 228.8,0 327.9,160.312 327.9,300.226 0,135.534 -102.02,294.404 -329.38,294.404 H 4867.7 v 0"
         style="fill:#0994dc;fill-opacity:1;fill-rule:evenodd;stroke:none"
         id="path16" /><path
         d="m 6619.55,364.852 h -485.32 v 239.023 h 453.25 v 182.168 h -453.25 v 208.418 h 475.13 V 1176.65 H 5886.47 V 182.672 h 733.08 v 182.18"
         style="fill:#0994dc;fill-opacity:1;fill-rule:evenodd;stroke:none"
         id="path18" /><path
         d="m 7585.77,1125.66 c -125.34,53.91 -225.91,77.24 -336.67,77.24 -230.27,0 -378.92,-113.68 -378.92,-285.666 0,-357.078 505.72,-297.332 505.72,-460.566 0,-58.289 -51.02,-91.809 -145.74,-91.809 -109.33,0 -196.77,33.52 -339.59,128.246 V 278.871 c 99.1,-51 185.09,-96.199 358.53,-96.199 221.53,0 381.85,110.769 381.85,301.703 0,346.875 -505.73,304.609 -505.73,454.727 0,49.55 56.84,81.618 145.73,81.618 84.54,0 170.53,-24.782 314.82,-88.904 v 193.844"
         style="fill:#0994dc;fill-opacity:1;fill-rule:evenodd;stroke:none"
         id="path20" /><path
         d="M 1524.57,99 C 1450.59,73.8398 1363.07,49.3516 1259.55,31.0313 1156.43,12.75 1037.3,0.601563 899.734,0.0117188 h -0.078 -2.113 C 867.676,-0.078125 839.441,0.898438 812.883,2.71094 786.109,4.55859 760.371,7.30078 735.793,10.7188 610.02,28.2305 520.168,63.8008 478.074,89.7109 l -0.051,0.0274 c -16.25,10.0117 -31.324,20.3707 -45.285,30.9997 -14.023,10.703 -26.824,21.602 -38.461,32.653 -57.152,54.23 -88.332,113.23 -103.062,170.8 C 214.004,355.262 153.891,389.402 108.5,428.242 59.7813,469.941 28.0469,516.883 10.4336,571.016 v 0.027 h -0.0039 c -6.00001,18.469 -9.25392,36.816 -10.164075,54.863 -0.90625,17.93 0.550781,35.539 3.972655,52.688 C 21.2656,764.063 87.3945,837.352 152.434,884.305 v 0 l 0.027,0.031 c 9.551,6.898 20.492,14.125 32.633,21.469 11.726,7.093 25.097,14.605 39.957,22.347 74.082,38.614 177.262,77.868 283.113,92.348 37.406,5.13 74.399,8.64 110.719,10.87 33.949,2.08 67.894,3.05 101.476,3.15 41.75,27.84 84.121,53.66 126.786,77.58 44.363,24.89 88.964,47.69 133.406,68.54 225.629,105.83 449.059,162.54 621.489,189.56 2,1.86 3.95,3.45 5.86,4.77 10.77,7.44 23.89,10.6 35.49,10.6 h 0.01 v -0.09 c 15.79,0 30.03,-6.68 40.3,-17.43 10.25,-10.75 16.57,-25.58 16.57,-41.93 h 0.09 v -0.02 -0.01 h -0.09 c 0,-16.35 -6.32,-31.19 -16.58,-41.94 -10.26,-10.74 -24.5,-17.41 -40.28,-17.43 v -0.08 h -0.02 -0.02 v 0.08 c -8.55,0.01 -16.6,1.94 -23.78,5.4 -1.82,0.87 -3.53,1.81 -5.14,2.8 -4.28,2.65 -8.2,5.87 -11.67,9.56 -34.7,-4.26 -69.86,-9.69 -105.33,-16.28 -39.66,-7.36 -78.91,-15.97 -117.6,-25.77 -179.35,-45.45 -357.64,-118.19 -517.53,-212.5 14.399,-0.99 28.418,-2.11 42.059,-3.35 31.457,-2.86 62.375,-6.44 92.164,-10.46 5.127,3.69 10.927,7.15 17.317,10.35 8.97,4.53 19.27,8.65 30.43,12.41 54.2,18.24 129.63,27.46 167.86,31.11 95.79,9.13 171.91,12.65 241.24,9.39 70.05,-3.32 132.94,-13.45 201.66,-31.59 l 0.32,-0.09 h 0.07 c 48.04,-12.69 91.29,-28.13 130.14,-45.63 38.88,-17.511 72.97,-36.961 102.74,-57.687 156.03,-108.641 196.81,-253.852 189.51,-342.442 l -0.01,-0.117 c -1.19,-14.511 -3.27,-29.89 -6.4,-46.054 -3.09,-15.86 -7.15,-31.954 -12.34,-48.008 -26.88,-83.172 -84.59,-169.942 -196.77,-236.282 -12.13,-7.179 -23.8,-13.64 -35.07,-19.5 -10.49,-5.421 -21.56,-10.789 -33.2,-16.121 -9.11,-7.148 -19.06,-14.398 -29.72,-21.679 -11.04,-7.539 -22.62,-14.961 -34.63,-22.149 C 1668.4,155.25 1595.86,123.262 1524.57,99 Z M 599.254,943.816 c -23.961,-1.668 -48.242,-3.656 -72.707,-6.023 l -0.098,-0.016 c -15.746,-1.539 -32.465,-3.941 -49.801,-7.195 -17.488,-3.289 -35.558,-7.41 -53.921,-12.32 C 328.355,893.004 226.059,846.836 157.73,785.695 141.27,770.961 123.594,751.352 109.23,728.258 92.6172,701.547 80.4961,670.254 80.2305,636.805 c -0.2735,-33.192 11.25,-69.297 41.8785,-106.356 18.164,-21.972 42.965,-44.219 75.844,-66.359 17.18,-11.551 34.934,-22.645 54.067,-33.445 v -0.079 c 9.351,-5.273 18.878,-10.39 28.679,-15.371 0.086,10.575 0.606,20.985 1.481,31.133 4.75,55.156 19.925,102.918 34.097,136.258 v 0 l 0.016,0.031 c 11.066,26.016 24.254,51.797 38.965,77.078 14.523,24.953 30.379,49.047 47.031,72.129 63.297,87.739 138.965,162.059 196.965,211.992 z M 1831.6,472.969 c 3.48,-38.125 -3.99,-70.84 -18.71,-99.207 -14.66,-28.25 -36.71,-52.653 -62.5,-74.114 -34.59,-14.507 -70.39,-25 -106.23,-33.128 -37.56,-8.469 -74.44,-14.239 -109.92,-19.122 -95.03,-13.109 -183.97,-18.757 -266.33,-19.41 -82.47,-0.668 -158.5,3.692 -227.5,10.543 -114.797,11.457 -210.414,29.981 -283.894,44.219 -13.895,2.691 -26.903,5.219 -42.422,8.121 l -0.168,0.07 -0.047,0.02 -0.012,-0.051 c -83.969,15.672 -153.699,30.711 -213.265,46.059 -53.59,13.793 -98.508,27.742 -137.809,42.5 -4.258,35.121 -2.023,65.902 1.402,87.25 0.778,4.824 1.543,8.886 2.274,12.254 0.715,3.293 1.465,6.281 2.183,8.82 l 0.02,-0.02 0.004,0.028 v 0.09 c 32.879,115.761 102.5,219.476 186.019,306.621 16.41,17.129 33.258,33.531 50.379,49.168 16.774,15.32 34.43,30.425 52.735,45.207 l 0.019,0.027 v 0 c 19.981,16.133 40.332,31.754 60.84,46.734 5.68,4.153 9.734,7.094 12.156,8.832 2.731,1.965 5.098,3.645 7.082,5.067 86.395,0.609 149.414,-5.063 200.567,-9.66 l 6.16,-0.547 h 0.086 c 198.541,-17.797 346.941,-55.973 434.521,-84.145 17.03,-5.504 31.69,-10.562 43.93,-15.019 11.74,-4.285 21.72,-8.196 29.52,-11.379 v 0 l 0.02,-0.008 C 1634,754.68 1747.17,648.836 1799.36,560.184 c 9.82,-16.707 17.41,-32.704 22.81,-47.637 5.22,-14.422 8.34,-27.684 9.43,-39.481 v -0.097 z M 670.488,102.52 l 0.633,-0.141 c 22.442,-4.5587 46.199,-8.4571 71.164,-11.6602 25.32,-3.2188 51.363,-5.6797 78.031,-7.3399 139.539,-8.668 306.224,3.1797 489.104,40.8511 v 0.008 l 0.05,0.024 h 0.08 c 17.67,3.629 34.34,7.32 49.95,10.988 15.22,3.602 31.66,7.738 49.15,12.398 3.31,0.872 6.62,1.762 9.92,2.684 -27.34,-1.801 -53.52,-2.883 -78.12,-3.652 l -0.29,-0.02 c -43.31,-1.371 -88.04,-0.941 -133.32,0.922 -45.1,1.828 -91,5.098 -136.83,9.449 -234.565,22.231 -463.28,72.231 -571.244,100.489 -28.332,7.402 -55,14.8 -80.078,22.261 -10.18,3.039 -20.25,6.141 -30.204,9.301 5.371,-11.363 11.649,-22.66 18.973,-33.742 42.492,-64.309 121.227,-123.879 263.031,-152.82 z M 1961.22,483.828 v 0 l 0.09,0.078 c 5.38,9.258 10.91,20.078 16.15,32.422 5.21,12.266 9.88,25.449 13.51,39.285 18.92,72.11 12.98,169.68 -82.77,266.809 l -0.29,0.297 c -18.17,18.41 -37.8,35.316 -58.69,50.765 -20.78,15.387 -43.06,29.434 -66.63,42.192 -121.32,65.683 -272.54,93.684 -430.17,90.774 v 0 l -0.67,-0.01 v 0 c -2.76,-0.07 -10.39,-0.44 -22.06,-1.1 -10.46,-0.58 -24.69,-1.49 -41.98,-2.74 -42.29,-3.077 -98.29,-7.412 -139.79,-11.448 69.4,-12.863 133.67,-26.929 196.61,-45.488 85.41,-25.195 168.34,-58.652 258.25,-108.551 13.1,-7.258 25.63,-14.562 37.63,-21.859 144.9,-88.246 217.34,-182.316 247.33,-267.024 18.8,-53.132 21,-102.683 13.8,-145.136 1.67,1.808 3.33,3.605 4.99,5.429 19.74,21.887 38.1,46.809 54.71,75.266 l -0.02,0.039 v 0"
         style="fill:#0994dc;fill-opacity:1;fill-rule:evenodd;stroke:none"
         id="path22" /><path
         d="m 1207.25,574.383 v -0.008 h -0.09 c 0,-47.883 -19.35,-91.184 -50.64,-122.461 -31.29,-31.289 -74.58,-50.644 -122.45,-50.644 v -0.09 h -0.02 -0.01 v 0.09 c -47.872,0 -91.173,19.355 -122.458,50.644 -31.285,31.297 -50.637,74.578 -50.648,122.461 h -0.079 v 0.008 0.019 h 0.079 c 0.011,47.864 19.363,91.164 50.652,122.461 31.285,31.289 74.582,50.629 122.444,50.649 v 0.074 h 0.02 0.01 v -0.074 c 47.87,0 91.17,-19.379 122.47,-50.657 31.28,-31.3 50.63,-74.589 50.63,-122.453 h 0.09 v -0.019"
         style="fill:#00a650;fill-opacity:1;fill-rule:evenodd;stroke:none"
         id="path24" /></g></g></svg>
