<?xml version="1.0" encoding="UTF-8" standalone="no"?>
<svg
   version="1.0"
   id="Camada_1"
   viewBox="0 0 284.99999 411.72"
   sodipodi:docname="DSpace.svg"
   width="285"
   height="411.72"
   inkscape:version="1.1.2 (0a00cf5339, 2022-02-04)"
   xmlns:inkscape="http://www.inkscape.org/namespaces/inkscape"
   xmlns:sodipodi="http://sodipodi.sourceforge.net/DTD/sodipodi-0.dtd"
   xmlns="http://www.w3.org/2000/svg"
   xmlns:svg="http://www.w3.org/2000/svg">
  <defs
     id="defs333" />
  <sodipodi:namedview
     id="namedview331"
     pagecolor="#505050"
     bordercolor="#eeeeee"
     borderopacity="1"
     inkscape:pageshadow="0"
     inkscape:pageopacity="0"
     inkscape:pagecheckerboard="0"
     showgrid="false"
     width="400px"
     inkscape:zoom="0.52614153"
     inkscape:cx="807.76745"
     inkscape:cy="206.21828"
     inkscape:window-width="1536"
     inkscape:window-height="832"
     inkscape:window-x="0"
     inkscape:window-y="32"
     inkscape:window-maximized="1"
     inkscape:current-layer="Camada_1" />
  <path
     fill="#607890"
     d="M 124.42,113.25 58.58,47.41 c 0.64,-1.81 0.99,-3.75 0.99,-5.78 0,-9.55 -7.74,-17.3 -17.3,-17.3 -9.55,0 -17.3,7.74 -17.3,17.3 0,9.56 7.74,17.3 17.3,17.3 3.74,0 7.19,-1.19 10.02,-3.2 z"
     id="path192" />
  <path
     fill="#607890"
     d="M 138.2,106.24 126.79,45.27 c 1.03,-0.75 1.96,-1.69 2.72,-2.8 3.6,-5.25 2.25,-12.42 -3,-16.02 -5.25,-3.6 -12.42,-2.25 -16.02,3 -3.6,5.25 -2.25,12.42 3,16.02 2.05,1.41 4.4,2.05 6.71,2.01 z"
     id="path194" />
  <path
     fill="#607890"
     d="m 157.88,110.77 53.23,-76.4 c 1.89,0.31 3.87,0.32 5.86,-0.04 9.4,-1.68 15.67,-10.67 13.98,-20.07 -1.68,-9.4 -10.67,-15.67 -20.07,-13.98 -9.4,1.68 -15.67,10.67 -13.98,20.07 0.66,3.68 2.44,6.87 4.92,9.3 z"
     id="path196" />
  <path
     fill="#607890"
     d="m 163,148.37 62.93,49.08 c -0.35,1.6 -0.45,3.29 -0.24,5.02 1,8.13 8.41,13.9 16.53,12.89 8.13,-1 13.9,-8.41 12.89,-16.53 -1,-8.13 -8.41,-13.9 -16.53,-12.89 -3.18,0.39 -5.99,1.77 -8.19,3.78 z"
     id="path198" />
  <path
     fill="#607890"
     d="m 155.1,156.42 44.09,88.48 c -1.24,1.62 -2.24,3.48 -2.92,5.53 -3.18,9.69 2,20.1 11.59,23.25 9.58,3.15 19.93,-2.16 23.11,-11.86 3.18,-9.69 -2,-20.1 -11.59,-23.25 -3.75,-1.23 -7.61,-1.16 -11.12,-0.05 z"
     id="path200" />
  <path
     fill="#607890"
     d="m 130.02,154.89 -29.77,55.97 c -1.3,-0.06 -2.64,0.1 -3.96,0.5 -6.22,1.9 -9.72,8.48 -7.82,14.7 1.9,6.22 8.48,9.72 14.7,7.82 6.22,-1.9 9.72,-8.48 7.82,-14.7 -0.74,-2.43 -2.2,-4.45 -4.08,-5.89 z"
     id="path202" />
  <path
     fill="#607890"
     d="m 119.4,143.98 -74.54,39.85 c -1.4,-1.03 -3,-1.85 -4.76,-2.38 -8.3,-2.52 -17.07,2.17 -19.58,10.47 -2.52,8.3 2.17,17.07 10.47,19.58 8.3,2.52 17.07,-2.17 19.58,-10.47 0.98,-3.25 0.86,-6.56 -0.14,-9.55 z"
     id="path204" />
  <path
     fill="#607890"
     d="m 116.6,129.66 -85.73,-6.42 c -0.64,-1.65 -1.56,-3.22 -2.79,-4.64 -5.75,-6.69 -15.84,-7.44 -22.53,-1.69 -6.69,5.75 -7.44,15.84 -1.69,22.53 5.75,6.69 15.84,7.44 22.53,1.69 2.62,-2.25 4.32,-5.16 5.08,-8.28 z"
     id="path206" />
  <circle
     fill="#607890"
     cx="142.63"
     cy="132"
     r="14.4"
     id="circle208" />
  <path
     fill="#607890"
     d="m 263.45,142.05 c -4.82,0 -8.97,2.82 -10.93,6.89 L 168,138.27 l 83.49,17.86 c 0.94,5.77 5.93,10.17 11.96,10.17 6.7,0 12.13,-5.43 12.13,-12.13 0,-6.69 -5.43,-12.12 -12.13,-12.12 z"
     id="path210" />
  <path
     fill="#607890"
     d="m 233.77,92.79 c -7.14,0 -12.92,5.79 -12.92,12.92 0,0.85 0.09,1.67 0.24,2.48 L 168.2,126.6 223.85,114 c 2.37,2.84 5.93,4.64 9.92,4.64 7.14,0 12.92,-5.79 12.92,-12.92 0.01,-7.14 -5.78,-12.93 -12.92,-12.93 z"
     id="path212" />
  <rect
     x="138.2"
     y="156.42"
     fill="#607890"
     width="8.29"
     height="196.33"
     id="rect214" />
  <circle
     fill="#607890"
     cx="142.34"
     cy="387.16"
     r="24.57"
     id="circle216" />
</svg>
