<?xml version="1.0" encoding="UTF-8" standalone="no"?>
<svg
   viewBox="0 0 22443 4795"
   height="170px"
   version="1.1"
   id="svg151"
   sodipodi:docname="logo_header.svg"
   inkscape:version="1.1.2 (0a00cf5339, 2022-02-04)"
   xmlns:inkscape="http://www.inkscape.org/namespaces/inkscape"
   xmlns:sodipodi="http://sodipodi.sourceforge.net/DTD/sodipodi-0.dtd"
   xmlns="http://www.w3.org/2000/svg">
  <defs
     id="defs155" />
  <sodipodi:namedview
     id="namedview153"
     pagecolor="#505050"
     bordercolor="#eeeeee"
     borderopacity="1"
     inkscape:pageshadow="0"
     inkscape:pageopacity="0"
     inkscape:pagecheckerboard="0"
     showgrid="false"
     inkscape:zoom="0.018446732"
     inkscape:cx="8023.1014"
     inkscape:cy="406.57609"
     inkscape:window-width="1536"
     inkscape:window-height="795"
     inkscape:window-x="0"
     inkscape:window-y="32"
     inkscape:window-maximized="1"
     inkscape:current-layer="svg151" />

     <g fill="#fff">
  <path d="m 6606,2232 c -126,0 -229,103 -229,228 0,545 0,1090 0,1635 0,126 103,229 229,229 545,0 1090,0 1635,0 126,0 229,-103 229,-229 0,-545 0,-1090 0,-1635 0,-125 -103,-228 -229,-228 -545,0 -1090,0 -1635,0 z m 0,2478 c -339,0 -615,-276 -615,-615 0,-545 0,-1090 0,-1635 0,-338 276,-614 615,-614 545,0 1090,0 1635,0 339,0 615,276 615,614 0,545 0,1090 0,1635 0,339 -276,615 -615,615 -545,0 -1090,0 -1635,0 z" />
  <path d="m 199,4513 c 0,-826 0,-1652 0,-2478 0,-106 86,-193 193,-193 107,0 194,87 194,193 0,826 0,1652 0,2478 0,107 -87,193 -193,193 -107,0 -194,-86 -194,-193 z" />
  <path d="m 11803,2791 c 0,-826 0,-1652 0,-2478 0,-107 86,-194 193,-194 107,0 194,87 194,194 0,826 0,1652 0,2478 0,106 -86,193 -193,193 -106,0 -194,-87 -194,-193 z" />
  <path d="m 13871,2791 c 0,-826 0,-1652 0,-2478 0,-107 86,-194 193,-194 107,0 194,87 194,194 0,826 0,1652 0,2478 0,106 -87,193 -193,193 -107,0 -194,-87 -194,-193 z" />
  <path d="m 12825,1746 c -107,0 -193,-87 -193,-193 0,-107 86,-194 193,-194 827,0 1653,0 2479,0 107,0 193,86 193,193 0,107 -86,194 -193,194 -826,0 -1652,0 -2479,0 z" />
  <path d="m 586,2667 c 349,0 697,0 1046,0 577,0 1046,-468 1046,-1045 0,-577 -469,-1046 -1046,-1046 -279,0 -558,0 -837,0 -116,0 -209,94 -209,209 0,627 0,1255 0,1882 z m -194,387 c -106,0 -193,-87 -193,-193 0,-692 0,-1384 0,-2076 0,-328 267,-596 596,-596 279,0 558,0 837,0 790,0 1433,643 1433,1433 0,789 -643,1432 -1433,1432 -413,0 -827,0 -1240,0 z" />
  <path d="m 10758,2159 c -577,0 -1046,468 -1046,1045 0,577 469,1046 1046,1046 281,0 563,0 844,0 111,0 201,-90 201,-201 0,-630 0,-1260 0,-1890 -348,0 -697,0 -1045,0 z m 0,2478 c -790,0 -1433,-643 -1433,-1433 0,-790 643,-1432 1433,-1432 413,0 826,0 1239,0 106,0 193,87 193,193 0,694 0,1389 0,2084 0,324 -264,588 -588,588 -281,0 -563,0 -844,0 z"/>
  <path d="m 3515,4517 c 0,-690 0,-1381 0,-2072 0,-330 269,-599 600,-599 415,0 830,0 1246,0 107,0 193,86 193,193 0,107 -86,193 -193,193 -416,0 -831,0 -1246,0 -118,0 -214,96 -214,213 0,691 0,1382 0,2072 0,107 -86,193 -193,193 -107,0 -193,-86 -193,-193 z"/>
  <path d="m 18514,4623 c 221,0 443,0 664,0 248,-496 496,-992 744,-1488 10,-20 31,-33 53,-33 380,0 761,0 1141,0 597,0 1082,-484 1082,-1080 0,-597 -485,-1082 -1082,-1082 -22,0 -44,0 -66,0 -25,0 -47,-16 -56,-39 -153,-432 -562,-721 -1019,-721 -241,0 -471,79 -663,228 -20,16 -47,17 -68,3 -236,-151 -509,-231 -790,-231 -806,0 -1462,655 -1462,1461 0,33 -26,60 -59,60 -387,0 -701,314 -701,700 0,386 314,701 701,701 254,0 508,0 761,0 33,0 59,27 59,59 0,387 315,702 701,702 33,0 60,26 60,59 0,234 0,467 0,701 z m -60,119 c -32,0 -59,-27 -59,-60 0,-234 0,-469 0,-703 -405,-29 -729,-353 -758,-758 -234,0 -469,0 -704,0 -452,0 -820,-368 -820,-820 0,-432 337,-787 762,-817 30,-845 727,-1523 1579,-1523 290,0 572,79 819,229 206,-150 448,-229 702,-229 493,0 936,304 1116,761 8,0 17,0 25,0 662,0 1200,538 1200,1200 0,661 -538,1199 -1200,1199 -368,0 -736,0 -1104,0 -248,496 -496,992 -744,1488 -10,20 -31,33 -53,33 -254,0 -507,0 -761,0 z"/>
  <path d="m 18454,2430 c -403,0 -731,328 -731,731 0,403 328,731 731,731 244,0 487,0 731,0 0,-487 0,-974 0,-1462 -244,0 -487,0 -731,0 z m 0,1521 c -435,0 -790,-354 -790,-790 0,-435 355,-789 790,-789 254,0 507,0 761,0 16,0 30,13 30,29 0,507 0,1014 0,1521 0,16 -14,29 -30,29 -254,0 -507,0 -761,0 z"/>
  <path d="m 16963,3132 c 995,0 1989,0 2983,0 0,-497 0,-994 0,-1491 0,-822 -669,-1491 -1492,-1491 -822,0 -1491,669 -1491,1491 0,497 0,994 0,1491 z m -30,59 c -16,0 -29,-13 -29,-30 0,-507 0,-1013 0,-1520 0,-855 695,-1550 1550,-1550 855,0 1551,695 1551,1550 0,507 0,1013 0,1520 0,17 -13,30 -30,30 -1014,0 -2028,0 -3042,0 z"/>
  <path d="m 18484,4653 c 238,0 475,0 713,0 244,-487 487,-974 731,-1462 -481,0 -963,0 -1444,0 0,488 0,975 0,1462 z m -30,59 c -16,0 -29,-13 -29,-30 0,-507 0,-1014 0,-1521 0,-16 13,-29 29,-29 507,0 1014,0 1521,0 11,0 20,5 26,14 5,9 6,19 1,29 -254,507 -507,1014 -761,1521 -5,10 -15,16 -26,16 -254,0 -507,0 -761,0 z"/>
  <path d="m 16933,1671 c -403,0 -731,328 -731,730 0,403 328,731 731,731 244,0 488,0 731,0 0,-487 0,-974 0,-1461 -243,0 -487,0 -731,0 z m 0,1520 c -436,0 -790,-355 -790,-790 0,-435 354,-789 790,-789 254,0 508,0 761,0 16,0 29,13 29,29 0,507 0,1013 0,1520 0,17 -13,30 -29,30 -253,0 -507,0 -761,0 z"/>
  <path d="m 20005,3132 c 370,0 741,0 1111,0 613,0 1112,-498 1112,-1110 0,-613 -499,-1112 -1112,-1112 -370,0 -741,0 -1111,0 0,741 0,1482 0,2222 z m -30,59 c -16,0 -29,-13 -29,-30 0,-760 0,-1520 0,-2280 0,-17 13,-30 29,-30 380,0 761,0 1141,0 646,0 1171,525 1171,1171 0,645 -525,1169 -1171,1169 -380,0 -761,0 -1141,0 z" />
  <path d="m 18864,2372 c 741,0 1482,0 2223,0 0,-371 0,-741 0,-1111 0,-613 -499,-1111 -1112,-1111 -612,0 -1111,498 -1111,1111 0,370 0,740 0,1111 z m -29,58 c -17,0 -30,-13 -30,-29 0,-380 0,-760 0,-1140 0,-645 525,-1170 1170,-1170 646,0 1171,525 1171,1170 0,380 0,760 0,1140 0,16 -13,29 -30,29 -760,0 -1521,0 -2281,0 z"/>
</g>
</svg>
