<svg id="unifesp" xmlns="http://www.w3.org/2000/svg" viewBox="0 0 458 203"><defs><style>.cls-1{fill:#fff;}</style></defs><title>unifesp-branco</title><rect class="cls-1" x="261.75" y="185.12" width="163.33" height="4.53"/><rect class="cls-1" x="33.12" y="185.12" width="163.33" height="4.53"/><rect class="cls-1" x="261.75" y="148.02" width="163.33" height="4.53"/><rect class="cls-1" x="208.28" y="148.02" width="41.49" height="4.53"/><rect class="cls-1" x="208.28" y="155.47" width="4.53" height="37.98"/><rect class="cls-1" x="245.39" y="155.47" width="4.53" height="37.98"/><rect class="cls-1" x="33.12" y="148.02" width="163.33" height="4.53"/><rect class="cls-1" x="224.06" y="177.67" width="4.53" height="4.53"/><rect class="cls-1" x="218.51" y="177.67" width="4.53" height="4.53"/><rect class="cls-1" x="229.61" y="177.67" width="4.53" height="4.53"/><rect class="cls-1" x="235.16" y="177.67" width="4.53" height="4.53"/><rect class="cls-1" x="224.06" y="183.22" width="4.53" height="4.53"/><rect class="cls-1" x="218.51" y="183.22" width="4.53" height="4.53"/><rect class="cls-1" x="229.61" y="183.22" width="4.53" height="4.53"/><rect class="cls-1" x="235.16" y="183.22" width="4.53" height="4.53"/><rect class="cls-1" x="224.06" y="188.78" width="4.53" height="4.53"/><rect class="cls-1" x="218.51" y="188.78" width="4.53" height="4.53"/><rect class="cls-1" x="229.61" y="188.78" width="4.53" height="4.53"/><rect class="cls-1" x="235.16" y="188.78" width="4.53" height="4.53"/><rect class="cls-1" x="224.06" y="161.02" width="4.53" height="4.53"/><rect class="cls-1" x="218.51" y="161.02" width="4.53" height="4.53"/><rect class="cls-1" x="229.61" y="161.02" width="4.53" height="4.53"/><rect class="cls-1" x="235.16" y="161.02" width="4.53" height="4.53"/><rect class="cls-1" x="224.06" y="155.47" width="4.53" height="4.53"/><rect class="cls-1" x="218.51" y="155.47" width="4.53" height="4.53"/><rect class="cls-1" x="229.61" y="155.47" width="4.53" height="4.53"/><rect class="cls-1" x="235.16" y="155.47" width="4.53" height="4.53"/><rect class="cls-1" x="224.06" y="166.57" width="4.53" height="4.53"/><rect class="cls-1" x="218.51" y="166.57" width="4.53" height="4.53"/><rect class="cls-1" x="229.61" y="166.57" width="4.53" height="4.53"/><rect class="cls-1" x="235.16" y="166.57" width="4.53" height="4.53"/><rect class="cls-1" x="224.06" y="172.12" width="4.53" height="4.53"/><rect class="cls-1" x="218.51" y="172.12" width="4.53" height="4.53"/><rect class="cls-1" x="229.61" y="172.12" width="4.53" height="4.53"/><rect class="cls-1" x="235.16" y="172.12" width="4.53" height="4.53"/><rect class="cls-1" x="406.53" y="177.67" width="4.53" height="4.53"/><rect class="cls-1" x="400.98" y="177.67" width="4.53" height="4.53"/><rect class="cls-1" x="412.08" y="177.67" width="4.53" height="4.53"/><rect class="cls-1" x="406.53" y="161.02" width="4.53" height="4.53"/><rect class="cls-1" x="400.98" y="161.02" width="4.53" height="4.53"/><rect class="cls-1" x="412.08" y="161.02" width="4.53" height="4.53"/><rect class="cls-1" x="406.53" y="155.47" width="4.53" height="4.53"/><rect class="cls-1" x="400.98" y="155.47" width="4.53" height="4.53"/><rect class="cls-1" x="412.08" y="155.47" width="4.53" height="4.53"/><rect class="cls-1" x="406.53" y="166.57" width="4.53" height="4.53"/><rect class="cls-1" x="400.98" y="166.57" width="4.53" height="4.53"/><rect class="cls-1" x="412.08" y="166.57" width="4.53" height="4.53"/><rect class="cls-1" x="406.53" y="172.12" width="4.53" height="4.53"/><rect class="cls-1" x="400.98" y="172.12" width="4.53" height="4.53"/><rect class="cls-1" x="412.08" y="172.12" width="4.53" height="4.53"/><rect class="cls-1" x="373.8" y="177.67" width="4.53" height="4.53"/><rect class="cls-1" x="368.25" y="177.67" width="4.53" height="4.53"/><rect class="cls-1" x="379.36" y="177.67" width="4.53" height="4.53"/><rect class="cls-1" x="373.8" y="161.02" width="4.53" height="4.53"/><rect class="cls-1" x="368.25" y="161.02" width="4.53" height="4.53"/><rect class="cls-1" x="379.36" y="161.02" width="4.53" height="4.53"/><rect class="cls-1" x="373.8" y="155.47" width="4.53" height="4.53"/><rect class="cls-1" x="368.25" y="155.47" width="4.53" height="4.53"/><rect class="cls-1" x="379.36" y="155.47" width="4.53" height="4.53"/><rect class="cls-1" x="373.8" y="166.57" width="4.53" height="4.53"/><rect class="cls-1" x="368.25" y="166.57" width="4.53" height="4.53"/><rect class="cls-1" x="379.36" y="166.57" width="4.53" height="4.53"/><rect class="cls-1" x="373.8" y="172.12" width="4.53" height="4.53"/><rect class="cls-1" x="368.25" y="172.12" width="4.53" height="4.53"/><rect class="cls-1" x="379.36" y="172.12" width="4.53" height="4.53"/><rect class="cls-1" x="47.14" y="123.18" width="4.53" height="4.53"/><rect class="cls-1" x="41.59" y="123.18" width="4.53" height="4.53"/><rect class="cls-1" x="52.69" y="123.18" width="4.53" height="4.53"/><rect class="cls-1" x="47.14" y="128.73" width="4.53" height="4.53"/><rect class="cls-1" x="41.59" y="128.73" width="4.53" height="4.53"/><rect class="cls-1" x="52.69" y="128.73" width="4.53" height="4.53"/><rect class="cls-1" x="47.14" y="134.28" width="4.53" height="4.53"/><rect class="cls-1" x="41.59" y="134.28" width="4.53" height="4.53"/><rect class="cls-1" x="52.69" y="134.28" width="4.53" height="4.53"/><rect class="cls-1" x="47.14" y="111.93" width="4.53" height="4.53"/><rect class="cls-1" x="41.59" y="111.93" width="4.53" height="4.53"/><rect class="cls-1" x="52.69" y="111.93" width="4.53" height="4.53"/><rect class="cls-1" x="47.14" y="117.48" width="4.53" height="4.53"/><rect class="cls-1" x="41.59" y="117.48" width="4.53" height="4.53"/><rect class="cls-1" x="52.69" y="117.48" width="4.53" height="4.53"/><path class="cls-1" d="M46.12,106.67a15.93,15.93,0,0,0-4.53,2v2.19h4.53Z"/><path class="cls-1" d="M57.22,108.72a12.59,12.59,0,0,0-4.53-2v4.24h4.53Z"/><path class="cls-1" d="M51.67,106.38a10.76,10.76,0,0,0-2.19-.15c-.73,0-1.46.15-2.19.15v4.53h4.53l-.15-4.53Z"/><rect class="cls-1" x="47.14" y="177.67" width="4.53" height="4.53"/><rect class="cls-1" x="52.69" y="177.67" width="4.53" height="4.53"/><rect class="cls-1" x="41.59" y="177.67" width="4.53" height="4.53"/><rect class="cls-1" x="47.14" y="161.02" width="4.53" height="4.53"/><rect class="cls-1" x="52.69" y="161.02" width="4.53" height="4.53"/><rect class="cls-1" x="41.59" y="161.02" width="4.53" height="4.53"/><rect class="cls-1" x="47.14" y="155.47" width="4.53" height="4.53"/><rect class="cls-1" x="52.69" y="155.47" width="4.53" height="4.53"/><rect class="cls-1" x="41.59" y="155.47" width="4.53" height="4.53"/><rect class="cls-1" x="47.14" y="166.57" width="4.53" height="4.53"/><rect class="cls-1" x="52.69" y="166.57" width="4.53" height="4.53"/><rect class="cls-1" x="41.59" y="166.57" width="4.53" height="4.53"/><rect class="cls-1" x="47.14" y="172.12" width="4.53" height="4.53"/><rect class="cls-1" x="52.69" y="172.12" width="4.53" height="4.53"/><rect class="cls-1" x="41.59" y="172.12" width="4.53" height="4.53"/><rect class="cls-1" x="79.87" y="177.67" width="4.53" height="4.53"/><rect class="cls-1" x="85.42" y="177.67" width="4.53" height="4.53"/><rect class="cls-1" x="74.32" y="177.67" width="4.53" height="4.53"/><rect class="cls-1" x="79.87" y="161.02" width="4.53" height="4.53"/><rect class="cls-1" x="85.42" y="161.02" width="4.53" height="4.53"/><rect class="cls-1" x="74.32" y="161.02" width="4.53" height="4.53"/><rect class="cls-1" x="79.87" y="155.47" width="4.53" height="4.53"/><rect class="cls-1" x="85.42" y="155.47" width="4.53" height="4.53"/><rect class="cls-1" x="74.32" y="155.47" width="4.53" height="4.53"/><rect class="cls-1" x="79.87" y="166.57" width="4.53" height="4.53"/><rect class="cls-1" x="85.42" y="166.57" width="4.53" height="4.53"/><rect class="cls-1" x="74.32" y="166.57" width="4.53" height="4.53"/><rect class="cls-1" x="79.87" y="172.12" width="4.53" height="4.53"/><rect class="cls-1" x="85.42" y="172.12" width="4.53" height="4.53"/><rect class="cls-1" x="74.32" y="172.12" width="4.53" height="4.53"/><rect class="cls-1" x="172.2" y="155.47" width="24.11" height="26.73"/><rect class="cls-1" x="106.89" y="155.47" width="24.11" height="26.73"/><rect class="cls-1" x="139.62" y="155.47" width="24.11" height="26.73"/><rect class="cls-1" x="327.06" y="155.47" width="24.11" height="26.73"/><rect class="cls-1" x="261.75" y="155.47" width="24.11" height="26.73"/><rect class="cls-1" x="294.48" y="155.47" width="24.11" height="26.73"/><polygon class="cls-1" points="261.75 197.25 261.75 197.25 196.45 197.25 196.45 197.25 196.45 192.72 33.12 192.72 33.12 201.63 33.12 201.78 425.08 201.78 425.08 201.63 425.08 192.72 261.75 192.72 261.75 197.25"/><path class="cls-1" d="M229,106.38H210.62V107a53.33,53.33,0,0,0,2.92,18.56c.44,1.31.88,2.48,1.46,3.8a33.45,33.45,0,0,0,14,16.07h0a33.43,33.43,0,0,0,14-16.07,29.07,29.07,0,0,0,1.46-3.8A53.1,53.1,0,0,0,247.43,107v-.58H229Z"/><polygon class="cls-1" points="229.03 85.34 202.15 102 255.91 102 229.03 85.34"/><polygon class="cls-1" points="196.3 97.03 229.03 76.87 229.03 76.87 261.75 97.03 261.75 97.03 457.81 97.03 388.85 54.37 359.93 72.34 98.28 72.34 69.35 54.37 0.39 97.03 196.3 97.03"/><rect class="cls-1" x="79.87" y="123.18" width="4.53" height="4.53"/><rect class="cls-1" x="74.32" y="123.18" width="4.53" height="4.53"/><rect class="cls-1" x="85.42" y="123.18" width="4.53" height="4.53"/><rect class="cls-1" x="79.87" y="128.73" width="4.53" height="4.53"/><rect class="cls-1" x="74.32" y="128.73" width="4.53" height="4.53"/><rect class="cls-1" x="85.42" y="128.73" width="4.53" height="4.53"/><rect class="cls-1" x="79.87" y="134.28" width="4.53" height="4.53"/><rect class="cls-1" x="74.32" y="134.28" width="4.53" height="4.53"/><rect class="cls-1" x="85.42" y="134.28" width="4.53" height="4.53"/><rect class="cls-1" x="79.87" y="111.93" width="4.53" height="4.53"/><rect class="cls-1" x="74.32" y="111.93" width="4.53" height="4.53"/><rect class="cls-1" x="85.42" y="111.93" width="4.53" height="4.53"/><rect class="cls-1" x="79.87" y="117.48" width="4.53" height="4.53"/><rect class="cls-1" x="74.32" y="117.48" width="4.53" height="4.53"/><rect class="cls-1" x="85.42" y="117.48" width="4.53" height="4.53"/><path class="cls-1" d="M78.7,106.67a15.81,15.81,0,0,0-4.53,2v2.19H78.7Z"/><path class="cls-1" d="M89.8,108.72a12.59,12.59,0,0,0-4.53-2v4.24H89.8Z"/><path class="cls-1" d="M84.25,106.38a10.76,10.76,0,0,0-2.19-.15c-.73,0-1.46.15-2.19.15v4.53H84.4l-.15-4.53Z"/><rect class="cls-1" x="112.45" y="123.18" width="4.53" height="4.53"/><rect class="cls-1" x="106.89" y="123.18" width="4.53" height="4.53"/><rect class="cls-1" x="118" y="123.18" width="4.53" height="4.53"/><rect class="cls-1" x="112.45" y="128.73" width="4.53" height="4.53"/><rect class="cls-1" x="106.89" y="128.73" width="4.53" height="4.53"/><rect class="cls-1" x="118" y="128.73" width="4.53" height="4.53"/><rect class="cls-1" x="112.45" y="134.28" width="4.53" height="4.53"/><rect class="cls-1" x="106.89" y="134.28" width="4.53" height="4.53"/><rect class="cls-1" x="118" y="134.28" width="4.53" height="4.53"/><rect class="cls-1" x="112.45" y="111.93" width="4.53" height="4.53"/><rect class="cls-1" x="106.89" y="111.93" width="4.53" height="4.53"/><rect class="cls-1" x="118" y="111.93" width="4.53" height="4.53"/><rect class="cls-1" x="112.45" y="117.48" width="4.53" height="4.53"/><rect class="cls-1" x="106.89" y="117.48" width="4.53" height="4.53"/><rect class="cls-1" x="118" y="117.48" width="4.53" height="4.53"/><path class="cls-1" d="M111.42,106.67a16.06,16.06,0,0,0-4.53,2v2.19h4.53Z"/><path class="cls-1" d="M122.53,108.72a12.74,12.74,0,0,0-4.53-2v4.24h4.53Z"/><path class="cls-1" d="M117,106.38a10.76,10.76,0,0,0-2.19-.15c-.73,0-1.46.15-2.19.15v4.53h4.53l-.15-4.53Z"/><rect class="cls-1" x="145.17" y="123.18" width="4.53" height="4.53"/><rect class="cls-1" x="139.62" y="123.18" width="4.53" height="4.53"/><rect class="cls-1" x="150.72" y="123.18" width="4.53" height="4.53"/><rect class="cls-1" x="145.17" y="128.73" width="4.53" height="4.53"/><rect class="cls-1" x="139.62" y="128.73" width="4.53" height="4.53"/><rect class="cls-1" x="150.72" y="128.73" width="4.53" height="4.53"/><rect class="cls-1" x="145.17" y="134.28" width="4.53" height="4.53"/><rect class="cls-1" x="139.62" y="134.28" width="4.53" height="4.53"/><rect class="cls-1" x="150.72" y="134.28" width="4.53" height="4.53"/><rect class="cls-1" x="145.17" y="111.93" width="4.53" height="4.53"/><rect class="cls-1" x="139.62" y="111.93" width="4.53" height="4.53"/><rect class="cls-1" x="150.72" y="111.93" width="4.53" height="4.53"/><rect class="cls-1" x="145.17" y="117.48" width="4.53" height="4.53"/><rect class="cls-1" x="139.62" y="117.48" width="4.53" height="4.53"/><rect class="cls-1" x="150.72" y="117.48" width="4.53" height="4.53"/><path class="cls-1" d="M144.15,106.67a15.81,15.81,0,0,0-4.53,2v2.19h4.53Z"/><path class="cls-1" d="M155.25,108.72a12.59,12.59,0,0,0-4.53-2v4.24h4.53Z"/><path class="cls-1" d="M149.7,106.38a10.76,10.76,0,0,0-2.19-.15c-.73,0-1.46.15-2.19.15v4.53h4.53l-.15-4.53Z"/><rect class="cls-1" x="177.75" y="123.18" width="4.53" height="4.53"/><rect class="cls-1" x="172.2" y="123.18" width="4.53" height="4.53"/><rect class="cls-1" x="183.45" y="123.18" width="4.53" height="4.53"/><rect class="cls-1" x="177.75" y="128.73" width="4.53" height="4.53"/><rect class="cls-1" x="172.2" y="128.73" width="4.53" height="4.53"/><rect class="cls-1" x="183.45" y="128.73" width="4.53" height="4.53"/><rect class="cls-1" x="177.75" y="134.28" width="4.53" height="4.53"/><rect class="cls-1" x="172.2" y="134.28" width="4.53" height="4.53"/><rect class="cls-1" x="183.45" y="134.28" width="4.53" height="4.53"/><rect class="cls-1" x="177.75" y="111.93" width="4.53" height="4.53"/><rect class="cls-1" x="172.2" y="111.93" width="4.53" height="4.53"/><rect class="cls-1" x="183.45" y="111.93" width="4.53" height="4.53"/><rect class="cls-1" x="177.75" y="117.48" width="4.53" height="4.53"/><rect class="cls-1" x="172.2" y="117.48" width="4.53" height="4.53"/><rect class="cls-1" x="183.45" y="117.48" width="4.53" height="4.53"/><path class="cls-1" d="M176.73,106.67a15.81,15.81,0,0,0-4.53,2v2.19h4.53Z"/><path class="cls-1" d="M187.83,108.72a12.67,12.67,0,0,0-4.53-2v4.24h4.53Z"/><path class="cls-1" d="M182.28,106.38a10.76,10.76,0,0,0-2.19-.15c-.73,0-1.46.15-2.19.15v4.53h4.52l-.14-4.53Z"/><rect class="cls-1" x="275.78" y="123.18" width="4.53" height="4.53"/><rect class="cls-1" x="270.23" y="123.18" width="4.53" height="4.53"/><rect class="cls-1" x="281.33" y="123.18" width="4.53" height="4.53"/><rect class="cls-1" x="275.78" y="128.73" width="4.53" height="4.53"/><rect class="cls-1" x="270.23" y="128.73" width="4.53" height="4.53"/><rect class="cls-1" x="281.33" y="128.73" width="4.53" height="4.53"/><rect class="cls-1" x="275.78" y="134.28" width="4.53" height="4.53"/><rect class="cls-1" x="270.23" y="134.28" width="4.53" height="4.53"/><rect class="cls-1" x="281.33" y="134.28" width="4.53" height="4.53"/><rect class="cls-1" x="275.78" y="111.93" width="4.53" height="4.53"/><rect class="cls-1" x="270.23" y="111.93" width="4.53" height="4.53"/><rect class="cls-1" x="281.33" y="111.93" width="4.53" height="4.53"/><rect class="cls-1" x="275.78" y="117.48" width="4.53" height="4.53"/><rect class="cls-1" x="270.23" y="117.48" width="4.53" height="4.53"/><rect class="cls-1" x="281.33" y="117.48" width="4.53" height="4.53"/><path class="cls-1" d="M274.75,106.67a15.87,15.87,0,0,0-4.52,2v2.19h4.52Z"/><path class="cls-1" d="M285.86,108.72a12.67,12.67,0,0,0-4.53-2v4.24h4.53Z"/><path class="cls-1" d="M280.31,106.38a10.86,10.86,0,0,0-2.2-.15c-.73,0-1.46.15-2.19.15v4.53h4.53v-4.53Z"/><rect class="cls-1" x="308.5" y="123.18" width="4.53" height="4.53"/><rect class="cls-1" x="302.95" y="123.18" width="4.53" height="4.53"/><rect class="cls-1" x="314.05" y="123.18" width="4.53" height="4.53"/><rect class="cls-1" x="308.5" y="128.73" width="4.53" height="4.53"/><rect class="cls-1" x="302.95" y="128.73" width="4.53" height="4.53"/><rect class="cls-1" x="314.05" y="128.73" width="4.53" height="4.53"/><rect class="cls-1" x="308.5" y="134.28" width="4.53" height="4.53"/><rect class="cls-1" x="302.95" y="134.28" width="4.53" height="4.53"/><rect class="cls-1" x="314.05" y="134.28" width="4.53" height="4.53"/><rect class="cls-1" x="308.5" y="111.93" width="4.53" height="4.53"/><rect class="cls-1" x="302.95" y="111.93" width="4.53" height="4.53"/><rect class="cls-1" x="314.05" y="111.93" width="4.53" height="4.53"/><rect class="cls-1" x="308.5" y="117.48" width="4.53" height="4.53"/><rect class="cls-1" x="302.95" y="117.48" width="4.53" height="4.53"/><rect class="cls-1" x="314.05" y="117.48" width="4.53" height="4.53"/><path class="cls-1" d="M307.48,106.67a15.81,15.81,0,0,0-4.53,2v2.19h4.53Z"/><path class="cls-1" d="M318.58,108.72a12.59,12.59,0,0,0-4.53-2v4.24h4.53Z"/><path class="cls-1" d="M313,106.38a10.76,10.76,0,0,0-2.19-.15c-.73,0-1.46.15-2.19.15v4.53h4.53v-4.53Z"/><rect class="cls-1" x="341.23" y="123.18" width="4.53" height="4.53"/><rect class="cls-1" x="335.67" y="123.18" width="4.53" height="4.53"/><rect class="cls-1" x="346.78" y="123.18" width="4.53" height="4.53"/><rect class="cls-1" x="341.23" y="128.73" width="4.53" height="4.53"/><rect class="cls-1" x="335.67" y="128.73" width="4.53" height="4.53"/><rect class="cls-1" x="346.78" y="128.73" width="4.53" height="4.53"/><rect class="cls-1" x="341.23" y="134.28" width="4.53" height="4.53"/><rect class="cls-1" x="335.67" y="134.28" width="4.53" height="4.53"/><rect class="cls-1" x="346.78" y="134.28" width="4.53" height="4.53"/><rect class="cls-1" x="341.23" y="111.93" width="4.53" height="4.53"/><rect class="cls-1" x="335.67" y="111.93" width="4.53" height="4.53"/><rect class="cls-1" x="346.78" y="111.93" width="4.53" height="4.53"/><rect class="cls-1" x="341.23" y="117.48" width="4.53" height="4.53"/><rect class="cls-1" x="335.67" y="117.48" width="4.53" height="4.53"/><rect class="cls-1" x="346.78" y="117.48" width="4.53" height="4.53"/><path class="cls-1" d="M340.06,106.67a15.81,15.81,0,0,0-4.53,2v2.19h4.53Z"/><path class="cls-1" d="M351.16,108.72a12.59,12.59,0,0,0-4.53-2v4.24h4.53Z"/><path class="cls-1" d="M345.61,106.38a10.76,10.76,0,0,0-2.19-.15c-.73,0-1.46.15-2.19.15v4.53h4.52v-4.53Z"/><rect class="cls-1" x="373.8" y="123.18" width="4.53" height="4.53"/><rect class="cls-1" x="368.25" y="123.18" width="4.53" height="4.53"/><rect class="cls-1" x="379.36" y="123.18" width="4.53" height="4.53"/><rect class="cls-1" x="373.8" y="128.73" width="4.53" height="4.53"/><rect class="cls-1" x="368.25" y="128.73" width="4.53" height="4.53"/><rect class="cls-1" x="379.36" y="128.73" width="4.53" height="4.53"/><rect class="cls-1" x="373.8" y="134.28" width="4.53" height="4.53"/><rect class="cls-1" x="368.25" y="134.28" width="4.53" height="4.53"/><rect class="cls-1" x="379.36" y="134.28" width="4.53" height="4.53"/><rect class="cls-1" x="373.8" y="111.93" width="4.53" height="4.53"/><rect class="cls-1" x="368.25" y="111.93" width="4.53" height="4.53"/><rect class="cls-1" x="379.36" y="111.93" width="4.53" height="4.53"/><rect class="cls-1" x="373.8" y="117.48" width="4.53" height="4.53"/><rect class="cls-1" x="368.25" y="117.48" width="4.53" height="4.53"/><rect class="cls-1" x="379.36" y="117.48" width="4.53" height="4.53"/><path class="cls-1" d="M372.78,106.67a15.93,15.93,0,0,0-4.53,2v2.19h4.53Z"/><path class="cls-1" d="M383.88,108.72a12.62,12.62,0,0,0-4.52-2v4.24h4.52Z"/><path class="cls-1" d="M378.33,106.38a10.76,10.76,0,0,0-2.19-.15c-.73,0-1.46.15-2.19.15v4.53h4.53v-4.53Z"/><rect class="cls-1" x="406.53" y="123.18" width="4.53" height="4.53"/><rect class="cls-1" x="400.98" y="123.18" width="4.53" height="4.53"/><rect class="cls-1" x="412.08" y="123.18" width="4.53" height="4.53"/><rect class="cls-1" x="406.53" y="128.73" width="4.53" height="4.53"/><rect class="cls-1" x="400.98" y="128.73" width="4.53" height="4.53"/><rect class="cls-1" x="412.08" y="128.73" width="4.53" height="4.53"/><rect class="cls-1" x="406.53" y="134.28" width="4.53" height="4.53"/><rect class="cls-1" x="400.98" y="134.28" width="4.53" height="4.53"/><rect class="cls-1" x="412.08" y="134.28" width="4.53" height="4.53"/><rect class="cls-1" x="406.53" y="111.93" width="4.53" height="4.53"/><rect class="cls-1" x="400.98" y="111.93" width="4.53" height="4.53"/><rect class="cls-1" x="412.08" y="111.93" width="4.53" height="4.53"/><rect class="cls-1" x="406.53" y="117.48" width="4.53" height="4.53"/><rect class="cls-1" x="400.98" y="117.48" width="4.53" height="4.53"/><rect class="cls-1" x="412.08" y="117.48" width="4.53" height="4.53"/><path class="cls-1" d="M411.06,106.38a10.76,10.76,0,0,0-2.19-.15c-.73,0-1.46.15-2.19.15v4.53h4.52v-4.53Z"/><path class="cls-1" d="M416.61,108.72a12.67,12.67,0,0,0-4.53-2v4.24h4.53Z"/><path class="cls-1" d="M405.51,106.67a15.81,15.81,0,0,0-4.53,2v2.19h4.53Z"/><path class="cls-1" d="M138.74,3.09v.73h-1.17a3.85,3.85,0,0,0-3.94,3.51V36.4c0,11.54-7.89,19.14-19.72,19.14-12.27,0-20.31-7.6-20.31-19.14V7.48a3.78,3.78,0,0,0-3.94-3.66H88.49V3.09h14.9v.73h-1.17a3.85,3.85,0,0,0-4,3.51V35.38c0,10.66,6.29,17.82,15.64,17.82,9.78,0,16.36-6.72,16.36-16.94V7.33a3.76,3.76,0,0,0-4-3.51h-1.16V3.09Z"/><path class="cls-1" d="M196,3.09v.73H194.7a4.52,4.52,0,0,0-4.53,4.39v38a69.37,69.37,0,0,0,.73,9.35h-.73l-40-42.8V49.26a4.51,4.51,0,0,0,4.53,4.38H156v.73h-15v-.73h1.32a4.52,4.52,0,0,0,4.53-4.38V11.13a60.84,60.84,0,0,0-.73-9.21h.73l40,42.66V8.21a4.43,4.43,0,0,0-4.53-4.39H181V3.09Z"/><path class="cls-1" d="M218.36,54.52H202.29v-.73h.88a4.61,4.61,0,0,0,4.67-4.68V8.35a4.68,4.68,0,0,0-4.67-4.53h-.88V3.09h16.07v.73h-.87a4.59,4.59,0,0,0-4.68,4.53V49.11a4.71,4.71,0,0,0,4.68,4.68h.87Z"/><path class="cls-1" d="M256.64,4v6.14h-.73V8.94a3.59,3.59,0,0,0-3.51-3.66H236.92V27.93h12.41a3.59,3.59,0,0,0,3.51-3.65v-1h.73V34.94h-.73v-1a3.79,3.79,0,0,0-3.51-3.65H236.92V49.11a4.71,4.71,0,0,0,4.67,4.68h.88v.73H226.4v-.73h.87A4.62,4.62,0,0,0,232,49.11v-41a4.54,4.54,0,0,0-4.68-4.24h-.87V3.09h21.47a30.14,30.14,0,0,0,8.77-1.31Z"/><path class="cls-1" d="M295.79,54.52H265.4v-.73h.88A4.62,4.62,0,0,0,271,49.11v-41a4.76,4.76,0,0,0-4.68-4.24h-.88V3.09h21.48a30.2,30.2,0,0,0,8.77-1.31V11h-.74V9.67a4.35,4.35,0,0,0-4.09-4.39h-14.9V27.93h12.42a3.59,3.59,0,0,0,3.51-3.65v-1h.73V34.94h-.73v-1a3.79,3.79,0,0,0-3.51-3.65H275.92V52.33h10.52c7.74,0,10.81-4.09,13-9.65h.73Z"/><path class="cls-1" d="M329.54,32.9a11.66,11.66,0,0,1,3.65,8.91c0,8.18-5.26,13.73-13.73,13.73-3.65,0-9.5-1-12.42-3.94a21.26,21.26,0,0,1,.88-10.23h.58c-.73,7.6,4.09,12.42,10.52,12,5.41-.29,9.79-4,9.79-9.79a8.84,8.84,0,0,0-2.92-6.87l-14-13a12.55,12.55,0,0,1-3.94-9.06c0-6.13,4.53-12.41,12.85-12.41a30.66,30.66,0,0,1,6.29.73H330v9h-.73c0-4.67-3.66-7.59-8.33-7.59-5.41,0-9.06,3.94-9.06,8.47a8.9,8.9,0,0,0,2.92,6.72Z"/><path class="cls-1" d="M358.76,3.09C368.11,3.09,374,8.5,374,17.26c0,11.25-12.13,17.1-21.33,12.28v-.73s12.13,2.62,15.34-7.89a13.08,13.08,0,0,0,.44-4.39c-.15-6.72-3.65-11.25-9.94-11.25H350V49.11a4.71,4.71,0,0,0,4.68,4.68h.87v.73H339.47v-.73h.88A4.61,4.61,0,0,0,345,49.11v-41a4.74,4.74,0,0,0-4.67-4.24h-.73V3.09Z"/></svg>